SplineFontDB: 3.0
FontName: Armata-Regular
FullName: Armata-Regular
FamilyName: Armata
Weight: Book
Copyright: Copyright (c) 2012, Sorkin Type Co (www.sorkintype.com)\nwith Reserved Font Name "Armata"\n\nThis Font Software is licensed under the SIL Open Font License, Version 1.1. This license is copied below, and is also available with a FAQ at: http://scripts.sil.org/OFL
Version: 1.002
ItalicAngle: 0
UnderlinePosition: -67
UnderlineWidth: 118
Ascent: 1638
Descent: 410
LayerCount: 2
Layer: 0 1 "Back"  1
Layer: 1 1 "Fore"  0
XUID: [1021 631 1661839179 10164865]
FSType: 0
OS2Version: 3
OS2_WeightWidthSlopeOnly: 0
OS2_UseTypoMetrics: 1
CreationTime: 1333899000
ModificationTime: 1333885192
PfmFamily: 17
TTFWeight: 400
TTFWidth: 5
LineGap: 0
VLineGap: 0
Panose: 2 11 5 3 4 5 0 6 2 4
OS2TypoAscent: 363
OS2TypoAOffset: 1
OS2TypoDescent: -150
OS2TypoDOffset: 1
OS2TypoLinegap: 0
OS2WinAscent: 0
OS2WinAOffset: 1
OS2WinDescent: 0
OS2WinDOffset: 1
HheadAscent: 0
HheadAOffset: 1
HheadDescent: 0
HheadDOffset: 1
OS2SubXSize: 1434
OS2SubYSize: 1331
OS2SubXOff: 0
OS2SubYOff: 287
OS2SupXSize: 1434
OS2SupYSize: 1331
OS2SupXOff: 0
OS2SupYOff: 977
OS2StrikeYSize: 118
OS2StrikeYPos: 512
OS2Vendor: 'STC '
OS2CodePages: 20000093.00000000
OS2UnicodeRanges: a00000af.4000204a.00000000.00000000
DEI: 91125
TtTable: prep
MPPEM
PUSHW_1
 122
GT
IF
PUSHB_2
 1
 1
INSTCTRL
EIF
PUSHW_2
 2048
 2048
MUL
DUP
PUSHB_1
 1
SWAP
WCVTP
DUP
PUSHB_1
 3
SWAP
WCVTF
PUSHB_1
 21
RCVT
DUP
DUP
PUSHB_1
 40
ADD
FLOOR
DUP
ROLL
NEQ
IF
PUSHB_1
 2
CINDEX
SUB
PUSHB_1
 1
RCVT
MUL
SWAP
DIV
PUSHB_1
 2
SWAP
WCVTP
PUSHB_4
 10
 11
 3
 2
CALL
PUSHB_4
 12
 17
 3
 2
CALL
PUSHB_4
 18
 23
 3
 2
CALL
EIF
PUSHB_3
 4
 40
 7
RCVT
GT
WCVTP
PUSHB_4
 12
 17
 4
 2
CALL
PUSHW_1
 511
SCANCTRL
PUSHB_1
 4
SCANTYPE
PUSHB_2
 5
 0
WCVTP
EndTTInstrs
TtTable: fpgm
PUSHB_1
 0
FDEF
DUP
ABS
PUSHB_1
 32
ADD
FLOOR
SWAP
PUSHB_1
 0
LT
IF
NEG
EIF
ENDF
PUSHB_1
 1
FDEF
DUP
ABS
DUP
PUSHB_1
 192
LT
PUSHB_1
 4
MINDEX
AND
PUSHB_1
 4
RCVT
OR
IF
POP
SWAP
POP
ELSE
ROLL

StartChar: .notdef
Encoding: 65536 -1 0
Width: 1534
Flags: W
LayerCount: 2
Fore
SplineSet
172 1530 m 1,0,-1
 1362 1530 l 1,1,-1
 1362 0 l 1,2,-1
 172 0 l 1,3,-1
 172 1530 l 1,0,-1
395 279 m 1,4,-1
 764 648 l 1,5,-1
 1135 280 l 1,6,-1
 1232 376 l 1,7,-1
 862 746 l 1,8,-1
 1238 1122 l 1,9,-1
 1144 1216 l 1,10,-1
 768 841 l 1,11,-1
 392 1216 l 1,12,-1
 295 1118 l 1,13,-1
 671 743 l 1,14,-1
 300 372 l 1,15,-1
 395 279 l 1,4,-1
EndSplineSet
EndChar

StartChar: exclam
Encoding: 33 33 23
Width: 512
GlyphClass: 2
Flags: W
LayerCount: 2
Fore
SplineSet
164 1530 m 1,0,-1
 352 1530 l 1,1,-1
 328 412 l 1,2,-1
 197 412 l 1,3,-1
 164 1530 l 1,0,-1
153 47.5 m 128,-1,5
 148 73 148 73 148 112.5 c 128,-1,6
 148 152 148 152 153.5 177 c 128,-1,7
 159 202 159 202 172 216 c 0,8,9
 196 242 196 242 248 242 c 128,-1,10
 300 242 300 242 322.5 236.5 c 128,-1,11
 345 231 345 231 358 216 c 0,12,13
 381 191 381 191 381 113 c 256,14,15
 381 35 381 35 363 14 c 0,16,17
 335 -19 335 -19 265 -19 c 256,18,19
 195 -19 195 -19 176.5 1.5 c 128,-1,4
 158 22 158 22 153 47.5 c 128,-1,5
EndSplineSet
EndChar

StartChar: quotedbl
Encoding: 34 34 24
Width: 1026
GlyphClass: 2
Flags: W
LayerCount: 2
Fore
SplineSet
213 1805 m 1,0,-1
 399 1805 l 1,1,-1
 378 1193 l 1,2,-1
 234 1193 l 1,3,-1
 213 1805 l 1,0,-1
626 1805 m 1,4,-1
 812 1805 l 1,5,-1
 791 1193 l 1,6,-1
 647 1193 l 1,7,-1
 626 1805 l 1,4,-1
EndSplineSet
EndChar

StartChar: numbersign
Encoding: 35 35 25
Width: 1532
GlyphClass: 2
Flags: W
LayerCount: 2
Fore
SplineSet
356 391 m 1,0,-1
 133 391 l 1,1,-1
 133 507 l 1,2,-1
 385 507 l 1,3,-1
 494 936 l 1,4,-1
 242 936 l 1,5,-1
 242 1052 l 1,6,-1
 523 1052 l 1,7,-1
 615 1414 l 1,8,-1
 757 1414 l 1,9,-1
 665 1052 l 1,10,-1
 1042 1052 l 1,11,-1
 1134 1414 l 1,12,-1
 1276 1414 l 1,13,-1
 1183 1052 l 1,14,-1
 1398 1052 l 1,15,-1
 1398 936 l 1,16,-1
 1153 936 l 1,17,-1
 1044 507 l 1,18,-1
 1289 507 l 1,19,-1
 1289 391 l 1,20,-1
 1014 391 l 1,21,-1
 927 48 l 1,22,-1
 788 48 l 1,23,-1
 875 391 l 1,24,-1
 497 391 l 1,25,-1
 410 48 l 1,26,-1
 269 48 l 1,27,-1
 356 391 l 1,0,-1
904 507 m 1,28,-1
 1013 936 l 1,29,-1
 635 936 l 1,30,-1
 526 507 l 1,31,-1
 904 507 l 1,28,-1
EndSplineSet
EndChar

StartChar: dollar
Encoding: 36 36 26
Width: 1194
GlyphClass: 2
Flags: W
LayerCount: 2
Fore
SplineSet
976 1324 m 1,0,1
 782 1408 782 1408 623 1408 c 2,2,-1
 614 1408 l 2,3,4
 424 1408 424 1408 353 1339 c 0,5,6
 294 1282 294 1282 294 1138 c 2,7,-1
 294 1134 l 2,8,9
 294 981 294 981 384 930 c 1,10,11
 445 897 445 897 602.5 872 c 128,-1,12
 760 847 760 847 837 829.5 c 128,-1,13
 914 812 914 812 968 772 c 0,14,15
 1080 688 1080 688 1080 453 c 2,16,-1
 1080 429 l 2,17,18
 1080 117 1080 117 837 34 c 0,19,20
 762 9 762 9 672 2 c 1,21,-1
 672 -270 l 1,22,-1
 522 -270 l 1,23,-1
 522 2 l 1,24,25
 257 18 257 18 85 121 c 1,26,-1
 151 261 l 1,27,28
 378 141 378 141 595 141 c 0,29,30
 847 141 847 141 890 302 c 0,31,32
 904 355 904 355 904 424 c 2,33,-1
 904 453 l 2,34,35
 904 523 904 523 894 566 c 128,-1,36
 884 609 884 609 852 636 c 0,37,38
 800 681 800 681 606 711 c 0,39,40
 433 738 433 738 367 762 c 128,-1,41
 301 786 301 786 258.5 814.5 c 128,-1,42
 216 843 216 843 186 886 c 0,43,44
 124 976 124 976 124 1109.5 c 128,-1,45
 124 1243 124 1243 151 1319 c 128,-1,46
 178 1395 178 1395 229 1444 c 0,47,48
 326 1535 326 1535 522 1548 c 1,49,-1
 522 1799 l 1,50,-1
 672 1799 l 1,51,-1
 672 1548 l 1,52,53
 883 1539 883 1539 1028 1476 c 1,54,-1
 976 1324 l 1,0,1
EndSplineSet
EndChar

StartChar: percent
Encoding: 37 37 27
Width: 1875
GlyphClass: 2
Flags: W
LayerCount: 2
Fore
SplineSet
413 772 m 0,0,1
 311 772 311 772 244 793.5 c 128,-1,2
 177 815 177 815 138 862 c 0,3,4
 69 944 69 944 69 1158 c 256,5,6
 69 1372 69 1372 140 1454 c 0,7,8
 218 1545 218 1545 426 1545 c 0,9,10
 632 1545 632 1545 704 1454 c 0,11,12
 765 1376 765 1376 765 1164 c 0,13,14
 765 946 765 946 690 860 c 0,15,16
 613 772 613 772 413 772 c 0,0,1
1275 1530 m 1,17,-1
 1437 1530 l 1,18,-1
 577 0 l 1,19,-1
 417 0 l 1,20,-1
 1275 1530 l 1,17,-1
319 904.5 m 128,-1,22
 357 892 357 892 415.5 892 c 128,-1,23
 474 892 474 892 511 904 c 128,-1,24
 548 916 548 916 570 948 c 0,25,26
 609 1007 609 1007 609 1178 c 0,27,28
 609 1323 609 1323 572 1374 c 0,29,30
 535 1426 535 1426 425 1426 c 0,31,32
 305 1426 305 1426 263 1374 c 0,33,34
 222 1323 222 1323 222 1207 c 128,-1,35
 222 1091 222 1091 230 1036 c 128,-1,36
 238 981 238 981 259.5 949 c 128,-1,21
 281 917 281 917 319 904.5 c 128,-1,22
1106 367 m 0,37,38
 1106 582 1106 582 1177 664 c 0,39,40
 1255 755 1255 755 1463 755 c 0,41,42
 1669 755 1669 755 1740 664 c 0,43,44
 1802 586 1802 586 1802 373 c 0,45,46
 1802 156 1802 156 1728 70 c 1,47,48
 1650 -18 1650 -18 1452 -18 c 0,49,50
 1250 -18 1250 -18 1175 72 c 0,51,52
 1106 154 1106 154 1106 367 c 0,37,38
1259 380 m 0,53,54
 1259 301 1259 301 1267 246 c 128,-1,55
 1275 191 1275 191 1296 159 c 0,56,57
 1335 102 1335 102 1454 102 c 0,58,59
 1569 102 1569 102 1606 158 c 0,60,61
 1646 217 1646 217 1646 387 c 0,62,63
 1646 533 1646 533 1610 584 c 1,64,65
 1572 636 1572 636 1462 636 c 0,66,67
 1342 636 1342 636 1300 584 c 0,68,69
 1259 533 1259 533 1259 380 c 0,53,54
EndSplineSet
EndChar

StartChar: ampersand
Encoding: 38 38 28
Width: 1703
GlyphClass: 2
Flags: W
LayerCount: 2
Fore
SplineSet
1058 127 m 1,0,1
 872 -19 872 -19 625 -19 c 0,2,3
 435 -19 435 -19 340 67 c 0,4,5
 231 166 231 166 231 384 c 0,6,7
 231 581 231 581 290 675 c 0,8,9
 340 755 340 755 474 813 c 1,10,11
 386 856 386 856 353 901 c 0,12,13
 285 992 285 992 285 1149 c 0,14,15
 285 1548 285 1548 743 1548 c 0,16,17
 962 1548 962 1548 1143 1474 c 1,18,-1
 1090 1328 l 1,19,20
 994 1378 994 1378 846 1403 c 0,21,22
 792 1412 792 1412 726 1412 c 128,-1,23
 660 1412 660 1412 605.5 1401.5 c 128,-1,24
 551 1391 551 1391 518 1360 c 1,25,26
 454 1303 454 1303 454 1126 c 0,27,28
 454 923 454 923 614 876 c 0,29,30
 662 862 662 862 715 862 c 2,31,-1
 1037 862 l 1,32,-1
 1080 1126 l 1,33,-1
 1196 1126 l 1,34,-1
 1196 862 l 1,35,-1
 1490 862 l 1,36,37
 1494 834 1494 834 1494 798 c 0,38,39
 1494 761 1494 761 1490 733 c 1,40,-1
 1196 733 l 1,41,-1
 1196 306 l 2,42,43
 1196 188 1196 188 1207 161 c 128,-1,44
 1218 134 1218 134 1236 125 c 128,-1,45
 1254 116 1254 116 1286 116 c 0,46,47
 1382 116 1382 116 1491 169 c 1,48,-1
 1538 52 l 1,49,50
 1416 -19 1416 -19 1252 -19 c 0,51,52
 1167 -19 1167 -19 1119 20.5 c 128,-1,53
 1071 60 1071 60 1058 127 c 1,0,1
432.5 602 m 128,-1,55
 405 543 405 543 405 446.5 c 128,-1,56
 405 350 405 350 415 288 c 128,-1,57
 425 226 425 226 452 187 c 0,58,59
 503 113 503 113 648 113 c 0,60,61
 872 113 872 113 1037 253 c 1,62,-1
 1037 733 l 1,63,-1
 712 733 l 2,64,65
 569 733 569 733 514.5 697 c 128,-1,54
 460 661 460 661 432.5 602 c 128,-1,55
EndSplineSet
EndChar

StartChar: quotesingle
Encoding: 39 39 29
Width: 513
GlyphClass: 2
Flags: W
LayerCount: 2
Fore
SplineSet
163 1805 m 1,0,-1
 349 1805 l 1,1,-1
 328 1193 l 1,2,-1
 184 1193 l 1,3,-1
 163 1805 l 1,0,-1
EndSplineSet
EndChar

StartChar: parenleft
Encoding: 40 40 30
Width: 851
GlyphClass: 2
Flags: W
LayerCount: 2
Fore
SplineSet
634 1857 m 1,0,1
 422 1518 422 1518 367 1055 c 0,2,3
 293 428 293 428 539 -37 c 0,4,5
 586 -126 586 -126 650 -211 c 1,6,-1
 545 -289 l 1,7,8
 424 -168 424 -168 326 62 c 0,9,10
 196 368 196 368 196 754 c 0,11,12
 196 1299 196 1299 383 1699 c 0,13,14
 445 1832 445 1832 523 1930 c 1,15,-1
 634 1857 l 1,0,1
EndSplineSet
EndChar

StartChar: parenright
Encoding: 41 41 31
Width: 852
GlyphClass: 2
Flags: W
LayerCount: 2
Fore
SplineSet
213 -216 m 1,0,1
 425 123 425 123 480 586 c 0,2,3
 554 1213 554 1213 308 1678 c 0,4,5
 261 1767 261 1767 197 1852 c 1,6,-1
 302 1930 l 1,7,8
 423 1809 423 1809 521 1579 c 0,9,10
 651 1273 651 1273 651 887 c 0,11,12
 651 342 651 342 464 -58 c 0,13,14
 402 -191 402 -191 324 -289 c 1,15,-1
 213 -216 l 1,0,1
EndSplineSet
EndChar

StartChar: asterisk
Encoding: 42 42 32
Width: 1195
GlyphClass: 2
Flags: W
LayerCount: 2
Fore
SplineSet
282 953 m 1,0,-1
 501 1281 l 1,1,-1
 109 1259 l 1,2,-1
 109 1419 l 1,3,-1
 502 1392 l 1,4,-1
 270 1717 l 1,5,-1
 421 1801 l 1,6,-1
 596 1448 l 1,7,-1
 773 1806 l 1,8,-1
 914 1723 l 1,9,-1
 695 1390 l 1,10,-1
 1087 1417 l 1,11,-1
 1087 1257 l 1,12,-1
 695 1280 l 1,13,-1
 917 960 l 1,14,-1
 775 876 l 1,15,-1
 600 1226 l 1,16,-1
 425 869 l 1,17,-1
 282 953 l 1,0,-1
EndSplineSet
EndChar

StartChar: plus
Encoding: 43 43 33
Width: 1533
GlyphClass: 2
Flags: W
LayerCount: 2
Fore
SplineSet
180 806 m 1,0,-1
 694 806 l 1,1,-1
 694 1320 l 1,2,-1
 836 1320 l 1,3,-1
 836 806 l 1,4,-1
 1351 806 l 1,5,-1
 1351 673 l 1,6,-1
 836 673 l 1,7,-1
 836 138 l 1,8,-1
 694 138 l 1,9,-1
 694 673 l 1,10,-1
 180 673 l 1,11,-1
 180 806 l 1,0,-1
EndSplineSet
EndChar

StartChar: comma
Encoding: 44 44 34
Width: 512
GlyphClass: 2
Flags: W
LayerCount: 2
Fore
SplineSet
203 240 m 2,0,1
 227 242 227 242 248 242 c 2,2,-1
 287 242 l 2,3,4
 317 242 317 242 334.5 233.5 c 128,-1,5
 352 225 352 225 352 207 c 0,6,7
 352 182 352 182 344 147 c 2,8,-1
 213 -376 l 1,9,-1
 81 -376 l 1,10,-1
 171 238 l 1,11,-1
 203 240 l 2,0,1
EndSplineSet
EndChar

StartChar: hyphen
Encoding: 45 45 35
Width: 1026
GlyphClass: 2
Flags: W
LayerCount: 2
Fore
SplineSet
177 713 m 1,0,-1
 848 713 l 1,1,-1
 848 568 l 1,2,-1
 177 568 l 1,3,-1
 177 713 l 1,0,-1
EndSplineSet
EndChar

StartChar: period
Encoding: 46 46 36
Width: 512
GlyphClass: 2
Flags: W
LayerCount: 2
Fore
SplineSet
144 47.5 m 128,-1,1
 139 73 139 73 139 112.5 c 128,-1,2
 139 152 139 152 144.5 177 c 128,-1,3
 150 202 150 202 164 216 c 1,4,5
 187 242 187 242 239 242 c 128,-1,6
 291 242 291 242 313.5 236.5 c 128,-1,7
 336 231 336 231 349 216 c 0,8,9
 372 191 372 191 372 113 c 256,10,11
 372 35 372 35 354 14 c 0,12,13
 326 -19 326 -19 256 -19 c 256,14,15
 186 -19 186 -19 167.5 1.5 c 128,-1,0
 149 22 149 22 144 47.5 c 128,-1,1
EndSplineSet
EndChar

StartChar: slash
Encoding: 47 47 37
Width: 854
GlyphClass: 2
Flags: W
LayerCount: 2
Fore
SplineSet
689 1826 m 1,0,-1
 838 1826 l 1,1,-1
 155 -114 l 1,2,-1
 10 -114 l 1,3,-1
 689 1826 l 1,0,-1
EndSplineSet
EndChar

StartChar: zero
Encoding: 48 48 38
Width: 1534
GlyphClass: 2
Flags: W
LayerCount: 2
Fore
SplineSet
733 -20 m 2,0,1
 382 -20 382 -20 287 204 c 0,2,3
 231 335 231 335 227 550 c 0,4,5
 225 651 225 651 225 764 c 2,6,-1
 225 824 l 2,7,8
 225 1092 225 1092 247 1197 c 128,-1,9
 269 1302 269 1302 302.5 1363.5 c 128,-1,10
 336 1425 336 1425 392 1466 c 0,11,12
 505 1550 505 1550 733 1550 c 2,13,-1
 795 1550 l 2,14,15
 1038 1550 1038 1550 1154 1468 c 0,16,17
 1298 1365 1298 1365 1308 1043 c 0,18,19
 1311 943 1311 943 1311 824 c 2,20,-1
 1311 764 l 2,21,22
 1311 486 1311 486 1292.5 378.5 c 128,-1,23
 1274 271 1274 271 1242 201 c 128,-1,24
 1210 131 1210 131 1152 82 c 0,25,26
 1033 -20 1033 -20 795 -20 c 2,27,-1
 733 -20 l 2,0,1
793 129 m 2,28,29
 901 129 901 129 967.5 153 c 128,-1,30
 1034 177 1034 177 1071.5 237 c 128,-1,31
 1109 297 1109 297 1122 399.5 c 128,-1,32
 1135 502 1135 502 1135 659 c 2,33,-1
 1135 824 l 2,34,35
 1135 977 1135 977 1129 1086 c 128,-1,36
 1123 1195 1123 1195 1091.5 1264 c 128,-1,37
 1060 1333 1060 1333 993 1365.5 c 128,-1,38
 926 1398 926 1398 805 1398 c 2,39,-1
 721 1398 l 2,40,41
 504 1398 504 1398 445 1262 c 0,42,43
 408 1175 408 1175 404 1049.5 c 128,-1,44
 400 924 400 924 400 824 c 2,45,-1
 400 659 l 2,46,47
 400 355 400 355 464 246 c 1,48,49
 534 129 534 129 733 129 c 2,50,-1
 793 129 l 2,28,29
EndSplineSet
EndChar

StartChar: one
Encoding: 49 49 39
Width: 858
GlyphClass: 2
Flags: W
LayerCount: 2
Fore
SplineSet
362 1387 m 1,0,-1
 120 1358 l 1,1,-1
 106 1496 l 1,2,-1
 532 1550 l 1,3,-1
 532 0 l 1,4,-1
 362 0 l 1,5,-1
 362 1387 l 1,0,-1
EndSplineSet
EndChar

StartChar: two
Encoding: 50 50 40
Width: 1196
GlyphClass: 2
Flags: W
LayerCount: 2
Fore
SplineSet
805 1191 m 0,0,1
 805 1405 805 1405 570 1405 c 0,2,3
 447 1405 447 1405 296 1336 c 0,4,5
 253 1316 253 1316 221 1294 c 1,6,-1
 155 1433 l 1,7,8
 261 1515 261 1515 468 1543 c 0,9,10
 526 1551 526 1551 607.5 1551 c 128,-1,11
 689 1551 689 1551 768 1525.5 c 128,-1,12
 847 1500 847 1500 896 1454 c 0,13,14
 989 1368 989 1368 989 1210 c 0,15,16
 989 1032 989 1032 862 820 c 1,17,18
 757 647 757 647 611 466 c 1,19,-1
 346 146 l 1,20,-1
 1008 146 l 1,21,-1
 1008 0 l 1,22,-1
 146 0 l 1,23,-1
 134 129 l 1,24,25
 209 210 209 210 287 304 c 1,26,27
 552 635 552 635 677 824 c 1,28,29
 805 1025 805 1025 805 1191 c 0,0,1
EndSplineSet
EndChar

StartChar: three
Encoding: 51 51 41
Width: 1195
GlyphClass: 2
Flags: W
LayerCount: 2
Fore
SplineSet
1008 459 m 1,0,-1
 1007 416 l 1,1,2
 1000 180 1000 180 852 72 c 0,3,4
 727 -20 727 -20 511 -20 c 0,5,6
 278 -20 278 -20 98 60 c 1,7,-1
 146 210 l 1,8,9
 352 125 352 125 564 125 c 0,10,11
 825 125 825 125 825 438 c 2,12,-1
 825 455 l 2,13,14
 825 709 825 709 640 733 c 0,15,16
 586 740 586 740 529.5 740 c 128,-1,17
 473 740 473 740 422 737 c 2,18,-1
 323 731 l 1,19,-1
 310 861 l 1,20,21
 499 908 499 908 629 1003 c 0,22,23
 770 1106 770 1106 768.5 1212.5 c 128,-1,24
 767 1319 767 1319 710.5 1363.5 c 128,-1,25
 654 1408 654 1408 527 1407 c 1,26,27
 356 1407 356 1407 198 1324 c 1,28,-1
 146 1472 l 1,29,30
 302 1546 302 1546 543 1550 c 1,31,32
 739 1552 739 1552 846 1464 c 1,33,34
 945 1381 945 1381 947 1238 c 0,35,36
 950 1027 950 1027 728 918 c 0,37,38
 662 886 662 886 589 859 c 1,39,-1
 591 850 l 1,40,41
 826 854 826 854 919 761 c 0,42,43
 1008 672 1008 672 1008 459 c 1,0,-1
EndSplineSet
EndChar

StartChar: four
Encoding: 52 52 42
Width: 1366
GlyphClass: 2
Flags: W
LayerCount: 2
Fore
SplineSet
141 499 m 1,0,-1
 752 1530 l 1,1,-1
 1029 1530 l 1,2,-1
 1029 527 l 1,3,-1
 1203 527 l 1,4,-1
 1203 397 l 1,5,-1
 1029 382 l 1,6,-1
 1029 0 l 1,7,-1
 861 0 l 1,8,-1
 861 382 l 1,9,-1
 141 382 l 1,10,-1
 141 499 l 1,0,-1
861 527 m 1,11,-1
 860 1408 l 1,12,-1
 346 527 l 1,13,-1
 861 527 l 1,11,-1
EndSplineSet
EndChar

StartChar: five
Encoding: 53 53 43
Width: 1196
GlyphClass: 2
Flags: W
LayerCount: 2
Fore
SplineSet
167 206 m 1,0,1
 370 124 370 124 576 124 c 0,2,3
 731 124 731 124 792 222 c 1,4,5
 848 310 848 310 848 512 c 0,6,7
 848 690 848 690 790 764 c 0,8,9
 729 841 729 841 579 841 c 0,10,11
 508 841 508 841 421 830 c 128,-1,12
 334 819 334 819 224 807 c 1,13,-1
 224 1530 l 1,14,-1
 981 1530 l 1,15,-1
 981 1385 l 1,16,-1
 386 1385 l 1,17,-1
 386 950 l 1,18,-1
 500 968 l 2,19,20
 559 977 559 977 656 977 c 128,-1,21
 753 977 753 977 826 945.5 c 128,-1,22
 899 914 899 914 942 858 c 0,23,24
 1018 758 1018 758 1022 549 c 1,25,-1
 1022 498 l 2,26,27
 1022 216 1022 216 902 95 c 0,28,29
 787 -20 787 -20 539 -20 c 0,30,31
 308 -20 308 -20 118 59 c 1,32,-1
 167 206 l 1,0,1
EndSplineSet
EndChar

StartChar: six
Encoding: 54 54 44
Width: 1366
GlyphClass: 2
Flags: W
LayerCount: 2
Fore
SplineSet
1080 1336 m 1,0,1
 905 1407 905 1407 707 1407 c 0,2,3
 625 1407 625 1407 564.5 1392 c 128,-1,4
 504 1377 504 1377 465 1330 c 0,5,6
 386 1234 386 1234 390 958 c 1,7,-1
 391 851 l 1,8,9
 507 929 507 929 676 956 c 0,10,11
 734 965 734 965 809 965 c 128,-1,12
 884 965 884 965 948 949.5 c 128,-1,13
 1012 934 1012 934 1055.5 906 c 128,-1,14
 1099 878 1099 878 1125 839 c 128,-1,15
 1151 800 1151 800 1164 752 c 0,16,17
 1186 676 1186 676 1186 536 c 2,18,-1
 1186 442 l 2,19,20
 1186 241 1186 241 1110 133 c 0,21,22
 1003 -20 1003 -20 721 -20 c 0,23,24
 450 -20 450 -20 333 88 c 0,25,26
 218 195 218 195 218 433 c 2,27,-1
 218 961 l 1,28,29
 219 1109 219 1109 240 1219.5 c 128,-1,30
 261 1330 261 1330 320 1404 c 0,31,32
 436 1550 436 1550 754 1550 c 0,33,34
 941 1550 941 1550 1072 1512 c 0,35,36
 1110 1501 1110 1501 1130 1489 c 1,37,-1
 1080 1336 l 1,0,1
391 483 m 2,38,39
 391 285 391 285 439 215 c 0,40,41
 498 128 498 128 682 128 c 2,42,-1
 739 128 l 2,43,44
 904 128 904 128 962 202 c 0,45,46
 1013 267 1013 267 1013 443 c 2,47,-1
 1013 500 l 2,48,49
 1013 697 1013 697 968 756 c 0,50,51
 943 790 943 790 898 802 c 128,-1,52
 853 814 853 814 783 814 c 2,53,-1
 755 814 l 2,54,55
 548 814 548 814 391 724 c 1,56,-1
 391 483 l 2,38,39
EndSplineSet
EndChar

StartChar: seven
Encoding: 55 55 45
Width: 1024
GlyphClass: 2
Flags: W
LayerCount: 2
Fore
SplineSet
944 1397 m 1,0,1
 645 800 645 800 388 0 c 1,2,-1
 212 0 l 1,3,4
 334 373 334 373 441 638 c 1,5,-1
 620 1066 l 1,6,-1
 765 1385 l 1,7,-1
 78 1385 l 1,8,-1
 78 1530 l 1,9,-1
 944 1530 l 1,10,-1
 944 1397 l 1,0,1
EndSplineSet
EndChar

StartChar: eight
Encoding: 56 56 46
Width: 1366
GlyphClass: 2
Flags: W
LayerCount: 2
Fore
SplineSet
203 439 m 2,0,1
 203 633 203 633 364 738 c 0,2,3
 425 778 425 778 517 810 c 1,4,5
 278 884 278 884 237 1068 c 0,6,7
 224 1126 224 1126 224 1194 c 2,8,-1
 224 1208 l 2,9,10
 224 1389 224 1389 356 1474 c 0,11,12
 473 1550 473 1550 687 1550 c 2,13,-1
 701 1550 l 2,14,15
 928 1550 928 1550 1030 1476 c 0,16,17
 1141 1396 1141 1396 1141 1211 c 2,18,-1
 1141 1195 l 2,19,20
 1141 993 1141 993 985 892 c 0,21,22
 932 857 932 857 860 828 c 1,23,24
 1027 769 1027 769 1096 679 c 0,25,26
 1168 586 1168 586 1168 428 c 2,27,-1
 1168 370 l 2,28,29
 1168 43 1168 43 863 -6 c 0,30,31
 772 -20 772 -20 670.5 -20 c 128,-1,32
 569 -20 569 -20 483.5 -5 c 128,-1,33
 398 10 398 10 336 52 c 0,34,35
 203 144 203 144 203 370 c 2,36,-1
 203 439 l 2,0,1
701 890 m 1,37,38
 871 947 871 947 930 1022 c 0,39,40
 982 1088 982 1088 982 1211 c 0,41,42
 982 1329 982 1329 904 1372 c 0,43,44
 841 1407 841 1407 727.5 1407 c 128,-1,45
 614 1407 614 1407 557 1399 c 128,-1,46
 500 1391 500 1391 462 1368 c 0,47,48
 383 1320 383 1320 383 1190 c 0,49,50
 383 1063 383 1063 450 1005 c 0,51,52
 506 956 506 956 701 890 c 1,37,38
370 371 m 2,53,54
 370 170 370 170 535 136 c 0,55,56
 587 126 587 126 651 126 c 2,57,-1
 719 126 l 2,58,59
 860 126 860 126 923 172 c 0,60,61
 1000 228 1000 228 1000 371 c 2,62,-1
 1000 436 l 2,63,64
 1000 562 1000 562 925 628 c 0,65,66
 857 689 857 689 682 745 c 1,67,68
 495 685 495 685 432 622 c 0,69,70
 370 559 370 559 370 436 c 2,71,-1
 370 371 l 2,53,54
EndSplineSet
EndChar

StartChar: nine
Encoding: 57 57 47
Width: 1366
GlyphClass: 2
Flags: W
LayerCount: 2
Fore
SplineSet
285 201 m 1,0,1
 471 124 471 124 658 124 c 0,2,3
 742 124 742 124 802.5 139 c 128,-1,4
 863 154 863 154 902 201 c 0,5,6
 977 291 977 291 975 572 c 2,7,-1
 974 679 l 1,8,9
 801 565 801 565 571 565 c 0,10,11
 324 565 324 565 240 691 c 0,12,13
 192 764 192 764 183 880 c 0,14,15
 179 935 179 935 179 994 c 2,16,-1
 179 1088 l 2,17,18
 179 1289 179 1289 254 1397 c 1,19,20
 362 1550 362 1550 644 1550 c 0,21,22
 915 1550 915 1550 1032 1442 c 0,23,24
 1147 1335 1147 1335 1147 1097 c 2,25,-1
 1147 569 l 1,26,27
 1146 421 1146 421 1125 310.5 c 128,-1,28
 1104 200 1104 200 1048 126 c 0,29,30
 936 -20 936 -20 631 -20 c 0,31,32
 444 -20 444 -20 296 30 c 0,33,34
 257 43 257 43 236 54 c 1,35,-1
 285 201 l 1,0,1
610 715 m 2,36,37
 762 715 762 715 905 772 c 0,38,39
 945 788 945 788 974 805 c 1,40,-1
 974 1047 l 2,41,42
 974 1245 974 1245 926 1315 c 0,43,44
 867 1402 867 1402 683 1402 c 2,45,-1
 626 1402 l 2,46,47
 461 1402 461 1402 403 1328 c 0,48,49
 352 1263 352 1263 352 1087 c 2,50,-1
 352 1029 l 2,51,52
 352 832 352 832 396 773 c 0,53,54
 422 739 422 739 466.5 727 c 128,-1,55
 511 715 511 715 582 715 c 2,56,-1
 610 715 l 2,36,37
EndSplineSet
EndChar

StartChar: colon
Encoding: 58 58 48
Width: 512
GlyphClass: 2
Flags: W
LayerCount: 2
Fore
SplineSet
254 813 m 0,0,1
 186 813 186 813 168 833 c 0,2,3
 140 864 140 864 140 921.5 c 128,-1,4
 140 979 140 979 145.5 1003 c 128,-1,5
 151 1027 151 1027 164 1041 c 0,6,7
 189 1066 189 1066 238.5 1066 c 128,-1,8
 288 1066 288 1066 309.5 1060.5 c 128,-1,9
 331 1055 331 1055 344 1041 c 0,10,11
 367 1016 367 1016 367 941 c 0,12,13
 367 865 367 865 349 845 c 0,14,15
 320 813 320 813 254 813 c 0,0,1
145 45 m 128,-1,17
 140 70 140 70 140 108 c 128,-1,18
 140 146 140 146 145.5 170.5 c 128,-1,19
 151 195 151 195 164 209 c 0,20,21
 189 234 189 234 238.5 234 c 128,-1,22
 288 234 288 234 309.5 228.5 c 128,-1,23
 331 223 331 223 344 209 c 0,24,25
 367 184 367 184 367 127.5 c 128,-1,26
 367 71 367 71 362 46 c 128,-1,27
 357 21 357 21 344 6 c 0,28,29
 321 -19 321 -19 254 -19 c 0,30,31
 186 -19 186 -19 168 0.5 c 128,-1,16
 150 20 150 20 145 45 c 128,-1,17
EndSplineSet
EndChar

StartChar: semicolon
Encoding: 59 59 49
Width: 512
GlyphClass: 2
Flags: W
LayerCount: 2
Fore
SplineSet
257 813 m 0,0,1
 189 813 189 813 171 833 c 0,2,3
 143 864 143 864 143 921.5 c 128,-1,4
 143 979 143 979 148.5 1003 c 128,-1,5
 154 1027 154 1027 168 1041 c 0,6,7
 192 1066 192 1066 241.5 1066 c 128,-1,8
 291 1066 291 1066 312.5 1060.5 c 128,-1,9
 334 1055 334 1055 347 1041 c 0,10,11
 370 1016 370 1016 370 941 c 0,12,13
 370 865 370 865 352 845 c 0,14,15
 323 813 323 813 257 813 c 0,0,1
203 240 m 2,16,17
 227 242 227 242 248 242 c 2,18,-1
 287 242 l 2,19,20
 317 242 317 242 334.5 233.5 c 128,-1,21
 352 225 352 225 352 207 c 0,22,23
 352 182 352 182 344 147 c 2,24,-1
 213 -376 l 1,25,-1
 81 -376 l 1,26,-1
 171 238 l 1,27,-1
 203 240 l 2,16,17
EndSplineSet
EndChar

StartChar: less
Encoding: 60 60 50
Width: 1374
GlyphClass: 2
Flags: W
LayerCount: 2
Fore
SplineSet
1133 1071 m 1,0,-1
 318 634 l 1,1,-1
 1133 217 l 1,2,-1
 1074 96 l 1,3,-1
 160 567 l 1,4,-1
 160 705 l 1,5,-1
 1073 1194 l 1,6,-1
 1133 1071 l 1,0,-1
EndSplineSet
EndChar

StartChar: equal
Encoding: 61 61 51
Width: 1364
GlyphClass: 2
Flags: W
LayerCount: 2
Fore
SplineSet
189 937 m 1,0,-1
 1173 937 l 1,1,-1
 1173 807 l 1,2,-1
 189 807 l 1,3,-1
 189 937 l 1,0,-1
189 544 m 1,4,-1
 1173 544 l 1,5,-1
 1173 413 l 1,6,-1
 189 413 l 1,7,-1
 189 544 l 1,4,-1
EndSplineSet
EndChar

StartChar: greater
Encoding: 62 62 52
Width: 1374
GlyphClass: 2
Flags: W
LayerCount: 2
Fore
SplineSet
220 219 m 1,0,-1
 1035 656 l 1,1,-1
 220 1073 l 1,2,-1
 279 1194 l 1,3,-1
 1193 723 l 1,4,-1
 1193 585 l 1,5,-1
 280 96 l 1,6,-1
 220 219 l 1,0,-1
EndSplineSet
EndChar

StartChar: question
Encoding: 63 63 53
Width: 1024
GlyphClass: 2
Flags: W
LayerCount: 2
Fore
SplineSet
338 563 m 2,0,1
 331 619 331 619 369 657 c 2,2,-1
 623 919 l 1,3,4
 683 983 683 983 695 1017 c 0,5,6
 710 1062 710 1062 710 1110 c 128,-1,7
 710 1158 710 1158 709 1180 c 128,-1,8
 708 1202 708 1202 704 1217 c 0,9,10
 697 1245 697 1245 677.5 1258.5 c 128,-1,11
 658 1272 658 1272 617.5 1288.5 c 128,-1,12
 577 1305 577 1305 515 1324 c 0,13,14
 368 1369 368 1369 201 1389 c 1,15,-1
 234 1559 l 1,16,17
 531 1518 531 1518 724 1423 c 0,18,19
 844 1363 844 1363 867 1280 c 0,20,21
 879 1237 879 1237 879 1168 c 128,-1,22
 879 1099 879 1099 875 1060.5 c 128,-1,23
 871 1022 871 1022 860.5 990 c 128,-1,24
 850 958 850 958 831 928.5 c 128,-1,25
 812 899 812 899 782.5 866 c 128,-1,26
 753 833 753 833 711 794 c 2,27,-1
 503 604 l 1,28,-1
 481 412 l 1,29,-1
 358 412 l 1,30,-1
 338 563 l 2,0,1
313 47.5 m 128,-1,32
 308 73 308 73 308 112.5 c 128,-1,33
 308 152 308 152 313.5 177 c 128,-1,34
 319 202 319 202 332 216 c 0,35,36
 356 242 356 242 408 242 c 128,-1,37
 460 242 460 242 482.5 236.5 c 128,-1,38
 505 231 505 231 518 216 c 0,39,40
 541 191 541 191 541 113 c 256,41,42
 541 35 541 35 523 14 c 0,43,44
 495 -19 495 -19 425 -19 c 256,45,46
 355 -19 355 -19 336.5 1.5 c 128,-1,31
 318 22 318 22 313 47.5 c 128,-1,32
EndSplineSet
EndChar

StartChar: at
Encoding: 64 64 54
Width: 1877
GlyphClass: 2
Flags: W
LayerCount: 2
Fore
SplineSet
1677 7 m 1,0,-1
 1734 -127 l 1,1,2
 1507 -243 1507 -243 1168 -278 c 0,3,4
 1073 -287 1073 -287 998 -287 c 0,5,6
 567 -287 567 -287 390 -80 c 1,7,8
 219 122 219 122 219 606 c 0,9,10
 219 1127 219 1127 424 1324 c 0,11,12
 553 1448 553 1448 766 1479 c 0,13,14
 870 1494 870 1494 992.5 1494 c 128,-1,15
 1115 1494 1115 1494 1221 1481 c 128,-1,16
 1327 1468 1327 1468 1404 1426 c 0,17,18
 1570 1335 1570 1335 1570 1084 c 2,19,-1
 1570 641 l 2,20,21
 1570 420 1570 420 1590 204 c 1,22,-1
 1448 191 l 1,23,-1
 1421 341 l 1,24,25
 1212 175 1212 175 974 175 c 0,26,27
 622 175 622 175 622 611 c 0,28,29
 622 948 622 948 837 1006 c 0,30,31
 901 1024 901 1024 974 1024 c 0,32,33
 1199 1024 1199 1024 1411 942 c 1,34,-1
 1411 1084 l 2,35,36
 1411 1244 1411 1244 1314 1302 c 0,37,38
 1222 1357 1222 1357 971 1357 c 0,39,40
 770 1357 770 1357 654 1305 c 0,41,42
 443 1210 443 1210 391 886 c 0,43,44
 372 768 372 768 372 591.5 c 128,-1,45
 372 415 372 415 404 272 c 128,-1,46
 436 129 436 129 508 34 c 0,47,48
 652 -153 652 -153 980.5 -153 c 128,-1,49
 1309 -153 1309 -153 1677 7 c 1,0,-1
1407 819 m 1,50,51
 1187 878 1187 878 998 878 c 0,52,53
 866 878 866 878 822 797 c 0,54,55
 792 740 792 740 792 601.5 c 128,-1,56
 792 463 792 463 842 394.5 c 128,-1,57
 892 326 892 326 1010 326 c 0,58,59
 1225 326 1225 326 1413 471 c 1,60,61
 1410 521 1410 521 1409 597 c 2,62,-1
 1408 722 l 2,63,64
 1407 771 1407 771 1407 819 c 1,50,51
EndSplineSet
EndChar

StartChar: A
Encoding: 65 65 55
Width: 1364
GlyphClass: 2
Flags: W
LayerCount: 2
Fore
SplineSet
550 1530 m 1,0,-1
 783 1530 l 1,1,-1
 1318 0 l 1,2,-1
 1137 0 l 1,3,-1
 985 449 l 1,4,-1
 369 449 l 1,5,-1
 225 0 l 1,6,-1
 49 0 l 1,7,-1
 550 1530 l 1,0,-1
937 592 m 1,8,-1
 667 1395 l 1,9,-1
 636 1281 l 1,10,-1
 415 592 l 1,11,-1
 937 592 l 1,8,-1
EndSplineSet
EndChar

StartChar: B
Encoding: 66 66 56
Width: 1364
GlyphClass: 2
Flags: W
LayerCount: 2
Fore
SplineSet
1170 1138 m 0,0,1
 1170 830 1170 830 937 799 c 1,2,-1
 937 796 l 1,3,4
 1081 785 1081 785 1152 714 c 1,5,6
 1234 630 1234 630 1234 470.5 c 128,-1,7
 1234 311 1234 311 1197.5 223 c 128,-1,8
 1161 135 1161 135 1096 86 c 1,9,10
 985 0 985 0 747 0 c 2,11,-1
 236 0 l 1,12,-1
 236 1525 l 1,13,14
 513 1551 513 1551 693 1551 c 128,-1,15
 873 1551 873 1551 957 1523.5 c 128,-1,16
 1041 1496 1041 1496 1088 1444 c 0,17,18
 1170 1353 1170 1353 1170 1138 c 0,0,1
631 847 m 2,19,20
 832 847 832 847 910 904 c 0,21,22
 999 968 999 968 999 1142 c 2,23,-1
 999 1163 l 2,24,25
 999 1297 999 1297 940 1354 c 0,26,27
 881 1410 881 1410 739 1410 c 0,28,29
 620 1410 620 1410 537 1405 c 2,30,-1
 406 1397 l 1,31,-1
 406 847 l 1,32,-1
 631 847 l 2,19,20
768 142 m 2,33,34
 915 142 915 142 978 198 c 0,35,36
 1057 269 1057 269 1057 452 c 0,37,38
 1057 664 1057 664 902 700 c 0,39,40
 855 711 855 711 800 711 c 2,41,-1
 406 711 l 1,42,-1
 406 142 l 1,43,-1
 768 142 l 2,33,34
EndSplineSet
EndChar

StartChar: C
Encoding: 67 67 57
Width: 1194
GlyphClass: 2
Flags: W
LayerCount: 2
Fore
SplineSet
771 124 m 2,0,1
 934 124 934 124 1099 187 c 1,2,-1
 1143 49 l 1,3,4
 1067 11 1067 11 960 -4.5 c 128,-1,5
 853 -20 853 -20 771 -20 c 2,6,-1
 757 -20 l 2,7,8
 401 -20 401 -20 280 184 c 0,9,10
 206 308 206 308 190 518 c 0,11,12
 183 619 183 619 183 739 c 128,-1,13
 183 859 183 859 189.5 967.5 c 128,-1,14
 196 1076 196 1076 216 1166.5 c 128,-1,15
 236 1257 236 1257 274 1328 c 128,-1,16
 312 1399 312 1399 376 1448 c 0,17,18
 506 1550 506 1550 754 1550 c 0,19,20
 914 1550 914 1550 1011.5 1529.5 c 128,-1,21
 1109 1509 1109 1509 1143 1496 c 1,22,-1
 1098 1338 l 1,23,24
 903 1406 903 1406 764.5 1406 c 128,-1,25
 626 1406 626 1406 551.5 1372.5 c 128,-1,26
 477 1339 477 1339 435 1262 c 0,27,28
 362 1130 362 1130 362 759 c 2,29,-1
 362 685 l 2,30,31
 362 380 362 380 441 259 c 0,32,33
 529 124 529 124 762 124 c 2,34,-1
 771 124 l 2,0,1
EndSplineSet
EndChar

StartChar: D
Encoding: 68 68 58
Width: 1534
GlyphClass: 2
Flags: W
LayerCount: 2
Fore
SplineSet
236 1521 m 1,0,1
 236 1521 236 1521 386 1532 c 0,2,3
 611 1550 611 1550 745 1550 c 128,-1,4
 879 1550 879 1550 959 1539.5 c 128,-1,5
 1039 1529 1039 1529 1099.5 1503.5 c 128,-1,6
 1160 1478 1160 1478 1202.5 1434 c 128,-1,7
 1245 1390 1245 1390 1272 1322 c 0,8,9
 1323 1195 1323 1195 1323 944 c 2,10,-1
 1323 789 l 2,11,12
 1323 492 1323 492 1279 338 c 0,13,14
 1228 160 1228 160 1096 82 c 1,15,16
 960 0 960 0 697 0 c 2,17,-1
 236 0 l 1,18,-1
 236 1521 l 1,0,1
981 1373 m 128,-1,20
 913 1402 913 1402 772 1402 c 128,-1,21
 631 1402 631 1402 406 1385 c 1,22,-1
 406 143 l 1,23,-1
 724 143 l 2,24,25
 910 143 910 143 1000 204 c 0,26,27
 1088 263 1088 263 1118 407 c 1,28,29
 1144 525 1144 525 1144 789 c 2,30,-1
 1144 945 l 2,31,32
 1144 1194 1144 1194 1085 1287 c 0,33,19
 1049 1344 1049 1344 981 1373 c 128,-1,20
EndSplineSet
EndChar

StartChar: E
Encoding: 69 69 59
Width: 1195
GlyphClass: 2
Flags: W
LayerCount: 2
Fore
SplineSet
236 1530 m 1,0,-1
 1103 1530 l 1,1,-1
 1103 1382 l 1,2,-1
 406 1382 l 1,3,-1
 406 854 l 1,4,-1
 968 854 l 1,5,-1
 968 707 l 1,6,-1
 406 707 l 1,7,-1
 406 147 l 1,8,-1
 1130 147 l 1,9,-1
 1130 0 l 1,10,-1
 236 0 l 1,11,-1
 236 1530 l 1,0,-1
EndSplineSet
EndChar

StartChar: F
Encoding: 70 70 60
Width: 1191
GlyphClass: 2
Flags: W
LayerCount: 2
Fore
SplineSet
236 1530 m 1,0,-1
 1115 1530 l 1,1,-1
 1115 1382 l 1,2,-1
 406 1382 l 1,3,-1
 406 781 l 1,4,-1
 1021 781 l 1,5,-1
 1021 634 l 1,6,-1
 406 634 l 1,7,-1
 406 0 l 1,8,-1
 236 0 l 1,9,-1
 236 1530 l 1,0,-1
EndSplineSet
EndChar

StartChar: G
Encoding: 71 71 61
Width: 1364
GlyphClass: 2
Flags: W
LayerCount: 2
Fore
SplineSet
1165 1322 m 1,0,1
 924 1406 924 1406 702 1406 c 0,2,3
 473 1406 473 1406 404 1218 c 0,4,5
 363 1107 363 1107 358.5 965.5 c 128,-1,6
 354 824 354 824 354 721 c 2,7,-1
 354 622 l 2,8,9
 354 303 354 303 461 199 c 0,10,11
 525 137 525 137 632 126 c 0,12,13
 682 120 682 120 735 120 c 128,-1,14
 788 120 788 120 837.5 125.5 c 128,-1,15
 887 131 887 131 932 140 c 0,16,17
 1023 158 1023 158 1068 180 c 1,18,-1
 1068 652 l 1,19,-1
 759 652 l 1,20,-1
 759 790 l 1,21,-1
 1235 790 l 1,22,-1
 1235 105 l 1,23,24
 1141 34 1141 34 902 -6 c 0,25,26
 819 -20 819 -20 713 -20 c 128,-1,27
 607 -20 607 -20 518.5 1.5 c 128,-1,28
 430 23 430 23 368.5 64.5 c 128,-1,29
 307 106 307 106 269 168 c 128,-1,30
 231 230 231 230 210 311 c 0,31,32
 176 447 176 447 176 646.5 c 128,-1,33
 176 846 176 846 183 961.5 c 128,-1,34
 190 1077 190 1077 210.5 1170.5 c 128,-1,35
 231 1264 231 1264 268 1335 c 128,-1,36
 305 1406 305 1406 365 1454 c 0,37,38
 487 1550 487 1550 713 1550 c 0,39,40
 971 1550 971 1550 1154 1493 c 2,41,-1
 1205 1477 l 1,42,-1
 1165 1322 l 1,0,1
EndSplineSet
EndChar

StartChar: H
Encoding: 72 72 62
Width: 1534
GlyphClass: 2
Flags: W
LayerCount: 2
Fore
SplineSet
236 1530 m 1,0,-1
 406 1530 l 1,1,-1
 406 839 l 1,2,-1
 1129 839 l 1,3,-1
 1129 1530 l 1,4,-1
 1298 1530 l 1,5,-1
 1298 0 l 1,6,-1
 1129 0 l 1,7,-1
 1129 694 l 1,8,-1
 406 694 l 1,9,-1
 406 0 l 1,10,-1
 236 0 l 1,11,-1
 236 1530 l 1,0,-1
EndSplineSet
EndChar

StartChar: I
Encoding: 73 73 63
Width: 683
GlyphClass: 2
Flags: W
LayerCount: 2
Fore
SplineSet
257 1530 m 1,0,-1
 426 1530 l 1,1,-1
 426 0 l 1,2,-1
 257 0 l 1,3,-1
 257 1530 l 1,0,-1
EndSplineSet
EndChar

StartChar: J
Encoding: 74 74 64
Width: 853
GlyphClass: 2
Flags: W
LayerCount: 2
Fore
SplineSet
32 182 m 1,0,1
 32 182 32 182 55 171 c 0,2,3
 164 119 164 119 286 119 c 0,4,5
 392 119 392 119 436 185 c 0,6,7
 478 249 478 249 478 404 c 2,8,-1
 478 1530 l 1,9,-1
 646 1530 l 1,10,-1
 646 516 l 2,11,12
 646 329 646 329 630.5 252 c 128,-1,13
 615 175 615 175 591.5 128 c 128,-1,14
 568 81 568 81 528 48 c 0,15,16
 446 -20 446 -20 286 -20 c 0,17,18
 148 -20 148 -20 27 30 c 0,19,20
 -2 42 -2 42 -17 51 c 1,21,-1
 32 182 l 1,0,1
EndSplineSet
EndChar

StartChar: K
Encoding: 75 75 65
Width: 1364
GlyphClass: 2
Flags: W
LayerCount: 2
Fore
SplineSet
453 688 m 2,0,-1
 406 687 l 1,1,-1
 406 0 l 1,2,-1
 236 0 l 1,3,-1
 236 1530 l 1,4,-1
 406 1530 l 1,5,-1
 406 812 l 1,6,7
 462 812 462 812 479 820.5 c 128,-1,8
 496 829 496 829 519 845.5 c 128,-1,9
 542 862 542 862 587 913.5 c 128,-1,10
 632 965 632 965 683 1031 c 1,11,12
 818 1214 818 1214 875 1299 c 1,13,-1
 968 1441 l 1,14,15
 1004 1498 1004 1498 1022 1531 c 1,16,-1
 1220 1531 l 1,17,18
 1211 1511 1211 1511 1185 1470 c 0,19,20
 1098 1336 1098 1336 1046 1264 c 1,21,-1
 854 1005 l 1,22,-1
 767 898 l 1,23,24
 678 792 678 792 649 781 c 1,25,-1
 649 772 l 1,26,-1
 680 760 l 2,27,28
 749 734 749 734 857 591 c 1,29,-1
 1297 0 l 1,30,-1
 1080 0 l 1,31,-1
 759 454 l 2,32,33
 598 680 598 680 486 687 c 0,34,35
 470 688 470 688 453 688 c 2,0,-1
EndSplineSet
EndChar

StartChar: L
Encoding: 76 76 66
Width: 1026
GlyphClass: 2
Flags: W
LayerCount: 2
Fore
SplineSet
235 1530 m 1,0,-1
 405 1530 l 1,1,-1
 405 147 l 1,2,-1
 1011 147 l 1,3,-1
 1011 0 l 1,4,-1
 235 0 l 1,5,-1
 235 1530 l 1,0,-1
EndSplineSet
EndChar

StartChar: M
Encoding: 77 77 67
Width: 2051
GlyphClass: 2
Flags: W
LayerCount: 2
Fore
SplineSet
362 1530 m 1,0,-1
 623 1530 l 1,1,-1
 971 400 l 1,2,-1
 1030 156 l 1,3,-1
 1087 401 l 1,4,-1
 1423 1530 l 1,5,-1
 1672 1530 l 1,6,-1
 1919 0 l 1,7,-1
 1749 0 l 1,8,-1
 1563 1156 l 1,9,-1
 1535 1426 l 1,10,-1
 1474 1154 l 1,11,-1
 1129 1 l 1,12,-1
 932 1 l 1,13,-1
 572 1160 l 1,14,-1
 501 1426 l 1,15,-1
 467 1158 l 1,16,-1
 298 0 l 1,17,-1
 126 0 l 1,18,-1
 362 1530 l 1,0,-1
EndSplineSet
EndChar

StartChar: N
Encoding: 78 78 68
Width: 1536
GlyphClass: 2
Flags: W
LayerCount: 2
Fore
SplineSet
236 1530 m 1,0,-1
 371 1530 l 1,1,-1
 1075 418 l 1,2,-1
 1166 229 l 1,3,-1
 1144 439 l 1,4,-1
 1144 1530 l 1,5,-1
 1299 1530 l 1,6,-1
 1299 0 l 1,7,-1
 1156 0 l 1,8,-1
 457 1109 l 1,9,-1
 369 1281 l 1,10,-1
 391 1077 l 1,11,-1
 391 0 l 1,12,-1
 236 0 l 1,13,-1
 236 1530 l 1,0,-1
EndSplineSet
EndChar

StartChar: O
Encoding: 79 79 69
Width: 1534
GlyphClass: 2
Flags: W
LayerCount: 2
Fore
SplineSet
739 -20 m 2,0,1
 383 -20 383 -20 269 204 c 0,2,3
 202 334 202 334 190 551 c 0,4,5
 185 653 185 653 185 773 c 128,-1,6
 185 893 185 893 192 1000.5 c 128,-1,7
 199 1108 199 1108 219.5 1195 c 128,-1,8
 240 1282 240 1282 277.5 1348.5 c 128,-1,9
 315 1415 315 1415 376 1460 c 1,10,11
 502 1550 502 1550 739 1550 c 2,12,-1
 801 1550 l 2,13,14
 1172 1550 1172 1550 1276 1350 c 0,15,16
 1341 1225 1341 1225 1349 1002 c 0,17,18
 1353 893 1353 893 1353 771.5 c 128,-1,19
 1353 650 1353 650 1347 547.5 c 128,-1,20
 1341 445 1341 445 1322 358 c 128,-1,21
 1303 271 1303 271 1266.5 201 c 128,-1,22
 1230 131 1230 131 1168 82 c 0,23,24
 1040 -20 1040 -20 801 -20 c 2,25,-1
 739 -20 l 2,0,1
799 124 m 2,26,27
 909 124 909 124 981.5 148 c 128,-1,28
 1054 172 1054 172 1096 232 c 0,29,30
 1174 343 1174 343 1174 658 c 2,31,-1
 1174 766 l 2,32,33
 1174 917 1174 917 1166 1035 c 128,-1,34
 1158 1153 1158 1153 1123 1234 c 0,35,36
 1051 1402 1051 1402 811 1402 c 2,37,-1
 727 1402 l 2,38,39
 483 1402 483 1402 415 1245 c 0,40,41
 372 1145 372 1145 368 1009 c 128,-1,42
 364 873 364 873 364 766 c 2,43,-1
 364 658 l 2,44,45
 364 363 364 363 452 242 c 0,46,47
 537 124 537 124 739 124 c 2,48,-1
 799 124 l 2,26,27
EndSplineSet
EndChar

StartChar: P
Encoding: 80 80 70
Width: 1364
GlyphClass: 2
Flags: W
LayerCount: 2
Fore
SplineSet
833 480 m 0,0,1
 792 478 792 478 689.5 478 c 128,-1,2
 587 478 587 478 406 505 c 1,3,-1
 406 0 l 1,4,-1
 236 0 l 1,5,-1
 236 1524 l 1,6,7
 527 1551 527 1551 815 1551 c 0,8,9
 1057 1551 1057 1551 1154 1442 c 0,10,11
 1236 1350 1236 1350 1236 1138 c 2,12,-1
 1236 1020 l 2,13,14
 1236 856 1236 856 1200 740 c 0,15,16
 1123 498 1123 498 833 480 c 0,0,1
822 1407 m 0,17,18
 548 1407 548 1407 406 1396 c 1,19,-1
 406 646 l 1,20,21
 581 623 581 623 717.5 623 c 128,-1,22
 854 623 854 623 913.5 642.5 c 128,-1,23
 973 662 973 662 1006 708 c 0,24,25
 1062 786 1062 786 1062 1018 c 2,26,-1
 1062 1142 l 2,27,28
 1062 1285 1062 1285 1006 1346 c 1,29,30
 952 1407 952 1407 822 1407 c 0,17,18
EndSplineSet
EndChar

StartChar: Q
Encoding: 81 81 71
Width: 1534
GlyphClass: 2
Flags: W
LayerCount: 2
Fore
SplineSet
822 -19 m 1,0,-1
 801 -20 l 1,1,-1
 739 -20 l 2,2,3
 383 -20 383 -20 269 204 c 0,4,5
 202 334 202 334 190 551 c 0,6,7
 185 653 185 653 185 773 c 128,-1,8
 185 893 185 893 192 1000.5 c 128,-1,9
 199 1108 199 1108 219.5 1195 c 128,-1,10
 240 1282 240 1282 277.5 1348.5 c 128,-1,11
 315 1415 315 1415 376 1460 c 1,12,13
 502 1550 502 1550 739 1550 c 2,14,-1
 801 1550 l 2,15,16
 1172 1550 1172 1550 1276 1350 c 0,17,18
 1341 1225 1341 1225 1349 1002 c 0,19,20
 1353 893 1353 893 1353 752.5 c 128,-1,21
 1353 612 1353 612 1341.5 482 c 128,-1,22
 1330 352 1330 352 1290 251 c 0,23,24
 1204 37 1204 37 958 -7 c 1,25,26
 1077 -151 1077 -151 1291 -313 c 1,27,-1
 1164 -447 l 1,28,29
 919 -240 919 -240 822 -19 c 1,0,-1
799 124 m 2,30,31
 909 124 909 124 981.5 148 c 128,-1,32
 1054 172 1054 172 1096 232 c 0,33,34
 1174 343 1174 343 1174 658 c 2,35,-1
 1174 766 l 2,36,37
 1174 917 1174 917 1166 1035 c 128,-1,38
 1158 1153 1158 1153 1123 1234 c 0,39,40
 1051 1402 1051 1402 811 1402 c 2,41,-1
 727 1402 l 2,42,43
 483 1402 483 1402 415 1245 c 0,44,45
 372 1145 372 1145 368 1009 c 128,-1,46
 364 873 364 873 364 766 c 2,47,-1
 364 658 l 2,48,49
 364 363 364 363 452 242 c 0,50,51
 537 124 537 124 739 124 c 2,52,-1
 799 124 l 2,30,31
EndSplineSet
EndChar

StartChar: R
Encoding: 82 82 72
Width: 1366
GlyphClass: 2
Flags: W
LayerCount: 2
Fore
SplineSet
236 1525 m 1,0,1
 561 1550 561 1550 782 1550 c 2,2,-1
 802 1550 l 2,3,4
 1043 1550 1043 1550 1140 1442 c 1,5,6
 1221 1349 1221 1349 1221 1138 c 0,7,8
 1221 868 1221 868 1144 736 c 0,9,10
 1065 602 1065 602 882 568 c 1,11,12
 916 526 916 526 949 480 c 2,13,-1
 1008 395 l 1,14,-1
 1271 0 l 1,15,-1
 1071 0 l 1,16,-1
 841 362 l 1,17,18
 745 508 745 508 699 555 c 1,19,-1
 688 555 l 1,20,21
 617 556 617 556 551 558 c 2,22,-1
 406 564 l 1,23,-1
 406 0 l 1,24,-1
 236 0 l 1,25,-1
 236 1525 l 1,0,1
406 699 m 1,26,27
 511 694 511 694 736 694 c 0,28,29
 921 694 921 694 988 798 c 1,30,31
 1045 889 1045 889 1045 1116 c 0,32,33
 1045 1307 1045 1307 960 1366 c 0,34,35
 910 1401 910 1401 850.5 1405 c 128,-1,36
 791 1409 791 1409 746.5 1409 c 128,-1,37
 702 1409 702 1409 660.5 1408.5 c 128,-1,38
 619 1408 619 1408 578 1407 c 128,-1,39
 537 1406 537 1406 495 1404 c 2,40,-1
 406 1398 l 1,41,-1
 406 699 l 1,26,27
EndSplineSet
EndChar

StartChar: S
Encoding: 83 83 73
Width: 1194
GlyphClass: 2
Flags: W
LayerCount: 2
Fore
SplineSet
151 241 m 1,0,1
 378 121 378 121 595 121 c 0,2,3
 847 121 847 121 890 282 c 0,4,5
 904 335 904 335 904 404 c 2,6,-1
 904 443 l 2,7,8
 904 513 904 513 894 556 c 128,-1,9
 884 599 884 599 852 626 c 0,10,11
 800 671 800 671 606 701 c 0,12,13
 433 728 433 728 367 752 c 128,-1,14
 301 776 301 776 258.5 804.5 c 128,-1,15
 216 833 216 833 186 876 c 0,16,17
 124 966 124 966 124 1125 c 2,18,-1
 124 1135 l 2,19,20
 124 1465 124 1465 398 1530 c 0,21,22
 485 1550 485 1550 595 1550 c 2,23,-1
 608 1550 l 2,24,25
 865 1550 865 1550 1028 1476 c 1,26,-1
 976 1323 l 1,27,28
 779 1408 779 1408 613 1408 c 2,29,-1
 604 1408 l 2,30,31
 421 1408 421 1408 352 1339 c 0,32,33
 294 1281 294 1281 294 1138 c 2,34,-1
 294 1134 l 2,35,36
 294 971 294 971 384 920 c 1,37,38
 445 887 445 887 602.5 862 c 128,-1,39
 760 837 760 837 837 819.5 c 128,-1,40
 914 802 914 802 968 762 c 0,41,42
 1080 678 1080 678 1080 443 c 2,43,-1
 1080 430 l 2,44,45
 1080 71 1080 71 791 2 c 0,46,47
 702 -20 702 -20 623 -20 c 128,-1,48
 544 -20 544 -20 479.5 -14.5 c 128,-1,49
 415 -9 415 -9 348 5 c 0,50,51
 191 37 191 37 85 101 c 1,52,-1
 151 241 l 1,0,1
EndSplineSet
EndChar

StartChar: T
Encoding: 84 84 74
Width: 1024
GlyphClass: 2
Flags: W
LayerCount: 2
Fore
SplineSet
420 1382 m 1,0,-1
 12 1382 l 1,1,-1
 12 1530 l 1,2,-1
 1012 1530 l 1,3,-1
 1012 1382 l 1,4,-1
 590 1382 l 1,5,-1
 590 0 l 1,6,-1
 420 0 l 1,7,-1
 420 1382 l 1,0,-1
EndSplineSet
EndChar

StartChar: U
Encoding: 85 85 75
Width: 1534
GlyphClass: 2
Flags: W
LayerCount: 2
Fore
SplineSet
214 1530 m 1,0,-1
 382 1530 l 1,1,-1
 382 712 l 2,2,3
 382 470 382 470 403 382 c 128,-1,4
 424 294 424 294 451.5 249.5 c 128,-1,5
 479 205 479 205 523 178 c 0,6,7
 606 127 606 127 751.5 127 c 128,-1,8
 897 127 897 127 970.5 152 c 128,-1,9
 1044 177 1044 177 1084.5 242 c 128,-1,10
 1125 307 1125 307 1139 421 c 128,-1,11
 1153 535 1153 535 1153 712 c 2,12,-1
 1153 1530 l 1,13,-1
 1321 1530 l 1,14,-1
 1321 718 l 2,15,16
 1321 461 1321 461 1302 363.5 c 128,-1,17
 1283 266 1283 266 1249.5 198 c 128,-1,18
 1216 130 1216 130 1155 82 c 0,19,20
 1027 -20 1027 -20 773 -20 c 0,21,22
 395 -20 395 -20 285 196 c 0,23,24
 224 317 224 317 217 516 c 0,25,26
 214 607 214 607 214 705 c 2,27,-1
 214 1530 l 1,0,-1
EndSplineSet
EndChar

StartChar: V
Encoding: 86 86 76
Width: 1366
GlyphClass: 2
Flags: W
LayerCount: 2
Fore
SplineSet
66 1530 m 1,0,-1
 250 1530 l 1,1,-1
 636 365 l 1,2,-1
 688 160 l 1,3,-1
 745 365 l 1,4,-1
 1122 1530 l 1,5,-1
 1304 1530 l 1,6,-1
 789 -1 l 1,7,-1
 592 -1 l 1,8,-1
 66 1530 l 1,0,-1
EndSplineSet
EndChar

StartChar: W
Encoding: 87 87 77
Width: 2044
GlyphClass: 2
Flags: W
LayerCount: 2
Fore
SplineSet
34 1530 m 1,0,-1
 218 1530 l 1,1,-1
 514 374 l 1,2,-1
 566 130 l 1,3,-1
 624 374 l 1,4,-1
 932 1530 l 1,5,-1
 1131 1530 l 1,6,-1
 1498 122 l 1,7,-1
 1551 378 l 1,8,-1
 1833 1530 l 1,9,-1
 2013 1530 l 1,10,-1
 1621 0 l 1,11,-1
 1367 0 l 1,12,-1
 1074 1094 l 1,13,-1
 1029 1352 l 1,14,-1
 982 1094 l 1,15,-1
 680 0 l 1,16,-1
 446 0 l 1,17,-1
 34 1530 l 1,0,-1
EndSplineSet
EndChar

StartChar: X
Encoding: 88 88 78
Width: 1360
GlyphClass: 2
Flags: W
LayerCount: 2
Fore
SplineSet
555 782 m 1,0,-1
 68 1530 l 1,1,-1
 262 1530 l 1,2,-1
 658 897 l 1,3,-1
 1045 1530 l 1,4,-1
 1240 1530 l 1,5,-1
 763 786 l 1,6,-1
 1293 0 l 1,7,-1
 1090 0 l 1,8,-1
 661 661 l 1,9,-1
 259 0 l 1,10,-1
 68 0 l 1,11,-1
 555 782 l 1,0,-1
EndSplineSet
EndChar

StartChar: Y
Encoding: 89 89 79
Width: 1194
GlyphClass: 2
Flags: W
LayerCount: 2
Fore
SplineSet
512 565 m 1,0,-1
 13 1530 l 1,1,-1
 199 1530 l 1,2,-1
 526 873 l 1,3,-1
 600 704 l 1,4,-1
 673 876 l 1,5,-1
 993 1530 l 1,6,-1
 1181 1530 l 1,7,-1
 682 565 l 1,8,-1
 681 0 l 1,9,-1
 513 0 l 1,10,-1
 512 565 l 1,0,-1
EndSplineSet
EndChar

StartChar: Z
Encoding: 90 90 80
Width: 1194
GlyphClass: 2
Flags: W
LayerCount: 2
Fore
SplineSet
106 85 m 1,0,-1
 871 1387 l 1,1,-1
 158 1387 l 1,2,-1
 158 1530 l 1,3,-1
 1080 1530 l 1,4,-1
 1080 1442 l 1,5,-1
 318 141 l 1,6,-1
 1074 141 l 1,7,-1
 1074 0 l 1,8,-1
 106 0 l 1,9,-1
 106 85 l 1,0,-1
EndSplineSet
EndChar

StartChar: bracketleft
Encoding: 91 91 81
Width: 851
GlyphClass: 2
Flags: W
LayerCount: 2
Fore
SplineSet
380 1795 m 1,0,-1
 380 -158 l 1,1,-1
 627 -159 l 1,2,-1
 627 -272 l 1,3,-1
 230 -272 l 1,4,-1
 230 1909 l 1,5,-1
 627 1909 l 1,6,-1
 627 1795 l 1,7,-1
 380 1795 l 1,0,-1
EndSplineSet
EndChar

StartChar: backslash
Encoding: 92 92 82
Width: 854
GlyphClass: 2
Flags: W
LayerCount: 2
Fore
SplineSet
686 -73 m 1,0,-1
 835 -73 l 1,1,-1
 152 1867 l 1,2,-1
 7 1867 l 1,3,-1
 686 -73 l 1,0,-1
EndSplineSet
EndChar

StartChar: bracketright
Encoding: 93 93 83
Width: 852
GlyphClass: 2
Flags: W
LayerCount: 2
Fore
SplineSet
463 -156 m 1,0,-1
 463 1797 l 1,1,-1
 216 1798 l 1,2,-1
 216 1911 l 1,3,-1
 613 1911 l 1,4,-1
 613 -270 l 1,5,-1
 216 -270 l 1,6,-1
 216 -156 l 1,7,-1
 463 -156 l 1,0,-1
EndSplineSet
EndChar

StartChar: asciicircum
Encoding: 94 94 84
Width: 1229
GlyphClass: 2
Flags: W
LayerCount: 2
Fore
SplineSet
150 816 m 1,0,-1
 538 1569 l 1,1,-1
 676 1569 l 1,2,-1
 1079 816 l 1,3,-1
 944 778 l 1,4,-1
 605 1411 l 1,5,-1
 281 778 l 1,6,-1
 150 816 l 1,0,-1
EndSplineSet
EndChar

StartChar: underscore
Encoding: 95 95 85
Width: 854
GlyphClass: 2
Flags: W
LayerCount: 2
Fore
SplineSet
861 -185 m 1,0,-1
 861 -303 l 1,1,-1
 -7 -303 l 1,2,-1
 -7 -185 l 1,3,-1
 861 -185 l 1,0,-1
EndSplineSet
EndChar

StartChar: grave
Encoding: 96 96 86
Width: 510
GlyphClass: 2
Flags: W
LayerCount: 2
Fore
SplineSet
9 1714 m 1,0,-1
 134 1839 l 1,1,-1
 459 1486 l 1,2,-1
 376 1399 l 1,3,-1
 9 1714 l 1,0,-1
EndSplineSet
EndChar

StartChar: a
Encoding: 97 97 87
Width: 1364
GlyphClass: 2
Flags: W
LayerCount: 2
Fore
SplineSet
1134 422 m 2,0,1
 1134 223 1134 223 1153 8 c 1,2,-1
 1005 -4 l 1,3,-1
 980 135 l 1,4,5
 853 33 853 33 644 -7 c 0,6,7
 576 -20 576 -20 523 -20 c 128,-1,8
 470 -20 470 -20 429.5 -15 c 128,-1,9
 389 -10 389 -10 351.5 4.5 c 128,-1,10
 314 19 314 19 282 45 c 128,-1,11
 250 71 250 71 226 114 c 0,12,13
 175 205 175 205 175 332.5 c 128,-1,14
 175 460 175 460 193.5 530.5 c 128,-1,15
 212 601 212 601 255 648 c 0,16,17
 340 741 340 741 541 741 c 128,-1,18
 742 741 742 741 970 665 c 1,19,-1
 970 795 l 2,20,21
 970 1012 970 1012 791 1052 c 0,22,23
 733 1065 733 1065 658 1065 c 0,24,25
 487 1065 487 1065 303 997 c 1,26,-1
 266 1141 l 1,27,28
 317 1175 317 1175 526 1202 c 0,29,30
 592 1210 592 1210 684.5 1210 c 128,-1,31
 777 1210 777 1210 866 1188 c 128,-1,32
 955 1166 955 1166 1014 1116 c 1,33,34
 1134 1017 1134 1017 1134 795 c 2,35,-1
 1134 422 l 2,0,1
966 540 m 1,36,37
 732 599 732 599 534 599 c 0,38,39
 412 599 412 599 372 529 c 0,40,41
 345 480 345 480 345 384 c 128,-1,42
 345 288 345 288 355.5 245 c 128,-1,43
 366 202 366 202 390 174 c 0,44,45
 437 121 437 121 545 121 c 0,46,47
 714 121 714 121 880 208 c 0,48,49
 931 234 931 234 972 266 c 1,50,51
 966 374 966 374 966 540 c 1,36,37
EndSplineSet
EndChar

StartChar: b
Encoding: 98 98 88
Width: 1364
GlyphClass: 2
Flags: W
LayerCount: 2
Fore
SplineSet
379 111 m 1,0,-1
 358 0 l 1,1,-1
 217 0 l 1,2,-1
 217 1702 l 1,3,-1
 383 1718 l 1,4,-1
 383 1076 l 1,5,6
 590 1210 590 1210 783 1210 c 0,7,8
 1051 1210 1051 1210 1123 1045 c 0,9,10
 1168 941 1168 941 1174 753 c 0,11,12
 1176 662 1176 662 1176 553 c 2,13,-1
 1176 473 l 2,14,15
 1176 336 1176 336 1158.5 267 c 128,-1,16
 1141 198 1141 198 1114 148.5 c 128,-1,17
 1087 99 1087 99 1040 62 c 0,18,19
 938 -20 938 -20 748 -20 c 128,-1,20
 558 -20 558 -20 379 111 c 1,0,-1
383 242 m 1,21,22
 595 127 595 127 740 127 c 2,23,-1
 752 127 l 2,24,25
 923 127 923 127 972 222 c 1,26,27
 998 270 998 270 1004 347 c 128,-1,28
 1010 424 1010 424 1010 532 c 2,29,-1
 1010 676 l 2,30,31
 1010 899 1010 899 959 976 c 0,32,33
 909 1053 909 1053 769 1053 c 2,34,-1
 744 1053 l 2,35,36
 619 1053 619 1053 454 979 c 0,37,38
 411 960 411 960 383 944 c 1,39,-1
 383 242 l 1,21,22
EndSplineSet
EndChar

StartChar: c
Encoding: 99 99 89
Width: 1196
GlyphClass: 2
Flags: W
LayerCount: 2
Fore
SplineSet
1050 53 m 1,0,1
 911 -20 911 -20 669 -20 c 0,2,3
 526 -20 526 -20 459 2 c 0,4,5
 288 60 288 60 235 199 c 0,6,7
 198 296 198 296 192 408 c 128,-1,8
 186 520 186 520 186 597 c 128,-1,9
 186 674 186 674 190 747.5 c 128,-1,10
 194 821 194 821 209.5 889 c 128,-1,11
 225 957 225 957 257 1015.5 c 128,-1,12
 289 1074 289 1074 344 1118 c 1,13,14
 463 1210 463 1210 686 1210 c 0,15,16
 850 1210 850 1210 988 1162 c 0,17,18
 1025 1150 1025 1150 1044 1139 c 1,19,-1
 994 991 l 1,20,21
 802 1065 802 1065 679.5 1065 c 128,-1,22
 557 1065 557 1065 499.5 1037 c 128,-1,23
 442 1009 442 1009 410 952 c 0,24,25
 356 854 356 854 356 592 c 0,26,27
 356 487 356 487 363 400.5 c 128,-1,28
 370 314 370 314 398 252 c 0,29,30
 457 124 457 124 641.5 124 c 128,-1,31
 826 124 826 124 1000 188 c 1,32,-1
 1050 53 l 1,0,1
EndSplineSet
EndChar

StartChar: d
Encoding: 100 100 90
Width: 1364
GlyphClass: 2
Flags: W
LayerCount: 2
Fore
SplineSet
996 133 m 1,0,1
 785 -20 785 -20 567 -20 c 0,2,3
 326 -20 326 -20 246 157 c 0,4,5
 200 257 200 257 194.5 368.5 c 128,-1,6
 189 480 189 480 189 564.5 c 128,-1,7
 189 649 189 649 190.5 735 c 128,-1,8
 192 821 192 821 203 894 c 128,-1,9
 214 967 214 967 237.5 1025.5 c 128,-1,10
 261 1084 261 1084 305 1125 c 0,11,12
 396 1210 396 1210 605.5 1210 c 128,-1,13
 815 1210 815 1210 984 1137 c 1,14,-1
 984 1702 l 1,15,-1
 1150 1718 l 1,16,-1
 1150 547 l 2,17,18
 1150 202 1150 202 1169 8 c 1,19,-1
 1020 -4 l 1,20,-1
 996 133 l 1,0,1
984 1000 m 1,21,22
 804 1060 804 1060 636 1060 c 0,23,24
 514 1060 514 1060 475 1040 c 128,-1,25
 436 1020 436 1020 415.5 988 c 128,-1,26
 395 956 395 956 382 900 c 0,27,28
 359 795 359 795 359 554 c 2,29,-1
 359 532 l 2,30,31
 359 307 359 307 408 221 c 0,32,33
 461 130 461 130 605 130 c 2,34,-1
 620 130 l 2,35,36
 758 130 758 130 914 218 c 0,37,38
 957 242 957 242 988 266 c 1,39,-1
 988 268 l 1,40,41
 983 361 983 361 983 555 c 2,42,-1
 984 1000 l 1,21,22
EndSplineSet
EndChar

StartChar: e
Encoding: 101 101 91
Width: 1364
GlyphClass: 2
Flags: W
LayerCount: 2
Fore
SplineSet
1155 63 m 1,0,1
 948 -20 948 -20 698 -20 c 0,2,3
 553 -20 553 -20 452 10 c 1,4,5
 291 56 291 56 238 200 c 0,6,7
 189 335 189 335 189 600 c 2,8,-1
 189 651 l 2,9,10
 189 968 189 968 321 1096 c 1,11,12
 440 1210 440 1210 718 1210 c 0,13,14
 989 1210 989 1210 1088 1076 c 0,15,16
 1136 1011 1136 1011 1151.5 918.5 c 128,-1,17
 1167 826 1167 826 1167 742 c 0,18,19
 1167 611 1167 611 1161 539 c 1,20,21
 1020 533 1020 533 908 533 c 2,22,23
 908 533 908 533 747 533 c 0,24,25
 495 533 495 533 359 555 c 1,26,27
 359 325 359 325 417 234 c 0,28,29
 488 123 488 123 700 123 c 128,-1,30
 912 123 912 123 1106 206 c 1,31,-1
 1155 63 l 1,0,1
998 672 m 1,32,-1
 998 768 l 2,33,34
 998 925 998 925 937 992 c 0,35,36
 869 1067 869 1067 702 1067 c 0,37,38
 502 1067 502 1067 429 980 c 0,39,40
 359 897 359 897 359 672 c 1,41,-1
 998 672 l 1,32,-1
EndSplineSet
EndChar

StartChar: f
Encoding: 102 102 92
Width: 854
GlyphClass: 2
Flags: W
LayerCount: 2
Fore
SplineSet
467 1542.5 m 128,-1,1
 427 1509 427 1509 427 1410.5 c 128,-1,2
 427 1312 427 1312 464 1190 c 1,3,-1
 747 1190 l 1,4,-1
 747 1051 l 1,5,-1
 462 1051 l 1,6,-1
 462 0 l 1,7,-1
 301 0 l 1,8,-1
 301 1051 l 1,9,-1
 102 1051 l 1,10,-1
 102 1174 l 1,11,-1
 299 1190 l 1,12,13
 286 1217 286 1217 274 1307 c 128,-1,14
 262 1397 262 1397 262 1436 c 0,15,16
 262 1720 262 1720 594 1720 c 0,17,18
 714 1720 714 1720 821 1694 c 1,19,-1
 791 1545 l 1,20,21
 661 1576 661 1576 584 1576 c 128,-1,0
 507 1576 507 1576 467 1542.5 c 128,-1,1
EndSplineSet
EndChar

StartChar: g
Encoding: 103 103 93
Width: 1364
GlyphClass: 2
Flags: W
LayerCount: 2
Fore
SplineSet
989 1108 m 1,0,-1
 1005 1190 l 1,1,-1
 1149 1190 l 1,2,-1
 1150 22 l 2,3,4
 1150 -235 1150 -235 1049 -352 c 0,5,6
 941 -476 941 -476 684 -476 c 0,7,8
 484 -476 484 -476 329 -422 c 0,9,10
 290 -409 290 -409 269 -398 c 1,11,-1
 321 -257 l 1,12,13
 339 -263 339 -263 374 -276.5 c 128,-1,14
 409 -290 409 -290 458 -303 c 0,15,16
 582 -336 582 -336 685.5 -336 c 128,-1,17
 789 -336 789 -336 845 -315 c 128,-1,18
 901 -294 901 -294 932 -250 c 0,19,20
 984 -176 984 -176 984 19 c 2,21,-1
 984 114 l 1,22,23
 793 -20 793 -20 580 -20 c 0,24,25
 331 -20 331 -20 248 157 c 1,26,27
 200 257 200 257 192 410 c 0,28,29
 189 480 189 480 189 564.5 c 128,-1,30
 189 649 189 649 190.5 735 c 128,-1,31
 192 821 192 821 203 894 c 128,-1,32
 214 967 214 967 237.5 1025.5 c 128,-1,33
 261 1084 261 1084 305 1125 c 0,34,35
 396 1210 396 1210 585.5 1210 c 128,-1,36
 775 1210 775 1210 989 1108 c 1,0,-1
984 970 m 1,37,38
 804 1060 804 1060 636 1060 c 0,39,40
 514 1060 514 1060 475 1040 c 128,-1,41
 436 1020 436 1020 415.5 988 c 128,-1,42
 395 956 395 956 382 900 c 0,43,44
 359 795 359 795 359 554 c 2,45,-1
 359 532 l 2,46,47
 359 310 359 310 414 221 c 1,48,49
 469 130 469 130 615 130 c 2,50,-1
 630 130 l 2,51,52
 768 130 768 130 912 206 c 0,53,54
 953 227 953 227 984 249 c 1,55,-1
 984 970 l 1,37,38
EndSplineSet
EndChar

StartChar: h
Encoding: 104 104 94
Width: 1364
GlyphClass: 2
Flags: W
LayerCount: 2
Fore
SplineSet
785 1055 m 0,0,1
 586 1055 586 1055 390 940 c 1,2,-1
 390 0 l 1,3,-1
 224 0 l 1,4,-1
 224 1702 l 1,5,-1
 386 1718 l 1,6,-1
 386 1067 l 1,7,8
 489 1155 489 1155 654 1194 c 0,9,10
 720 1210 720 1210 810 1210 c 128,-1,11
 900 1210 900 1210 968 1189.5 c 128,-1,12
 1036 1169 1036 1169 1076 1124 c 0,13,14
 1148 1043 1148 1043 1148 829 c 2,15,-1
 1148 0 l 1,16,-1
 980 0 l 1,17,-1
 980 799 l 2,18,19
 980 943 980 943 952 984.5 c 128,-1,20
 924 1026 924 1026 885.5 1040.5 c 128,-1,21
 847 1055 847 1055 785 1055 c 0,0,1
EndSplineSet
EndChar

StartChar: i
Encoding: 105 105 95
Width: 683
GlyphClass: 2
Flags: W
LayerCount: 2
Fore
SplineSet
342 1475 m 0,0,1
 275 1475 275 1475 256 1494 c 0,2,3
 226 1525 226 1525 226 1579.5 c 128,-1,4
 226 1634 226 1634 232.5 1657.5 c 128,-1,5
 239 1681 239 1681 252 1694 c 0,6,7
 276 1718 276 1718 325.5 1718 c 128,-1,8
 375 1718 375 1718 396.5 1713 c 128,-1,9
 418 1708 418 1708 432 1694 c 0,10,11
 456 1670 456 1670 456 1615.5 c 128,-1,12
 456 1561 456 1561 450.5 1537.5 c 128,-1,13
 445 1514 445 1514 432 1500 c 0,14,15
 407 1475 407 1475 342 1475 c 0,0,1
261 1190 m 1,16,-1
 425 1190 l 1,17,-1
 425 0 l 1,18,-1
 263 0 l 1,19,-1
 261 1190 l 1,16,-1
EndSplineSet
EndChar

StartChar: j
Encoding: 106 106 96
Width: 683
GlyphClass: 2
Flags: W
LayerCount: 2
Fore
SplineSet
339 1475 m 0,0,1
 272 1475 272 1475 253 1494 c 0,2,3
 223 1525 223 1525 223 1579.5 c 128,-1,4
 223 1634 223 1634 229.5 1657.5 c 128,-1,5
 236 1681 236 1681 250 1694 c 1,6,7
 273 1718 273 1718 322.5 1718 c 128,-1,8
 372 1718 372 1718 393.5 1713 c 128,-1,9
 415 1708 415 1708 428 1694 c 1,10,11
 453 1670 453 1670 453 1615.5 c 128,-1,12
 453 1561 453 1561 447.5 1537.5 c 128,-1,13
 442 1514 442 1514 428 1500 c 0,14,15
 404 1475 404 1475 339 1475 c 0,0,1
53 -317 m 1,16,17
 144 -340 144 -340 185.5 -335.5 c 128,-1,18
 227 -331 227 -331 243.5 -302 c 128,-1,19
 260 -273 260 -273 260 -208 c 2,20,-1
 260 1190 l 1,21,-1
 421 1190 l 1,22,-1
 421 -193 l 2,23,24
 421 -326 421 -326 378 -392 c 0,25,26
 325 -475 325 -475 194 -475 c 0,27,28
 71 -475 71 -475 8 -440 c 1,29,-1
 53 -317 l 1,16,17
EndSplineSet
EndChar

StartChar: k
Encoding: 107 107 97
Width: 1192
GlyphClass: 2
Flags: W
LayerCount: 2
Fore
SplineSet
220 1698 m 1,0,-1
 386 1716 l 1,1,-1
 386 684 l 1,2,3
 426 676 426 676 482.5 725 c 128,-1,4
 539 774 539 774 583 818.5 c 128,-1,5
 627 863 627 863 674 916 c 0,6,7
 843 1111 843 1111 896 1190 c 1,8,-1
 1094 1190 l 1,9,10
 1072 1140 1072 1140 993 1048 c 1,11,-1
 859 897 l 1,12,13
 750 780 750 780 684.5 724 c 128,-1,14
 619 668 619 668 598 660 c 1,15,-1
 598 650 l 1,16,-1
 628 635 l 1,17,18
 693 604 693 604 798 470 c 1,19,-1
 1171 0 l 1,20,-1
 961 0 l 1,21,-1
 707 333 l 2,22,23
 531 563 531 563 438 571 c 2,24,-1
 416 573 l 2,25,26
 406 574 406 574 398 573.5 c 128,-1,27
 390 573 390 573 386 573 c 1,28,-1
 386 0 l 1,29,-1
 220 0 l 1,30,-1
 220 1698 l 1,0,-1
EndSplineSet
EndChar

StartChar: l
Encoding: 108 108 98
Width: 683
GlyphClass: 2
Flags: W
LayerCount: 2
Fore
SplineSet
259 1700 m 1,0,-1
 424 1714 l 1,1,-1
 424 0 l 1,2,-1
 261 0 l 1,3,-1
 259 1700 l 1,0,-1
EndSplineSet
EndChar

StartChar: m
Encoding: 109 109 99
Width: 2047
GlyphClass: 2
Flags: W
LayerCount: 2
Fore
SplineSet
747 1054 m 0,0,1
 584 1054 584 1054 391 939 c 1,2,-1
 391 0 l 1,3,-1
 225 0 l 1,4,-1
 225 1190 l 1,5,-1
 371 1190 l 1,6,-1
 387 1067 l 1,7,8
 562 1210 562 1210 779 1210 c 0,9,10
 903 1210 903 1210 974.5 1174.5 c 128,-1,11
 1046 1139 1046 1139 1078 1058 c 1,12,13
 1299 1210 1299 1210 1498 1210 c 0,14,15
 1686 1210 1686 1210 1759 1124 c 0,16,17
 1829 1041 1829 1041 1829 829 c 2,18,-1
 1829 0 l 1,19,-1
 1661 0 l 1,20,-1
 1661 798 l 2,21,22
 1661 942 1661 942 1633 983.5 c 128,-1,23
 1605 1025 1605 1025 1566.5 1039.5 c 128,-1,24
 1528 1054 1528 1054 1476.5 1054 c 128,-1,25
 1425 1054 1425 1054 1379.5 1044.5 c 128,-1,26
 1334 1035 1334 1035 1287 1019 c 0,27,28
 1192 986 1192 986 1105 935 c 1,29,30
 1110 875 1110 875 1110 829 c 2,31,-1
 1110 0 l 1,32,-1
 942 0 l 1,33,-1
 942 798 l 2,34,35
 942 942 942 942 914 983.5 c 128,-1,36
 886 1025 886 1025 847.5 1039.5 c 128,-1,37
 809 1054 809 1054 747 1054 c 0,0,1
EndSplineSet
EndChar

StartChar: n
Encoding: 110 110 100
Width: 1364
GlyphClass: 2
Flags: W
LayerCount: 2
Fore
SplineSet
786 1054 m 0,0,1
 591 1054 591 1054 389 939 c 1,2,-1
 389 0 l 1,3,-1
 223 0 l 1,4,-1
 223 1190 l 1,5,-1
 369 1190 l 1,6,-1
 385 1067 l 1,7,8
 494 1156 494 1156 656 1194 c 0,9,10
 722 1210 722 1210 811 1210 c 128,-1,11
 900 1210 900 1210 968 1189.5 c 128,-1,12
 1036 1169 1036 1169 1076 1124 c 0,13,14
 1149 1043 1149 1043 1149 829 c 2,15,-1
 1149 0 l 1,16,-1
 981 0 l 1,17,-1
 981 798 l 2,18,19
 981 942 981 942 953 983.5 c 128,-1,20
 925 1025 925 1025 886.5 1039.5 c 128,-1,21
 848 1054 848 1054 786 1054 c 0,0,1
EndSplineSet
EndChar

StartChar: o
Encoding: 111 111 101
Width: 1363
GlyphClass: 2
Flags: W
LayerCount: 2
Fore
SplineSet
188 592 m 0,0,1
 188 819 188 819 211 909 c 128,-1,2
 234 999 234 999 267.5 1051.5 c 128,-1,3
 301 1104 301 1104 358 1139 c 0,4,5
 472 1210 472 1210 695 1210 c 0,6,7
 1017 1210 1017 1210 1109 1051 c 0,8,9
 1164 955 1164 955 1172 780 c 0,10,11
 1175 697 1175 697 1175 597 c 128,-1,12
 1175 497 1175 497 1168.5 410.5 c 128,-1,13
 1162 324 1162 324 1143 255 c 128,-1,14
 1124 186 1124 186 1090 134.5 c 128,-1,15
 1056 83 1056 83 1000 48 c 0,16,17
 890 -20 890 -20 679 -20 c 0,18,19
 363 -20 363 -20 264 136 c 0,20,21
 203 233 203 233 193 408 c 0,22,23
 188 492 188 492 188 592 c 0,0,1
550.5 134.5 m 128,-1,25
 605 121 605 121 699.5 121 c 128,-1,26
 794 121 794 121 858.5 148 c 128,-1,27
 923 175 923 175 955.5 234.5 c 128,-1,28
 988 294 988 294 996.5 389 c 128,-1,29
 1005 484 1005 484 1005 610 c 128,-1,30
 1005 736 1005 736 997.5 820 c 128,-1,31
 990 904 990 904 960 959 c 0,32,33
 900 1067 900 1067 693 1067 c 0,34,35
 474 1067 474 1067 408 959 c 0,36,37
 375 904 375 904 366 819 c 128,-1,38
 357 734 357 734 357 634 c 128,-1,39
 357 534 357 534 359.5 464.5 c 128,-1,40
 362 395 362 395 372.5 339.5 c 128,-1,41
 383 284 383 284 403.5 243 c 128,-1,42
 424 202 424 202 460 175 c 128,-1,24
 496 148 496 148 550.5 134.5 c 128,-1,25
EndSplineSet
EndChar

StartChar: p
Encoding: 112 112 102
Width: 1364
GlyphClass: 2
Flags: W
LayerCount: 2
Fore
SplineSet
383 71 m 1,0,-1
 383 -455 l 1,1,-1
 217 -455 l 1,2,-1
 217 1190 l 1,3,-1
 352 1190 l 1,4,-1
 371 1067 l 1,5,6
 488 1155 488 1155 676 1196 c 0,7,8
 744 1210 744 1210 824 1210 c 128,-1,9
 904 1210 904 1210 965.5 1189 c 128,-1,10
 1027 1168 1027 1168 1067 1130.5 c 128,-1,11
 1107 1093 1107 1093 1129 1041 c 128,-1,12
 1151 989 1151 989 1162 928 c 0,13,14
 1176 844 1176 844 1176 660 c 2,15,-1
 1176 637 l 2,16,17
 1176 403 1176 403 1160 313 c 128,-1,18
 1144 223 1144 223 1118 164.5 c 128,-1,19
 1092 106 1092 106 1046 65 c 0,20,21
 951 -20 951 -20 752 -20 c 128,-1,22
 553 -20 553 -20 383 71 c 1,0,-1
383 208 m 1,23,24
 553 130 553 130 740 130 c 0,25,26
 862 130 862 130 918 175 c 0,27,28
 994 237 994 237 1003 464 c 0,29,30
 1006 539 1006 539 1006 636 c 2,31,-1
 1006 658 l 2,32,33
 1006 888 1006 888 966 966 c 0,34,35
 921 1055 921 1055 780 1055 c 2,36,-1
 765 1055 l 2,37,38
 618 1055 618 1055 460 982 c 0,39,40
 414 961 414 961 383 939 c 1,41,-1
 383 208 l 1,23,24
EndSplineSet
EndChar

StartChar: q
Encoding: 113 113 103
Width: 1364
GlyphClass: 2
Flags: W
LayerCount: 2
Fore
SplineSet
984 114 m 1,0,1
 793 -20 793 -20 580 -20 c 0,2,3
 331 -20 331 -20 248 157 c 1,4,5
 200 257 200 257 192 410 c 0,6,7
 189 480 189 480 189 564.5 c 128,-1,8
 189 649 189 649 190.5 735 c 128,-1,9
 192 821 192 821 203 894 c 128,-1,10
 214 967 214 967 237.5 1025.5 c 128,-1,11
 261 1084 261 1084 305 1125 c 0,12,13
 396 1210 396 1210 585.5 1210 c 128,-1,14
 775 1210 775 1210 989 1108 c 1,15,-1
 1005 1190 l 1,16,-1
 1149 1190 l 1,17,-1
 1150 -455 l 1,18,-1
 984 -455 l 1,19,-1
 984 114 l 1,0,1
984 970 m 1,20,21
 804 1060 804 1060 636 1060 c 0,22,23
 514 1060 514 1060 475 1040 c 128,-1,24
 436 1020 436 1020 415.5 988 c 128,-1,25
 395 956 395 956 382 900 c 0,26,27
 359 795 359 795 359 554 c 2,28,-1
 359 532 l 2,29,30
 359 310 359 310 414 221 c 1,31,32
 469 130 469 130 615 130 c 2,33,-1
 630 130 l 2,34,35
 768 130 768 130 912 206 c 0,36,37
 953 227 953 227 984 249 c 1,38,-1
 984 970 l 1,20,21
EndSplineSet
EndChar

StartChar: r
Encoding: 114 114 104
Width: 854
GlyphClass: 2
Flags: W
LayerCount: 2
Fore
SplineSet
650 1045 m 0,0,1
 522 1045 522 1045 389 917 c 1,2,-1
 389 0 l 1,3,-1
 223 0 l 1,4,-1
 223 1190 l 1,5,-1
 369 1190 l 1,6,-1
 385 1032 l 1,7,8
 432 1105 432 1105 486.5 1146 c 128,-1,9
 541 1187 541 1187 576 1196 c 0,10,11
 626 1210 626 1210 671 1210 c 128,-1,12
 716 1210 716 1210 784 1192 c 1,13,-1
 769 1033 l 1,14,15
 718 1045 718 1045 650 1045 c 0,0,1
EndSplineSet
EndChar

StartChar: s
Encoding: 115 115 105
Width: 1194
GlyphClass: 2
Flags: W
LayerCount: 2
Fore
SplineSet
225 236 m 1,0,1
 431 121 431 121 639 121 c 0,2,3
 812 121 812 121 842 244 c 0,4,5
 852 286 852 286 852 346.5 c 128,-1,6
 852 407 852 407 838 440.5 c 128,-1,7
 824 474 824 474 791 490.5 c 128,-1,8
 758 507 758 507 703.5 515 c 128,-1,9
 649 523 649 523 565 537.5 c 128,-1,10
 481 552 481 552 411 570 c 128,-1,11
 341 588 341 588 292 622 c 0,12,13
 188 695 188 695 192 868 c 1,14,-1
 192 893 l 2,15,16
 192 1075 192 1075 312 1152 c 1,17,18
 428 1228 428 1228 695 1204 c 0,19,20
 877 1187 877 1187 985 1141 c 1,21,-1
 938 990 l 1,22,23
 818 1041 818 1041 650 1064 c 0,24,25
 598 1071 598 1071 552.5 1071 c 128,-1,26
 507 1071 507 1071 470 1064 c 128,-1,27
 433 1057 433 1057 408 1038 c 1,28,29
 360 999 360 999 358 893 c 0,30,31
 355 768 355 768 428 734 c 0,32,33
 498 701 498 701 594 688.5 c 128,-1,34
 690 676 690 676 751 666.5 c 128,-1,35
 812 657 812 657 862 641 c 128,-1,36
 912 625 912 625 948 590 c 0,37,38
 1023 519 1023 519 1021 343 c 0,39,40
 1016 36 1016 36 765 -7 c 0,41,42
 689 -20 689 -20 613 -20 c 128,-1,43
 537 -20 537 -20 473.5 -10.5 c 128,-1,44
 410 -1 410 -1 352 16 c 0,45,46
 242 47 242 47 153 98 c 1,47,-1
 225 236 l 1,0,1
EndSplineSet
EndChar

StartChar: t
Encoding: 116 116 106
Width: 854
GlyphClass: 2
Flags: W
LayerCount: 2
Fore
SplineSet
809 57 m 1,0,1
 646 -20 646 -20 508 -20 c 0,2,3
 258 -20 258 -20 224 194 c 0,4,5
 216 245 216 245 216 342 c 2,6,-1
 216 1051 l 1,7,-1
 72 1051 l 1,8,-1
 72 1174 l 1,9,-1
 216 1190 l 1,10,-1
 242 1462 l 1,11,-1
 381 1462 l 1,12,-1
 381 1190 l 1,13,-1
 728 1190 l 1,14,-1
 728 1051 l 1,15,-1
 381 1051 l 1,16,-1
 381 345 l 2,17,18
 381 222 381 222 399 188 c 0,19,20
 432 126 432 126 531 126 c 128,-1,21
 630 126 630 126 752 187 c 1,22,-1
 809 57 l 1,0,1
EndSplineSet
EndChar

StartChar: u
Encoding: 117 117 107
Width: 1364
GlyphClass: 2
Flags: W
LayerCount: 2
Fore
SplineSet
1123 524 m 2,0,1
 1123 194 1123 194 1142 8 c 1,2,-1
 993 -4 l 1,3,-1
 969 137 l 1,4,5
 852 40 852 40 696 -3 c 0,6,7
 634 -20 634 -20 548.5 -20 c 128,-1,8
 463 -20 463 -20 395.5 0.5 c 128,-1,9
 328 21 328 21 288 66 c 0,10,11
 215 147 215 147 215 361 c 2,12,-1
 215 1190 l 1,13,-1
 383 1190 l 1,14,-1
 383 388 l 2,15,16
 383 244 383 244 411 202.5 c 128,-1,17
 439 161 439 161 477.5 146.5 c 128,-1,18
 516 132 516 132 569 132 c 128,-1,19
 622 132 622 132 671.5 140.5 c 128,-1,20
 721 149 721 149 771 165 c 0,21,22
 876 199 876 199 961 258 c 1,23,-1
 961 259 l 1,24,25
 957 335 957 335 957 555 c 2,26,-1
 957 1190 l 1,27,-1
 1123 1190 l 1,28,-1
 1123 524 l 2,0,1
EndSplineSet
EndChar

StartChar: v
Encoding: 118 118 108
Width: 1193
GlyphClass: 2
Flags: W
LayerCount: 2
Fore
SplineSet
82 1190 m 1,0,-1
 261 1190 l 1,1,-1
 573 219 l 1,2,-1
 603 120 l 1,3,-1
 631 219 l 1,4,-1
 929 1190 l 1,5,-1
 1110 1190 l 1,6,-1
 708 0 l 1,7,-1
 490 0 l 1,8,-1
 82 1190 l 1,0,-1
EndSplineSet
EndChar

StartChar: w
Encoding: 119 119 109
Width: 1875
GlyphClass: 2
Flags: W
LayerCount: 2
Fore
SplineSet
93 1190 m 1,0,-1
 271 1190 l 1,1,-1
 523 316 l 1,2,-1
 568 125 l 1,3,-1
 601 285 l 1,4,-1
 861 1190 l 1,5,-1
 1025 1190 l 1,6,-1
 1281 316 l 1,7,-1
 1325 123 l 1,8,-1
 1357 286 l 1,9,-1
 1605 1190 l 1,10,-1
 1785 1190 l 1,11,-1
 1433 0 l 1,12,-1
 1214 0 l 1,13,-1
 986 763 l 1,14,-1
 940 997 l 1,15,-1
 899 763 l 1,16,-1
 672 0 l 1,17,-1
 463 0 l 1,18,-1
 93 1190 l 1,0,-1
EndSplineSet
EndChar

StartChar: x
Encoding: 120 120 110
Width: 1193
GlyphClass: 2
Flags: W
LayerCount: 2
Fore
SplineSet
482 603 m 1,0,-1
 100 1190 l 1,1,-1
 294 1190 l 1,2,-1
 590 709 l 1,3,-1
 891 1190 l 1,4,-1
 1082 1190 l 1,5,-1
 694 608 l 1,6,-1
 1105 0 l 1,7,-1
 913 0 l 1,8,-1
 589 495 l 1,9,-1
 271 0 l 1,10,-1
 88 0 l 1,11,-1
 482 603 l 1,0,-1
EndSplineSet
EndChar

StartChar: y
Encoding: 121 121 111
Width: 1192
GlyphClass: 2
Flags: W
LayerCount: 2
Fore
SplineSet
197 -288 m 1,0,1
 270 -314 270 -314 316.5 -314 c 128,-1,2
 363 -314 363 -314 377.5 -311.5 c 128,-1,3
 392 -309 392 -309 407 -301 c 0,4,5
 442 -282 442 -282 459 -239 c 0,6,7
 501 -137 501 -137 532 -15 c 1,8,-1
 73 1190 l 1,9,-1
 258 1190 l 1,10,-1
 568 313 l 1,11,-1
 615 159 l 1,12,-1
 658 314 l 1,13,-1
 932 1190 l 1,14,-1
 1106 1190 l 1,15,-1
 604 -282 l 1,16,17
 549 -454 549 -454 350 -454 c 0,18,19
 224 -454 224 -454 152 -418 c 1,20,-1
 197 -288 l 1,0,1
EndSplineSet
EndChar

StartChar: z
Encoding: 122 122 112
Width: 1024
GlyphClass: 2
Flags: W
LayerCount: 2
Fore
SplineSet
106 113 m 1,0,-1
 715 1052 l 1,1,-1
 93 1052 l 1,2,-1
 93 1190 l 1,3,-1
 917 1190 l 1,4,-1
 917 1077 l 1,5,-1
 310 139 l 1,6,-1
 942 139 l 1,7,-1
 942 0 l 1,8,-1
 106 0 l 1,9,-1
 106 113 l 1,0,-1
EndSplineSet
EndChar

StartChar: braceleft
Encoding: 123 123 113
Width: 851
GlyphClass: 2
Flags: W
LayerCount: 2
Fore
SplineSet
654 1896 m 1,0,1
 590 1911 590 1911 525 1911 c 0,2,3
 381 1911 381 1911 320 1850 c 1,4,5
 261 1789 261 1789 261 1644 c 2,6,-1
 261 1109 l 2,7,8
 261 1022 261 1022 218 987 c 256,9,10
 175 952 175 952 21 916 c 1,11,-1
 21 758 l 1,12,13
 171 723 171 723 207.5 692 c 128,-1,14
 244 661 244 661 252.5 631.5 c 128,-1,15
 261 602 261 602 261 559 c 2,16,-1
 261 -2 l 2,17,18
 261 -147 261 -147 320 -208 c 1,19,20
 381 -269 381 -269 516 -269 c 0,21,22
 590 -269 590 -269 654 -254 c 1,23,-1
 638 -138 l 1,24,25
 574 -147 574 -147 536 -147 c 128,-1,26
 498 -147 498 -147 476 -141 c 128,-1,27
 454 -135 454 -135 439 -120 c 0,28,29
 411 -92 411 -92 411 -21 c 2,30,-1
 411 567 l 2,31,32
 411 674 411 674 379 717 c 0,33,34
 313 805 313 805 149 837 c 1,35,36
 382 883 382 883 405 1024 c 0,37,38
 411 1065 411 1065 411 1107 c 2,39,-1
 411 1663 l 2,40,41
 411 1734 411 1734 433 1756 c 0,42,43
 466 1789 466 1789 520 1789 c 128,-1,44
 574 1789 574 1789 638 1780 c 1,45,-1
 654 1896 l 1,0,1
EndSplineSet
EndChar

StartChar: bar
Encoding: 124 124 114
Width: 854
GlyphClass: 2
Flags: W
LayerCount: 2
Fore
SplineSet
352 2000 m 1,0,-1
 502 2000 l 1,1,-1
 502 -178 l 1,2,-1
 352 -178 l 1,3,-1
 352 2000 l 1,0,-1
EndSplineSet
EndChar

StartChar: braceright
Encoding: 125 125 115
Width: 852
GlyphClass: 2
Flags: W
LayerCount: 2
Fore
SplineSet
189 1896 m 1,0,1
 253 1911 253 1911 318 1911 c 0,2,3
 462 1911 462 1911 523 1850 c 1,4,5
 582 1789 582 1789 582 1644 c 2,6,-1
 582 1109 l 2,7,8
 582 1022 582 1022 625 987 c 256,9,10
 668 952 668 952 822 916 c 1,11,-1
 822 758 l 1,12,13
 672 723 672 723 635.5 692 c 128,-1,14
 599 661 599 661 590.5 631.5 c 128,-1,15
 582 602 582 602 582 559 c 2,16,-1
 582 -2 l 2,17,18
 582 -147 582 -147 523 -208 c 1,19,20
 462 -269 462 -269 327 -269 c 0,21,22
 253 -269 253 -269 189 -254 c 1,23,-1
 205 -138 l 1,24,25
 269 -147 269 -147 307 -147 c 128,-1,26
 345 -147 345 -147 367 -141 c 128,-1,27
 389 -135 389 -135 404 -120 c 0,28,29
 432 -92 432 -92 432 -21 c 2,30,-1
 432 567 l 2,31,32
 432 674 432 674 464 717 c 0,33,34
 530 805 530 805 694 837 c 1,35,36
 461 883 461 883 438 1024 c 0,37,38
 432 1065 432 1065 432 1107 c 2,39,-1
 432 1663 l 2,40,41
 432 1734 432 1734 410 1756 c 0,42,43
 377 1789 377 1789 323 1789 c 128,-1,44
 269 1789 269 1789 205 1780 c 1,45,-1
 189 1896 l 1,0,1
EndSplineSet
EndChar

StartChar: asciitilde
Encoding: 126 126 116
Width: 1535
GlyphClass: 2
Flags: W
LayerCount: 2
Fore
SplineSet
530 631 m 0,0,1
 388 631 388 631 255 445 c 1,2,-1
 156 528 l 1,3,4
 234 680 234 680 351 746 c 0,5,6
 433 793 433 793 508 793 c 128,-1,7
 583 793 583 793 626.5 780 c 128,-1,8
 670 767 670 767 709 747.5 c 128,-1,9
 748 728 748 728 784 705 c 128,-1,10
 820 682 820 682 855 662 c 0,11,12
 937 617 937 617 1003 617 c 0,13,14
 1146 617 1146 617 1279 803 c 1,15,-1
 1378 720 l 1,16,17
 1242 454 1242 454 1001 454 c 0,18,19
 889 454 889 454 751 542 c 0,20,21
 664 598 664 598 617.5 614.5 c 128,-1,22
 571 631 571 631 530 631 c 0,0,1
EndSplineSet
EndChar

StartChar: exclamdown
Encoding: 161 161 118
Width: 512
GlyphClass: 2
Flags: W
LayerCount: 2
Fore
SplineSet
356 -339 m 1,0,-1
 168 -339 l 1,1,-1
 192 779 l 1,2,-1
 323 779 l 1,3,-1
 356 -339 l 1,0,-1
367 1143.5 m 128,-1,5
 372 1118 372 1118 372 1078.5 c 128,-1,6
 372 1039 372 1039 366.5 1014 c 128,-1,7
 361 989 361 989 348 975 c 0,8,9
 324 949 324 949 272 949 c 128,-1,10
 220 949 220 949 197.5 954.5 c 128,-1,11
 175 960 175 960 162 975 c 0,12,13
 139 1000 139 1000 139 1078 c 256,14,15
 139 1156 139 1156 157 1177 c 0,16,17
 185 1210 185 1210 255 1210 c 256,18,19
 325 1210 325 1210 343.5 1189.5 c 128,-1,4
 362 1169 362 1169 367 1143.5 c 128,-1,5
EndSplineSet
EndChar

StartChar: cent
Encoding: 162 162 119
Width: 1202
GlyphClass: 2
Flags: W
LayerCount: 2
Fore
SplineSet
1022 219 m 1,0,1
 895 154 895 154 686 146 c 1,2,-1
 686 -168 l 1,3,-1
 546 -168 l 1,4,-1
 546 149 l 1,5,6
 352 165 352 165 255 281 c 1,7,8
 174 367 174 367 162 553 c 0,9,10
 158 614 158 614 158 679 c 128,-1,11
 158 744 158 744 161 803.5 c 128,-1,12
 164 863 164 863 176.5 918.5 c 128,-1,13
 189 974 189 974 213.5 1024 c 128,-1,14
 238 1074 238 1074 282 1114 c 0,15,16
 374 1199 374 1199 546 1220 c 1,17,-1
 546 1540 l 1,18,-1
 686 1540 l 1,19,-1
 686 1225 l 1,20,21
 905 1217 905 1217 1016 1155 c 1,22,-1
 966 1007 l 1,23,24
 774 1081 774 1081 651.5 1081 c 128,-1,25
 529 1081 529 1081 471.5 1057.5 c 128,-1,26
 414 1034 414 1034 382 984 c 0,27,28
 328 901 328 901 328 678 c 0,29,30
 328 533 328 533 341.5 477.5 c 128,-1,31
 355 422 355 422 376 389 c 128,-1,32
 397 356 397 356 434 334 c 0,33,34
 508 290 508 290 653 290 c 128,-1,35
 798 290 798 290 969 354 c 1,36,-1
 1022 219 l 1,0,1
EndSplineSet
EndChar

StartChar: sterling
Encoding: 163 163 120
Width: 1194
GlyphClass: 2
Flags: W
LayerCount: 2
Fore
SplineSet
404 839 m 1,0,1
 280 999 280 999 280 1180 c 0,2,3
 280 1445 280 1445 529 1520 c 0,4,5
 616 1547 616 1547 699.5 1547 c 128,-1,6
 783 1547 783 1547 835 1542 c 128,-1,7
 887 1537 887 1537 941 1528 c 0,8,9
 1057 1507 1057 1507 1143 1472 c 1,10,-1
 1088 1322 l 1,11,12
 993 1372 993 1372 891.5 1389.5 c 128,-1,13
 790 1407 790 1407 724 1407 c 128,-1,14
 658 1407 658 1407 605 1395 c 128,-1,15
 552 1383 552 1383 519 1354 c 0,16,17
 456 1299 456 1299 456 1157 c 0,18,19
 456 1021 456 1021 538 896 c 0,20,21
 561 861 561 861 585 839 c 1,22,-1
 1020 839 l 1,23,-1
 1020 694 l 1,24,-1
 585 694 l 1,25,-1
 498 147 l 1,26,-1
 1143 147 l 1,27,-1
 1143 0 l 1,28,-1
 201 0 l 1,29,-1
 201 146 l 1,30,-1
 334 146 l 1,31,-1
 420 694 l 1,32,-1
 201 694 l 1,33,-1
 201 839 l 1,34,-1
 404 839 l 1,0,1
EndSplineSet
EndChar

StartChar: currency
Encoding: 164 164 121
Width: 1533
GlyphClass: 2
Flags: W
LayerCount: 2
Fore
SplineSet
1166 733 m 0,0,1
 1166 522 1166 522 1094 427 c 1,2,-1
 1319 203 l 1,3,-1
 1231 116 l 1,4,-1
 996 350 l 1,5,6
 910 310 910 310 762.5 310 c 128,-1,7
 615 310 615 310 530 349 c 1,8,-1
 300 118 l 1,9,-1
 213 205 l 1,10,-1
 434 423 l 1,11,12
 366 513 366 513 366 731.5 c 128,-1,13
 366 950 366 950 427 1034 c 1,14,-1
 211 1250 l 1,15,-1
 298 1338 l 1,16,-1
 525 1111 l 1,17,-1
 523 1109 l 1,18,19
 611 1148 611 1148 770 1148 c 128,-1,20
 929 1148 929 1148 1012 1114 c 1,21,-1
 1237 1340 l 1,22,-1
 1322 1255 l 1,23,-1
 1108 1041 l 1,24,25
 1145 990 1145 990 1155.5 913 c 128,-1,26
 1166 836 1166 836 1166 733 c 0,0,1
768 426 m 0,27,28
 851 426 851 426 903.5 441.5 c 128,-1,29
 956 457 956 457 986 494 c 0,30,31
 1036 557 1036 557 1036 751 c 0,32,33
 1036 920 1036 920 984 974 c 1,34,35
 932 1031 932 1031 775 1031 c 0,36,37
 607 1031 607 1031 550 974 c 0,38,39
 495 918 495 918 495 748 c 0,40,41
 495 562 495 562 550 494 c 256,42,43
 605 426 605 426 768 426 c 0,27,28
EndSplineSet
EndChar

StartChar: yen
Encoding: 165 165 122
Width: 1194
GlyphClass: 2
Flags: W
LayerCount: 2
Fore
SplineSet
128 818 m 1,0,-1
 440 818 l 1,1,-1
 65 1530 l 1,2,-1
 249 1530 l 1,3,-1
 604 818 l 1,4,-1
 606 818 l 1,5,-1
 951 1530 l 1,6,-1
 1138 1530 l 1,7,-1
 766 818 l 1,8,-1
 1073 818 l 1,9,-1
 1073 683 l 1,10,-1
 128 683 l 1,11,-1
 128 818 l 1,0,-1
128 502 m 1,12,-1
 1073 502 l 1,13,-1
 1073 367 l 1,14,-1
 682 367 l 1,15,-1
 682 0 l 1,16,-1
 511 0 l 1,17,-1
 511 367 l 1,18,-1
 128 367 l 1,19,-1
 128 502 l 1,12,-1
EndSplineSet
EndChar

StartChar: brokenbar
Encoding: 166 166 123
Width: 854
GlyphClass: 2
Flags: W
LayerCount: 2
Fore
SplineSet
352 2000 m 1,0,-1
 502 2000 l 1,1,-1
 502 1068 l 1,2,-1
 352 1068 l 1,3,-1
 352 2000 l 1,0,-1
352 754 m 1,4,-1
 502 754 l 1,5,-1
 502 -178 l 1,6,-1
 352 -178 l 1,7,-1
 352 754 l 1,4,-1
EndSplineSet
EndChar

StartChar: section
Encoding: 167 167 124
Width: 1229
GlyphClass: 2
Flags: W
LayerCount: 2
Fore
SplineSet
192 1232 m 2,0,1
 192 1549 192 1549 557 1549 c 2,2,-1
 571 1549 l 2,3,4
 822 1549 822 1549 985 1480 c 1,5,-1
 938 1329 l 1,6,7
 818 1380 818 1380 650 1403 c 0,8,9
 598 1410 598 1410 552.5 1410 c 128,-1,10
 507 1410 507 1410 470 1403 c 128,-1,11
 433 1396 433 1396 408 1376 c 0,12,13
 358 1338 358 1338 358 1232 c 2,14,-1
 358 1224 l 2,15,16
 358 1106 358 1106 429 1074 c 128,-1,17
 500 1042 500 1042 594 1029.5 c 128,-1,18
 688 1017 688 1017 748.5 1007 c 128,-1,19
 809 997 809 997 859 981.5 c 128,-1,20
 909 966 909 966 945 932 c 0,21,22
 1021 862 1021 862 1021 693 c 2,23,-1
 1021 682 l 2,24,25
 1021 538 1021 538 944 458 c 0,26,27
 911 423 911 423 888 408 c 1,28,29
 1021 348 1021 348 1021 135 c 2,30,-1
 1021 124 l 2,31,32
 1021 -183 1021 -183 766 -226 c 0,33,34
 689 -239 689 -239 613 -239 c 128,-1,35
 537 -239 537 -239 473.5 -229.5 c 128,-1,36
 410 -220 410 -220 352 -204 c 0,37,38
 242 -172 242 -172 153 -121 c 1,39,-1
 225 17 l 1,40,41
 431 -98 431 -98 639 -98 c 0,42,43
 812 -98 812 -98 842 26 c 0,44,45
 852 67 852 67 852 127.5 c 128,-1,46
 852 188 852 188 838 221 c 128,-1,47
 824 254 824 254 791 270 c 128,-1,48
 758 286 758 286 703.5 293.5 c 128,-1,49
 649 301 649 301 567 315 c 2,50,-1
 520 323 l 1,51,52
 469 329 469 329 423 345 c 1,53,54
 306 375 306 375 254 436 c 0,55,56
 192 507 192 507 192 639 c 2,57,-1
 192 674 l 2,58,59
 192 816 192 816 288 886 c 0,60,61
 313 905 313 905 358 931 c 1,62,63
 232 979 232 979 203 1094 c 0,64,65
 192 1138 192 1138 192 1197 c 2,66,-1
 192 1232 l 2,0,1
497 895 m 1,67,68
 358 860 358 860 358 666 c 0,69,70
 358 545 358 545 429 508 c 0,71,72
 496 473 496 473 594 461.5 c 128,-1,73
 692 450 692 450 754 441 c 1,74,75
 835 476 835 476 848 600 c 0,76,77
 852 638 852 638 852 692 c 128,-1,78
 852 746 852 746 838 780.5 c 128,-1,79
 824 815 824 815 791 833 c 128,-1,80
 758 851 758 851 704 860 c 2,81,-1
 497 895 l 1,67,68
EndSplineSet
EndChar

StartChar: dieresis
Encoding: 168 168 125
Width: 1139
GlyphClass: 2
Flags: W
LayerCount: 2
Fore
SplineSet
799 1481 m 0,0,1
 736 1481 736 1481 718 1499 c 0,2,3
 690 1528 690 1528 690 1580 c 128,-1,4
 690 1632 690 1632 696 1654.5 c 128,-1,5
 702 1677 702 1677 714 1690 c 1,6,7
 737 1712 737 1712 783.5 1712 c 128,-1,8
 830 1712 830 1712 851 1707 c 128,-1,9
 872 1702 872 1702 884 1690 c 0,10,11
 908 1666 908 1666 908 1614.5 c 128,-1,12
 908 1563 908 1563 902.5 1540.5 c 128,-1,13
 897 1518 897 1518 884 1504 c 0,14,15
 863 1481 863 1481 799 1481 c 0,0,1
341 1481 m 256,16,17
 278 1481 278 1481 260 1499 c 0,18,19
 232 1528 232 1528 232 1580 c 128,-1,20
 232 1632 232 1632 238 1654.5 c 128,-1,21
 244 1677 244 1677 256 1690 c 1,22,23
 279 1712 279 1712 325.5 1712 c 128,-1,24
 372 1712 372 1712 392.5 1707 c 128,-1,25
 413 1702 413 1702 426 1690 c 1,26,27
 448 1667 448 1667 448 1615 c 128,-1,28
 448 1563 448 1563 443 1540.5 c 128,-1,29
 438 1518 438 1518 426 1504 c 1,30,31
 404 1481 404 1481 341 1481 c 256,16,17
EndSplineSet
EndChar

StartChar: copyright
Encoding: 169 169 126
Width: 1707
GlyphClass: 2
Flags: W
LayerCount: 2
Fore
SplineSet
197 668 m 0,0,1
 193 750 193 750 193 845 c 128,-1,2
 193 940 193 940 197 1032 c 128,-1,3
 201 1124 201 1124 220.5 1201.5 c 128,-1,4
 240 1279 240 1279 280 1340 c 128,-1,5
 320 1401 320 1401 392 1443 c 0,6,7
 543 1530 543 1530 845 1530 c 0,8,9
 1164 1530 1164 1530 1312 1454 c 0,10,11
 1447 1384 1447 1384 1487 1223 c 0,12,13
 1513 1118 1513 1118 1513 929.5 c 128,-1,14
 1513 741 1513 741 1509.5 655.5 c 128,-1,15
 1506 570 1506 570 1487 496.5 c 128,-1,16
 1468 423 1468 423 1427.5 363.5 c 128,-1,17
 1387 304 1387 304 1313 262 c 0,18,19
 1159 173 1159 173 847 173 c 0,20,21
 411 173 411 173 280 376 c 0,22,23
 206 491 206 491 197 668 c 0,0,1
340.5 576.5 m 128,-1,25
 362 473 362 473 420 410 c 128,-1,26
 478 347 478 347 581.5 319.5 c 128,-1,27
 685 292 685 292 825.5 292 c 128,-1,28
 966 292 966 292 1051.5 303 c 128,-1,29
 1137 314 1137 314 1196.5 338.5 c 128,-1,30
 1256 363 1256 363 1293 404 c 128,-1,31
 1330 445 1330 445 1350 504 c 0,32,33
 1386 608 1386 608 1386 782 c 128,-1,34
 1386 956 1386 956 1379 1048.5 c 128,-1,35
 1372 1141 1372 1141 1351.5 1205.5 c 128,-1,36
 1331 1270 1331 1270 1294.5 1310 c 128,-1,37
 1258 1350 1258 1350 1198 1372 c 0,38,39
 1095 1411 1095 1411 849 1411 c 0,40,41
 617 1411 617 1411 515 1373 c 0,42,43
 401 1330 401 1330 358 1206 c 0,44,45
 319 1093 319 1093 319 886.5 c 128,-1,24
 319 680 319 680 340.5 576.5 c 128,-1,25
1133 545 m 1,46,47
 1012 490 1012 490 854 490 c 0,48,49
 688 490 688 490 616 571 c 1,50,51
 539 656 539 656 539 854 c 0,52,53
 539 1016 539 1016 598 1098 c 0,54,55
 679 1212 679 1212 891 1212 c 0,56,57
 1039 1212 1039 1212 1143 1160 c 1,58,-1
 1093 1036 l 1,59,60
 1004 1086 1004 1086 884 1086 c 0,61,62
 765 1086 765 1086 726 1036 c 0,63,64
 691 990 691 990 691 849 c 0,65,66
 691 719 691 719 712.5 681 c 128,-1,67
 734 643 734 643 767.5 628 c 128,-1,68
 801 613 801 613 896 613 c 128,-1,69
 991 613 991 613 1096 655 c 1,70,-1
 1133 545 l 1,46,47
EndSplineSet
EndChar

StartChar: ordfeminine
Encoding: 170 170 127
Width: 1024
GlyphClass: 2
Flags: W
LayerCount: 2
Fore
SplineSet
857 959 m 2,0,1
 857 810 857 810 872 647 c 1,2,-1
 732 639 l 1,3,-1
 713 742 l 1,4,5
 621 667 621 667 466 638 c 0,6,7
 417 628 417 628 370 628 c 128,-1,8
 323 628 323 628 277.5 637 c 128,-1,9
 232 646 232 646 196 676 c 0,10,11
 114 743 114 743 114 916 c 0,12,13
 114 1146 114 1146 265 1200 c 0,14,15
 319 1220 319 1220 396 1220 c 0,16,17
 547 1220 547 1220 705 1159 c 1,18,-1
 705 1237 l 2,19,20
 705 1388 705 1388 575 1412 c 0,21,22
 533 1419 533 1419 479 1419 c 0,23,24
 357 1419 357 1419 212 1368 c 1,25,-1
 182 1496 l 1,26,27
 227 1522 227 1522 328 1536 c 128,-1,28
 429 1550 429 1550 500 1550 c 128,-1,29
 571 1550 571 1550 641.5 1533 c 128,-1,30
 712 1516 712 1516 760 1478 c 0,31,32
 857 1403 857 1403 857 1237 c 2,33,-1
 857 959 l 2,0,1
702 1054 m 1,34,35
 551 1095 551 1095 406 1095 c 0,36,37
 319 1095 319 1095 292 1042 c 0,38,39
 273 1004 273 1004 273 932.5 c 128,-1,40
 273 861 273 861 280 831.5 c 128,-1,41
 287 802 287 802 304 784 c 0,42,43
 335 750 335 750 394 750 c 128,-1,44
 453 750 453 750 492 758 c 128,-1,45
 531 766 531 766 569 780 c 0,46,47
 645 807 645 807 707 854 c 1,48,49
 702 949 702 949 702 1054 c 1,34,35
EndSplineSet
EndChar

StartChar: guillemotleft
Encoding: 171 171 128
Width: 1533
GlyphClass: 2
Flags: W
LayerCount: 2
Fore
SplineSet
336 584 m 1,0,-1
 727 182 l 1,1,-1
 644 89 l 1,2,-1
 169 516 l 1,3,-1
 169 648 l 1,4,-1
 634 1082 l 1,5,-1
 725 996 l 1,6,-1
 336 584 l 1,0,-1
945 584 m 1,7,-1
 1336 182 l 1,8,-1
 1253 89 l 1,9,-1
 778 516 l 1,10,-1
 778 648 l 1,11,-1
 1243 1082 l 1,12,-1
 1334 996 l 1,13,-1
 945 584 l 1,7,-1
EndSplineSet
EndChar

StartChar: logicalnot
Encoding: 172 172 129
Width: 1364
GlyphClass: 2
Flags: W
LayerCount: 2
Fore
SplineSet
168 897 m 1,0,-1
 1196 897 l 1,1,-1
 1196 385 l 1,2,-1
 1067 385 l 1,3,-1
 1067 775 l 1,4,-1
 168 775 l 1,5,-1
 168 897 l 1,0,-1
EndSplineSet
EndChar

StartChar: registered
Encoding: 174 174 131
Width: 1707
GlyphClass: 2
Flags: W
LayerCount: 2
Fore
SplineSet
197 668 m 0,0,1
 193 750 193 750 193 845 c 128,-1,2
 193 940 193 940 197 1032 c 128,-1,3
 201 1124 201 1124 220.5 1201.5 c 128,-1,4
 240 1279 240 1279 280 1340 c 128,-1,5
 320 1401 320 1401 392 1443 c 0,6,7
 543 1530 543 1530 845 1530 c 0,8,9
 1164 1530 1164 1530 1312 1454 c 0,10,11
 1447 1384 1447 1384 1487 1223 c 0,12,13
 1513 1118 1513 1118 1513 929.5 c 128,-1,14
 1513 741 1513 741 1509.5 655.5 c 128,-1,15
 1506 570 1506 570 1487 496.5 c 128,-1,16
 1468 423 1468 423 1427.5 363.5 c 128,-1,17
 1387 304 1387 304 1313 262 c 0,18,19
 1159 173 1159 173 847 173 c 0,20,21
 411 173 411 173 280 376 c 0,22,23
 206 491 206 491 197 668 c 0,0,1
340.5 576.5 m 128,-1,25
 362 473 362 473 420 410 c 128,-1,26
 478 347 478 347 581.5 319.5 c 128,-1,27
 685 292 685 292 826 292 c 128,-1,28
 967 292 967 292 1053 303 c 128,-1,29
 1139 314 1139 314 1199 339 c 128,-1,30
 1259 364 1259 364 1295.5 405.5 c 128,-1,31
 1332 447 1332 447 1352 508 c 0,32,33
 1386 612 1386 612 1386 788 c 128,-1,34
 1386 964 1386 964 1378.5 1054.5 c 128,-1,35
 1371 1145 1371 1145 1350.5 1208.5 c 128,-1,36
 1330 1272 1330 1272 1293 1311.5 c 128,-1,37
 1256 1351 1256 1351 1196 1373 c 0,38,39
 1094 1411 1094 1411 849 1411 c 0,40,41
 617 1411 617 1411 515 1373 c 0,42,43
 401 1330 401 1330 358 1206 c 0,44,45
 319 1093 319 1093 319 886.5 c 128,-1,24
 319 680 319 680 340.5 576.5 c 128,-1,25
559 1190 m 1,46,47
 772 1205 772 1205 882.5 1205 c 128,-1,48
 993 1205 993 1205 1043.5 1192.5 c 128,-1,49
 1094 1180 1094 1180 1122 1156 c 1,50,51
 1173 1115 1173 1115 1173 1035.5 c 128,-1,52
 1173 956 1173 956 1164 909.5 c 128,-1,53
 1155 863 1155 863 1134 831 c 0,54,55
 1091 768 1091 768 985 754 c 1,56,57
 1002 737 1002 737 1018 719 c 1,58,-1
 1187 509 l 1,59,-1
 1037 509 l 1,60,-1
 869 718 l 2,61,62
 854 737 854 737 842 749 c 1,63,64
 805 750 805 750 762 751 c 128,-1,65
 719 752 719 752 688 754 c 1,66,-1
 688 509 l 1,67,-1
 559 509 l 1,68,-1
 559 1190 l 1,46,47
1031.5 921.5 m 128,-1,70
 1038 949 1038 949 1038 1002.5 c 128,-1,71
 1038 1056 1038 1056 995 1080 c 0,72,73
 970 1094 970 1094 879 1094 c 128,-1,74
 788 1094 788 1094 688 1087 c 1,75,-1
 688 858 l 1,76,77
 732 856 732 856 768 856 c 0,78,79
 810 856 810 856 861 856 c 128,-1,80
 912 856 912 856 948.5 860.5 c 128,-1,81
 985 865 985 865 1005 879.5 c 128,-1,69
 1025 894 1025 894 1031.5 921.5 c 128,-1,70
EndSplineSet
EndChar

StartChar: macron
Encoding: 175 175 132
Width: 856
GlyphClass: 2
Flags: W
LayerCount: 2
Fore
SplineSet
128 1663 m 1,0,-1
 727 1663 l 1,1,-1
 727 1528 l 1,2,-1
 128 1528 l 1,3,-1
 128 1663 l 1,0,-1
EndSplineSet
EndChar

StartChar: degree
Encoding: 176 176 133
Width: 1025
GlyphClass: 2
Flags: W
LayerCount: 2
Fore
SplineSet
512 1117 m 0,0,1
 449 1117 449 1117 395 1139.5 c 128,-1,2
 341 1162 341 1162 302 1201 c 0,3,4
 219 1284 219 1284 219 1407 c 0,5,6
 219 1531 219 1531 302 1614 c 0,7,8
 386 1698 386 1698 513 1698 c 0,9,10
 644 1698 644 1698 726 1615 c 0,11,12
 806 1533 806 1533 806 1407 c 0,13,14
 806 1285 806 1285 720 1201 c 128,-1,15
 634 1117 634 1117 512 1117 c 0,0,1
444 1254 m 0,16,17
 474 1242 474 1242 512 1242 c 128,-1,18
 550 1242 550 1242 580 1254.5 c 128,-1,19
 610 1267 610 1267 632 1289 c 0,20,21
 678 1335 678 1335 678 1407 c 0,22,23
 678 1526 678 1526 584 1564 c 0,24,25
 553 1576 553 1576 514 1576 c 128,-1,26
 475 1576 475 1576 444 1563.5 c 128,-1,27
 413 1551 413 1551 392 1528 c 1,28,29
 346 1481 346 1481 346 1407 c 0,30,31
 346 1294 346 1294 444 1254 c 0,16,17
EndSplineSet
EndChar

StartChar: plusminus
Encoding: 177 177 134
Width: 1533
GlyphClass: 2
Flags: W
LayerCount: 2
Fore
SplineSet
180 806 m 1,0,-1
 694 806 l 1,1,-1
 694 1319 l 1,2,-1
 836 1319 l 1,3,-1
 836 806 l 1,4,-1
 1351 806 l 1,5,-1
 1351 673 l 1,6,-1
 836 673 l 1,7,-1
 836 265 l 1,8,-1
 694 265 l 1,9,-1
 694 673 l 1,10,-1
 180 673 l 1,11,-1
 180 806 l 1,0,-1
209 134 m 1,12,-1
 1321 134 l 1,13,-1
 1321 1 l 1,14,-1
 209 1 l 1,15,-1
 209 134 l 1,12,-1
EndSplineSet
EndChar

StartChar: twosuperior
Encoding: 178 178 135
Width: 1025
GlyphClass: 2
Flags: W
LayerCount: 2
Fore
SplineSet
460 1669 m 0,0,1
 328 1669 328 1669 198 1586 c 1,2,-1
 139 1712 l 1,3,4
 217 1770 217 1770 368 1796 c 0,5,6
 422 1806 422 1806 479.5 1806 c 128,-1,7
 537 1806 537 1806 595.5 1796 c 128,-1,8
 654 1786 654 1786 700 1760 c 0,9,10
 805 1700 805 1700 805 1572 c 0,11,12
 805 1389 805 1389 551 1178 c 0,13,14
 472 1113 472 1113 377 1043 c 1,15,-1
 359 1032 l 1,16,-1
 839 1033 l 1,17,-1
 839 900 l 1,18,-1
 169 900 l 1,19,-1
 154 1013 l 1,20,21
 417 1195 417 1195 556 1378 c 1,22,23
 638 1484 638 1484 638 1554 c 0,24,25
 638 1651 638 1651 526 1665 c 0,26,27
 494 1669 494 1669 460 1669 c 0,0,1
EndSplineSet
EndChar

StartChar: threesuperior
Encoding: 179 179 136
Width: 1025
GlyphClass: 2
Flags: W
LayerCount: 2
Fore
SplineSet
794 1603 m 0,0,1
 794 1423 794 1423 608 1377 c 1,2,3
 785 1377 785 1377 818 1256 c 0,4,5
 829 1215 829 1215 829 1149.5 c 128,-1,6
 829 1084 829 1084 802 1031 c 128,-1,7
 775 978 775 978 728 946 c 1,8,9
 641 884 641 884 509 884 c 0,10,11
 297 884 297 884 141 943 c 1,12,-1
 182 1074 l 1,13,14
 334 1007 334 1007 494 1007 c 0,15,16
 639 1007 639 1007 668 1095 c 0,17,18
 678 1127 678 1127 678 1173.5 c 128,-1,19
 678 1220 678 1220 661.5 1245.5 c 128,-1,20
 645 1271 645 1271 620 1283 c 0,21,22
 583 1300 583 1300 515.5 1300 c 128,-1,23
 448 1300 448 1300 310 1280 c 1,24,-1
 294 1397 l 1,25,26
 582 1435 582 1435 632 1518 c 0,27,28
 648 1545 648 1545 648 1577.5 c 128,-1,29
 648 1610 648 1610 632 1630 c 128,-1,30
 616 1650 616 1650 590 1660 c 0,31,32
 552 1675 552 1675 490 1675 c 128,-1,33
 428 1675 428 1675 388 1668 c 128,-1,34
 348 1661 348 1661 313 1652 c 0,35,36
 246 1633 246 1633 207 1610 c 1,37,-1
 150 1719 l 1,38,39
 270 1806 270 1806 482 1806 c 0,40,41
 684 1806 684 1806 764 1700 c 0,42,43
 794 1661 794 1661 794 1603 c 0,0,1
EndSplineSet
EndChar

StartChar: acute
Encoding: 180 180 137
Width: 510
GlyphClass: 2
Flags: W
LayerCount: 2
Fore
SplineSet
26 1486 m 1,0,-1
 349 1837 l 1,1,-1
 479 1716 l 1,2,-1
 109 1399 l 1,3,-1
 26 1486 l 1,0,-1
EndSplineSet
EndChar

StartChar: mu
Encoding: 181 181 138
AltUni2: 0003bc.ffffffff.0
Width: 1362
GlyphClass: 2
Flags: W
LayerCount: 2
Fore
SplineSet
567 -20 m 0,0,1
 438 -20 438 -20 361 51 c 1,2,-1
 387 -457 l 1,3,-1
 216 -457 l 1,4,-1
 216 1190 l 1,5,-1
 383 1190 l 1,6,-1
 383 388 l 2,7,8
 383 243 383 243 421 192 c 0,9,10
 466 132 466 132 601 132 c 0,11,12
 778 132 778 132 961 258 c 1,13,-1
 961 259 l 1,14,15
 957 335 957 335 957 555 c 2,16,-1
 957 1190 l 1,17,-1
 1123 1190 l 1,18,-1
 1123 524 l 2,19,20
 1123 194 1123 194 1142 8 c 1,21,-1
 993 -4 l 1,22,-1
 969 137 l 1,23,24
 852 40 852 40 696 -3 c 0,25,26
 634 -20 634 -20 567 -20 c 0,0,1
EndSplineSet
EndChar

StartChar: paragraph
Encoding: 182 182 139
Width: 1704
GlyphClass: 2
Flags: W
LayerCount: 2
Fore
SplineSet
856 510 m 1,0,1
 810 506 810 506 770 506 c 0,2,3
 527 506 527 506 392 643 c 0,4,5
 255 781 255 781 255 1031 c 0,6,7
 255 1296 255 1296 424 1420 c 0,8,9
 575 1530 575 1530 863 1530 c 2,10,-1
 1396 1530 l 1,11,-1
 1396 0 l 1,12,-1
 1226 1 l 1,13,-1
 1226 1377 l 1,14,-1
 1026 1363 l 1,15,-1
 1026 0 l 1,16,-1
 856 0 l 1,17,-1
 856 510 l 1,0,1
EndSplineSet
EndChar

StartChar: periodcentered
Encoding: 183 183 140
Width: 512
GlyphClass: 2
Flags: W
LayerCount: 2
Fore
SplineSet
144 547.5 m 128,-1,1
 139 573 139 573 139 612.5 c 128,-1,2
 139 652 139 652 144.5 677 c 128,-1,3
 150 702 150 702 164 716 c 1,4,5
 187 742 187 742 239 742 c 128,-1,6
 291 742 291 742 313.5 736.5 c 128,-1,7
 336 731 336 731 349 716 c 0,8,9
 372 691 372 691 372 613 c 256,10,11
 372 535 372 535 354 514 c 0,12,13
 326 481 326 481 256 481 c 256,14,15
 186 481 186 481 167.5 501.5 c 128,-1,0
 149 522 149 522 144 547.5 c 128,-1,1
EndSplineSet
EndChar

StartChar: cedilla
Encoding: 184 184 141
Width: 511
GlyphClass: 2
Flags: W
LayerCount: 2
Fore
SplineSet
281 -203 m 0,0,1
 281 -113 281 -113 174 1 c 1,2,-1
 175 11 l 1,3,-1
 247 48 l 1,4,5
 421 -57 421 -57 421 -229 c 0,6,7
 421 -326 421 -326 364.5 -377 c 128,-1,8
 308 -428 308 -428 205 -428 c 0,9,10
 118 -428 118 -428 71 -409 c 1,11,-1
 96 -281 l 1,12,13
 143 -291 143 -291 182.5 -291 c 128,-1,14
 222 -291 222 -291 251.5 -270 c 128,-1,15
 281 -249 281 -249 281 -203 c 0,0,1
EndSplineSet
EndChar

StartChar: onesuperior
Encoding: 185 185 142
Width: 683
GlyphClass: 2
Flags: W
LayerCount: 2
Fore
SplineSet
295 1644 m 1,0,-1
 110 1613 l 1,1,-1
 90 1737 l 1,2,-1
 446 1793 l 1,3,-1
 446 901 l 1,4,-1
 295 901 l 1,5,-1
 295 1644 l 1,0,-1
EndSplineSet
EndChar

StartChar: ordmasculine
Encoding: 186 186 143
Width: 1194
GlyphClass: 2
Flags: W
LayerCount: 2
Fore
SplineSet
799.5 657.5 m 128,-1,1
 723 628 723 628 615 628 c 128,-1,2
 507 628 507 628 444 641.5 c 128,-1,3
 381 655 381 655 338.5 681.5 c 128,-1,4
 296 708 296 708 270.5 747 c 128,-1,5
 245 786 245 786 232 837 c 0,6,7
 211 919 211 919 211 1057.5 c 128,-1,8
 211 1196 211 1196 222 1282 c 128,-1,9
 233 1368 233 1368 274 1428 c 0,10,11
 356 1549 356 1549 608 1549 c 0,12,13
 859 1549 859 1549 932 1428 c 1,14,15
 975 1354 975 1354 980 1224 c 0,16,17
 983 1163 983 1163 983 1070.5 c 128,-1,18
 983 978 983 978 970.5 891 c 128,-1,19
 958 804 958 804 917 745.5 c 128,-1,0
 876 687 876 687 799.5 657.5 c 128,-1,1
469.5 763.5 m 128,-1,21
 516 744 516 744 586 744 c 128,-1,22
 656 744 656 744 695 753 c 128,-1,23
 734 762 734 762 759 780.5 c 128,-1,24
 784 799 784 799 797.5 828 c 128,-1,25
 811 857 811 857 817 898 c 0,26,27
 825 952 825 952 825 1109 c 2,28,-1
 825 1155 l 2,29,30
 825 1224 825 1224 820.5 1276.5 c 128,-1,31
 816 1329 816 1329 795 1364 c 0,32,33
 753 1433 753 1433 607 1433 c 0,34,35
 442 1433 442 1433 398 1352 c 0,36,37
 376 1311 376 1311 372.5 1249.5 c 128,-1,38
 369 1188 369 1188 369 1106 c 2,39,-1
 369 1053 l 2,40,41
 369 976 369 976 373.5 918.5 c 128,-1,42
 378 861 378 861 400.5 822 c 128,-1,20
 423 783 423 783 469.5 763.5 c 128,-1,21
EndSplineSet
EndChar

StartChar: guillemotright
Encoding: 187 187 144
Width: 1529
GlyphClass: 2
Flags: W
LayerCount: 2
Fore
SplineSet
577 591 m 1,0,-1
 186 993 l 1,1,-1
 269 1086 l 1,2,-1
 744 659 l 1,3,-1
 744 527 l 1,4,-1
 279 93 l 1,5,-1
 188 179 l 1,6,-1
 577 591 l 1,0,-1
1193 591 m 1,7,-1
 802 993 l 1,8,-1
 885 1086 l 1,9,-1
 1360 659 l 1,10,-1
 1360 527 l 1,11,-1
 895 93 l 1,12,-1
 804 179 l 1,13,-1
 1193 591 l 1,7,-1
EndSplineSet
EndChar

StartChar: onequarter
Encoding: 188 188 145
Width: 1705
GlyphClass: 2
Flags: W
LayerCount: 2
Fore
SplineSet
226 1384 m 1,0,-1
 41 1353 l 1,1,-1
 21 1477 l 1,2,-1
 377 1533 l 1,3,-1
 377 641 l 1,4,-1
 226 641 l 1,5,-1
 226 1384 l 1,0,-1
831 319 m 1,6,-1
 1307 905 l 1,7,-1
 1516 905 l 1,8,-1
 1516 343 l 1,9,-1
 1657 343 l 1,10,-1
 1657 232 l 1,11,-1
 1516 219 l 1,12,-1
 1516 -1 l 1,13,-1
 1365 -1 l 1,14,-1
 1365 217 l 1,15,-1
 831 217 l 1,16,-1
 831 319 l 1,6,-1
1364 343 m 1,17,-1
 1364 775 l 1,18,19
 1350 760 1350 760 1330 736 c 2,20,-1
 1007 343 l 1,21,-1
 1364 343 l 1,17,-1
1065 1531 m 1,22,-1
 1217 1531 l 1,23,-1
 357 0 l 1,24,-1
 208 0 l 1,25,-1
 1065 1531 l 1,22,-1
EndSplineSet
EndChar

StartChar: onehalf
Encoding: 189 189 146
Width: 1875
GlyphClass: 2
Flags: W
LayerCount: 2
Fore
SplineSet
301 1384 m 1,0,-1
 116 1353 l 1,1,-1
 96 1477 l 1,2,-1
 452 1533 l 1,3,-1
 452 641 l 1,4,-1
 301 641 l 1,5,-1
 301 1384 l 1,0,-1
1369 769 m 0,6,7
 1237 769 1237 769 1107 686 c 1,8,-1
 1048 812 l 1,9,10
 1126 870 1126 870 1278 896 c 0,11,12
 1331 906 1331 906 1388.5 906 c 128,-1,13
 1446 906 1446 906 1504.5 896 c 128,-1,14
 1563 886 1563 886 1610 860 c 0,15,16
 1714 800 1714 800 1714 672 c 0,17,18
 1714 489 1714 489 1460 278 c 0,19,20
 1381 213 1381 213 1286 143 c 1,21,-1
 1268 132 l 1,22,-1
 1748 133 l 1,23,-1
 1748 0 l 1,24,-1
 1078 0 l 1,25,-1
 1063 113 l 1,26,27
 1326 295 1326 295 1466 478 c 0,28,29
 1547 584 1547 584 1547 654 c 0,30,31
 1547 751 1547 751 1436 765 c 0,32,33
 1403 769 1403 769 1369 769 c 0,6,7
1129 1531 m 1,34,-1
 1281 1531 l 1,35,-1
 421 0 l 1,36,-1
 272 0 l 1,37,-1
 1129 1531 l 1,34,-1
EndSplineSet
EndChar

StartChar: threequarters
Encoding: 190 190 147
Width: 2045
GlyphClass: 2
Flags: W
LayerCount: 2
Fore
SplineSet
699 1347 m 0,0,1
 699 1167 699 1167 513 1121 c 1,2,3
 690 1121 690 1121 723 1000 c 0,4,5
 734 959 734 959 734 893.5 c 128,-1,6
 734 828 734 828 707 775 c 128,-1,7
 680 722 680 722 634 690 c 0,8,9
 546 628 546 628 414 628 c 0,10,11
 202 628 202 628 46 687 c 1,12,-1
 87 818 l 1,13,14
 239 751 239 751 399 751 c 0,15,16
 544 751 544 751 572 839 c 0,17,18
 583 871 583 871 583 917.5 c 128,-1,19
 583 964 583 964 566.5 989.5 c 128,-1,20
 550 1015 550 1015 524 1027 c 0,21,22
 488 1044 488 1044 420 1044 c 128,-1,23
 352 1044 352 1044 215 1024 c 1,24,-1
 199 1141 l 1,25,26
 487 1179 487 1179 537 1262 c 0,27,28
 553 1289 553 1289 553 1321.5 c 128,-1,29
 553 1354 553 1354 537 1374 c 128,-1,30
 521 1394 521 1394 496 1404 c 0,31,32
 457 1419 457 1419 395 1419 c 128,-1,33
 333 1419 333 1419 293 1412 c 128,-1,34
 253 1405 253 1405 218 1396 c 0,35,36
 151 1377 151 1377 112 1354 c 1,37,-1
 55 1463 l 1,38,39
 175 1550 175 1550 387 1550 c 0,40,41
 589 1550 589 1550 670 1444 c 0,42,43
 699 1405 699 1405 699 1347 c 0,0,1
1183 319 m 1,44,-1
 1659 905 l 1,45,-1
 1868 905 l 1,46,-1
 1868 343 l 1,47,-1
 2009 343 l 1,48,-1
 2009 232 l 1,49,-1
 1868 219 l 1,50,-1
 1868 -1 l 1,51,-1
 1717 -1 l 1,52,-1
 1717 217 l 1,53,-1
 1183 217 l 1,54,-1
 1183 319 l 1,44,-1
1716 343 m 1,55,-1
 1716 775 l 1,56,57
 1702 760 1702 760 1682 736 c 2,58,-1
 1359 343 l 1,59,-1
 1716 343 l 1,55,-1
1399 1531 m 1,60,-1
 1551 1531 l 1,61,-1
 691 0 l 1,62,-1
 542 0 l 1,63,-1
 1399 1531 l 1,60,-1
EndSplineSet
EndChar

StartChar: questiondown
Encoding: 191 191 148
Width: 1024
GlyphClass: 2
Flags: W
LayerCount: 2
Fore
SplineSet
684 627 m 2,0,1
 691 571 691 571 653 533 c 2,2,-1
 399 271 l 1,3,4
 339 207 339 207 327 173 c 0,5,6
 312 128 312 128 312 80 c 128,-1,7
 312 32 312 32 313 10 c 128,-1,8
 314 -12 314 -12 318 -27 c 0,9,10
 325 -55 325 -55 344.5 -68.5 c 128,-1,11
 364 -82 364 -82 404.5 -98.5 c 128,-1,12
 445 -115 445 -115 507 -134 c 0,13,14
 654 -179 654 -179 821 -199 c 1,15,-1
 788 -369 l 1,16,17
 491 -328 491 -328 298 -233 c 0,18,19
 178 -173 178 -173 155 -90 c 0,20,21
 143 -47 143 -47 143 22 c 128,-1,22
 143 91 143 91 147 129.5 c 128,-1,23
 151 168 151 168 161.5 200 c 128,-1,24
 172 232 172 232 191 261.5 c 128,-1,25
 210 291 210 291 239.5 324 c 128,-1,26
 269 357 269 357 311 396 c 2,27,-1
 519 586 l 1,28,-1
 541 778 l 1,29,-1
 664 778 l 1,30,-1
 684 627 l 2,0,1
709 1142.5 m 128,-1,32
 714 1117 714 1117 714 1077.5 c 128,-1,33
 714 1038 714 1038 708.5 1013 c 128,-1,34
 703 988 703 988 690 974 c 0,35,36
 666 948 666 948 614 948 c 128,-1,37
 562 948 562 948 539.5 953.5 c 128,-1,38
 517 959 517 959 504 974 c 0,39,40
 481 999 481 999 481 1077 c 256,41,42
 481 1155 481 1155 499 1176 c 0,43,44
 527 1209 527 1209 597 1209 c 256,45,46
 667 1209 667 1209 685.5 1188.5 c 128,-1,31
 704 1168 704 1168 709 1142.5 c 128,-1,32
EndSplineSet
EndChar

StartChar: Agrave
Encoding: 192 192 149
Width: 1364
GlyphClass: 2
Flags: W
LayerCount: 2
Fore
SplineSet
550 1530 m 1,0,-1
 783 1530 l 1,1,-1
 1318 0 l 1,2,-1
 1137 0 l 1,3,-1
 985 449 l 1,4,-1
 369 449 l 1,5,-1
 225 0 l 1,6,-1
 49 0 l 1,7,-1
 550 1530 l 1,0,-1
937 592 m 1,8,-1
 667 1395 l 1,9,-1
 636 1281 l 1,10,-1
 415 592 l 1,11,-1
 937 592 l 1,8,-1
353 1836 m 1,12,-1
 437 2000 l 1,13,-1
 858 1741 l 1,14,-1
 808 1649 l 1,15,-1
 353 1836 l 1,12,-1
EndSplineSet
EndChar

StartChar: Aacute
Encoding: 193 193 150
Width: 1364
GlyphClass: 2
Flags: W
LayerCount: 2
Fore
SplineSet
550 1530 m 1,0,-1
 783 1530 l 1,1,-1
 1318 0 l 1,2,-1
 1137 0 l 1,3,-1
 985 449 l 1,4,-1
 369 449 l 1,5,-1
 225 0 l 1,6,-1
 49 0 l 1,7,-1
 550 1530 l 1,0,-1
937 592 m 1,8,-1
 667 1395 l 1,9,-1
 636 1281 l 1,10,-1
 415 592 l 1,11,-1
 937 592 l 1,8,-1
457 1741 m 1,12,-1
 873 2000 l 1,13,-1
 966 1841 l 1,14,-1
 507 1649 l 1,15,-1
 457 1741 l 1,12,-1
EndSplineSet
EndChar

StartChar: Acircumflex
Encoding: 194 194 151
Width: 1364
GlyphClass: 2
Flags: W
LayerCount: 2
Fore
SplineSet
550 1530 m 1,0,-1
 783 1530 l 1,1,-1
 1318 0 l 1,2,-1
 1137 0 l 1,3,-1
 985 449 l 1,4,-1
 369 449 l 1,5,-1
 225 0 l 1,6,-1
 49 0 l 1,7,-1
 550 1530 l 1,0,-1
937 592 m 1,8,-1
 667 1395 l 1,9,-1
 636 1281 l 1,10,-1
 415 592 l 1,11,-1
 937 592 l 1,8,-1
362 1744 m 1,12,-1
 586 1991 l 1,13,-1
 746 1991 l 1,14,-1
 979 1743 l 1,15,-1
 902 1663 l 1,16,-1
 665 1863 l 1,17,-1
 436 1662 l 1,18,-1
 362 1744 l 1,12,-1
EndSplineSet
EndChar

StartChar: Atilde
Encoding: 195 195 152
Width: 1364
GlyphClass: 2
Flags: W
LayerCount: 2
Fore
SplineSet
550 1530 m 1,0,-1
 783 1530 l 1,1,-1
 1318 0 l 1,2,-1
 1137 0 l 1,3,-1
 985 449 l 1,4,-1
 369 449 l 1,5,-1
 225 0 l 1,6,-1
 49 0 l 1,7,-1
 550 1530 l 1,0,-1
937 592 m 1,8,-1
 667 1395 l 1,9,-1
 636 1281 l 1,10,-1
 415 592 l 1,11,-1
 937 592 l 1,8,-1
1058 1926 m 1,12,13
 959 1696 959 1696 792 1696 c 0,14,15
 744 1696 744 1696 659 1756 c 0,16,17
 628 1778 628 1778 597.5 1796.5 c 128,-1,18
 567 1815 567 1815 543 1815 c 128,-1,19
 519 1815 519 1815 498.5 1805 c 128,-1,20
 478 1795 478 1795 455 1779 c 128,-1,21
 432 1763 432 1763 408 1742 c 2,22,-1
 362 1702 l 1,23,-1
 291 1765 l 1,24,25
 347 1868 347 1868 417.5 1914.5 c 128,-1,26
 488 1961 488 1961 557 1961 c 2,27,-1
 570 1961 l 2,28,29
 625 1961 625 1961 706 1904 c 2,30,-1
 762 1865 l 2,31,32
 788 1847 788 1847 811 1847 c 128,-1,33
 834 1847 834 1847 854 1858.5 c 128,-1,34
 874 1870 874 1870 893.5 1889 c 128,-1,35
 913 1908 913 1908 932 1932 c 2,36,-1
 971 1982 l 1,37,-1
 1058 1926 l 1,12,13
EndSplineSet
EndChar

StartChar: Adieresis
Encoding: 196 196 153
Width: 1364
GlyphClass: 2
Flags: W
LayerCount: 2
Fore
SplineSet
550 1530 m 1,0,-1
 783 1530 l 1,1,-1
 1318 0 l 1,2,-1
 1137 0 l 1,3,-1
 985 449 l 1,4,-1
 369 449 l 1,5,-1
 225 0 l 1,6,-1
 49 0 l 1,7,-1
 550 1530 l 1,0,-1
937 592 m 1,8,-1
 667 1395 l 1,9,-1
 636 1281 l 1,10,-1
 415 592 l 1,11,-1
 937 592 l 1,8,-1
890 1717 m 0,12,13
 827 1717 827 1717 809 1735 c 0,14,15
 781 1764 781 1764 781 1816 c 128,-1,16
 781 1868 781 1868 787 1890.5 c 128,-1,17
 793 1913 793 1913 805 1926 c 1,18,19
 828 1948 828 1948 874.5 1948 c 128,-1,20
 921 1948 921 1948 942 1943 c 128,-1,21
 963 1938 963 1938 975 1926 c 0,22,23
 999 1902 999 1902 999 1850.5 c 128,-1,24
 999 1799 999 1799 993.5 1776.5 c 128,-1,25
 988 1754 988 1754 975 1740 c 0,26,27
 954 1717 954 1717 890 1717 c 0,12,13
432 1717 m 256,28,29
 369 1717 369 1717 351 1735 c 0,30,31
 323 1764 323 1764 323 1816 c 128,-1,32
 323 1868 323 1868 329 1890.5 c 128,-1,33
 335 1913 335 1913 347 1926 c 1,34,35
 370 1948 370 1948 416.5 1948 c 128,-1,36
 463 1948 463 1948 483.5 1943 c 128,-1,37
 504 1938 504 1938 517 1926 c 1,38,39
 539 1903 539 1903 539 1851 c 128,-1,40
 539 1799 539 1799 534 1776.5 c 128,-1,41
 529 1754 529 1754 517 1740 c 1,42,43
 495 1717 495 1717 432 1717 c 256,28,29
EndSplineSet
EndChar

StartChar: Aring
Encoding: 197 197 154
Width: 1364
GlyphClass: 2
Flags: W
LayerCount: 2
Fore
SplineSet
550 1530 m 1,0,-1
 783 1530 l 1,1,-1
 1318 0 l 1,2,-1
 1137 0 l 1,3,-1
 985 449 l 1,4,-1
 369 449 l 1,5,-1
 225 0 l 1,6,-1
 49 0 l 1,7,-1
 550 1530 l 1,0,-1
937 592 m 1,8,-1
 667 1395 l 1,9,-1
 636 1281 l 1,10,-1
 415 592 l 1,11,-1
 937 592 l 1,8,-1
659 1592 m 0,12,13
 496 1592 496 1592 443 1701 c 0,14,15
 424 1739 424 1739 424 1794.5 c 128,-1,16
 424 1850 424 1850 442.5 1889 c 128,-1,17
 461 1928 461 1928 493 1953 c 0,18,19
 553 2000 553 2000 659 2000 c 0,20,21
 823 2000 823 2000 875 1889 c 0,22,23
 894 1850 894 1850 894 1794.5 c 128,-1,24
 894 1739 894 1739 875.5 1701 c 128,-1,25
 857 1663 857 1663 825 1639 c 0,26,27
 762 1592 762 1592 659 1592 c 0,12,13
547 1794 m 0,28,29
 547 1699 547 1699 657 1699 c 128,-1,30
 767 1699 767 1699 767 1794 c 0,31,32
 767 1894 767 1894 657 1894 c 128,-1,33
 547 1894 547 1894 547 1794 c 0,28,29
EndSplineSet
EndChar

StartChar: AE
Encoding: 198 198 155
Width: 1875
GlyphClass: 2
Flags: W
LayerCount: 2
Fore
SplineSet
845 1530 m 1,0,-1
 1784 1530 l 1,1,-1
 1784 1382 l 1,2,-1
 1138 1382 l 1,3,-1
 1138 854 l 1,4,-1
 1649 854 l 1,5,-1
 1649 707 l 1,6,-1
 1138 707 l 1,7,-1
 1138 147 l 1,8,-1
 1811 147 l 1,9,-1
 1811 0 l 1,10,-1
 968 0 l 1,11,-1
 968 420 l 1,12,-1
 452 420 l 1,13,-1
 239 0 l 1,14,-1
 47 0 l 1,15,-1
 845 1530 l 1,0,-1
968 563 m 1,16,-1
 968 1437 l 1,17,-1
 524 563 l 1,18,-1
 968 563 l 1,16,-1
EndSplineSet
EndChar

StartChar: Ccedilla
Encoding: 199 199 156
Width: 1194
GlyphClass: 2
Flags: W
LayerCount: 2
Fore
SplineSet
771 124 m 2,0,1
 934 124 934 124 1099 187 c 1,2,-1
 1143 49 l 1,3,4
 1067 11 1067 11 960 -4.5 c 128,-1,5
 853 -20 853 -20 771 -20 c 2,6,-1
 757 -20 l 2,7,8
 401 -20 401 -20 280 184 c 0,9,10
 206 308 206 308 190 518 c 0,11,12
 183 619 183 619 183 739 c 128,-1,13
 183 859 183 859 189.5 967.5 c 128,-1,14
 196 1076 196 1076 216 1166.5 c 128,-1,15
 236 1257 236 1257 274 1328 c 128,-1,16
 312 1399 312 1399 376 1448 c 0,17,18
 506 1550 506 1550 754 1550 c 0,19,20
 914 1550 914 1550 1011.5 1529.5 c 128,-1,21
 1109 1509 1109 1509 1143 1496 c 1,22,-1
 1098 1338 l 1,23,24
 903 1406 903 1406 764.5 1406 c 128,-1,25
 626 1406 626 1406 551.5 1372.5 c 128,-1,26
 477 1339 477 1339 435 1262 c 0,27,28
 362 1130 362 1130 362 759 c 2,29,-1
 362 685 l 2,30,31
 362 380 362 380 441 259 c 0,32,33
 529 124 529 124 762 124 c 2,34,-1
 771 124 l 2,0,1
772 -203 m 0,35,36
 772 -113 772 -113 665 1 c 1,37,-1
 666 11 l 1,38,-1
 738 48 l 1,39,40
 912 -57 912 -57 912 -229 c 0,41,42
 912 -326 912 -326 855.5 -377 c 128,-1,43
 799 -428 799 -428 696 -428 c 0,44,45
 609 -428 609 -428 562 -409 c 1,46,-1
 587 -281 l 1,47,48
 634 -291 634 -291 673.5 -291 c 128,-1,49
 713 -291 713 -291 742.5 -270 c 128,-1,50
 772 -249 772 -249 772 -203 c 0,35,36
EndSplineSet
EndChar

StartChar: Egrave
Encoding: 200 200 157
Width: 1195
GlyphClass: 2
Flags: W
LayerCount: 2
Fore
SplineSet
236 1530 m 1,0,-1
 1103 1530 l 1,1,-1
 1103 1382 l 1,2,-1
 406 1382 l 1,3,-1
 406 854 l 1,4,-1
 968 854 l 1,5,-1
 968 707 l 1,6,-1
 406 707 l 1,7,-1
 406 147 l 1,8,-1
 1130 147 l 1,9,-1
 1130 0 l 1,10,-1
 236 0 l 1,11,-1
 236 1530 l 1,0,-1
394 1836 m 1,12,-1
 478 2000 l 1,13,-1
 899 1741 l 1,14,-1
 849 1649 l 1,15,-1
 394 1836 l 1,12,-1
EndSplineSet
EndChar

StartChar: Eacute
Encoding: 201 201 158
Width: 1195
GlyphClass: 2
Flags: W
LayerCount: 2
Fore
SplineSet
236 1530 m 1,0,-1
 1103 1530 l 1,1,-1
 1103 1382 l 1,2,-1
 406 1382 l 1,3,-1
 406 854 l 1,4,-1
 968 854 l 1,5,-1
 968 707 l 1,6,-1
 406 707 l 1,7,-1
 406 147 l 1,8,-1
 1130 147 l 1,9,-1
 1130 0 l 1,10,-1
 236 0 l 1,11,-1
 236 1530 l 1,0,-1
454 1741 m 1,12,-1
 870 2000 l 1,13,-1
 963 1841 l 1,14,-1
 504 1649 l 1,15,-1
 454 1741 l 1,12,-1
EndSplineSet
EndChar

StartChar: Ecircumflex
Encoding: 202 202 159
Width: 1195
GlyphClass: 2
Flags: W
LayerCount: 2
Fore
SplineSet
236 1530 m 1,0,-1
 1103 1530 l 1,1,-1
 1103 1382 l 1,2,-1
 406 1382 l 1,3,-1
 406 854 l 1,4,-1
 968 854 l 1,5,-1
 968 707 l 1,6,-1
 406 707 l 1,7,-1
 406 147 l 1,8,-1
 1130 147 l 1,9,-1
 1130 0 l 1,10,-1
 236 0 l 1,11,-1
 236 1530 l 1,0,-1
381 1744 m 1,12,-1
 605 1991 l 1,13,-1
 765 1991 l 1,14,-1
 998 1743 l 1,15,-1
 921 1663 l 1,16,-1
 684 1863 l 1,17,-1
 455 1662 l 1,18,-1
 381 1744 l 1,12,-1
EndSplineSet
EndChar

StartChar: Edieresis
Encoding: 203 203 160
Width: 1195
GlyphClass: 2
Flags: W
LayerCount: 2
Fore
SplineSet
236 1530 m 1,0,-1
 1103 1530 l 1,1,-1
 1103 1382 l 1,2,-1
 406 1382 l 1,3,-1
 406 854 l 1,4,-1
 968 854 l 1,5,-1
 968 707 l 1,6,-1
 406 707 l 1,7,-1
 406 147 l 1,8,-1
 1130 147 l 1,9,-1
 1130 0 l 1,10,-1
 236 0 l 1,11,-1
 236 1530 l 1,0,-1
906 1717 m 0,12,13
 843 1717 843 1717 825 1735 c 0,14,15
 797 1764 797 1764 797 1816 c 128,-1,16
 797 1868 797 1868 803 1890.5 c 128,-1,17
 809 1913 809 1913 821 1926 c 1,18,19
 844 1948 844 1948 890.5 1948 c 128,-1,20
 937 1948 937 1948 958 1943 c 128,-1,21
 979 1938 979 1938 991 1926 c 0,22,23
 1015 1902 1015 1902 1015 1850.5 c 128,-1,24
 1015 1799 1015 1799 1009.5 1776.5 c 128,-1,25
 1004 1754 1004 1754 991 1740 c 0,26,27
 970 1717 970 1717 906 1717 c 0,12,13
448 1717 m 256,28,29
 385 1717 385 1717 367 1735 c 0,30,31
 339 1764 339 1764 339 1816 c 128,-1,32
 339 1868 339 1868 345 1890.5 c 128,-1,33
 351 1913 351 1913 363 1926 c 1,34,35
 386 1948 386 1948 432.5 1948 c 128,-1,36
 479 1948 479 1948 499.5 1943 c 128,-1,37
 520 1938 520 1938 533 1926 c 1,38,39
 555 1903 555 1903 555 1851 c 128,-1,40
 555 1799 555 1799 550 1776.5 c 128,-1,41
 545 1754 545 1754 533 1740 c 1,42,43
 511 1717 511 1717 448 1717 c 256,28,29
EndSplineSet
EndChar

StartChar: Igrave
Encoding: 204 204 161
Width: 683
GlyphClass: 2
Flags: W
LayerCount: 2
Fore
SplineSet
257 1530 m 1,0,-1
 426 1530 l 1,1,-1
 426 0 l 1,2,-1
 257 0 l 1,3,-1
 257 1530 l 1,0,-1
51 1836 m 1,4,-1
 135 2000 l 1,5,-1
 556 1741 l 1,6,-1
 506 1649 l 1,7,-1
 51 1836 l 1,4,-1
EndSplineSet
EndChar

StartChar: Iacute
Encoding: 205 205 162
Width: 683
GlyphClass: 2
Flags: W
LayerCount: 2
Fore
SplineSet
257 1530 m 1,0,-1
 426 1530 l 1,1,-1
 426 0 l 1,2,-1
 257 0 l 1,3,-1
 257 1530 l 1,0,-1
118 1741 m 1,4,-1
 534 2000 l 1,5,-1
 627 1841 l 1,6,-1
 168 1649 l 1,7,-1
 118 1741 l 1,4,-1
EndSplineSet
EndChar

StartChar: Icircumflex
Encoding: 206 206 163
Width: 683
GlyphClass: 2
Flags: W
LayerCount: 2
Fore
SplineSet
257 1530 m 1,0,-1
 426 1530 l 1,1,-1
 426 0 l 1,2,-1
 257 0 l 1,3,-1
 257 1530 l 1,0,-1
37 1744 m 1,4,-1
 261 1991 l 1,5,-1
 421 1991 l 1,6,-1
 654 1743 l 1,7,-1
 577 1663 l 1,8,-1
 340 1863 l 1,9,-1
 111 1662 l 1,10,-1
 37 1744 l 1,4,-1
EndSplineSet
EndChar

StartChar: Idieresis
Encoding: 207 207 164
Width: 683
GlyphClass: 2
Flags: W
LayerCount: 2
Fore
SplineSet
257 1530 m 1,0,-1
 426 1530 l 1,1,-1
 426 0 l 1,2,-1
 257 0 l 1,3,-1
 257 1530 l 1,0,-1
570 1717 m 0,4,5
 507 1717 507 1717 489 1735 c 0,6,7
 461 1764 461 1764 461 1816 c 128,-1,8
 461 1868 461 1868 467 1890.5 c 128,-1,9
 473 1913 473 1913 485 1926 c 1,10,11
 508 1948 508 1948 554.5 1948 c 128,-1,12
 601 1948 601 1948 622 1943 c 128,-1,13
 643 1938 643 1938 655 1926 c 0,14,15
 679 1902 679 1902 679 1850.5 c 128,-1,16
 679 1799 679 1799 673.5 1776.5 c 128,-1,17
 668 1754 668 1754 655 1740 c 0,18,19
 634 1717 634 1717 570 1717 c 0,4,5
112 1717 m 256,20,21
 49 1717 49 1717 31 1735 c 0,22,23
 3 1764 3 1764 3 1816 c 128,-1,24
 3 1868 3 1868 9 1890.5 c 128,-1,25
 15 1913 15 1913 27 1926 c 1,26,27
 50 1948 50 1948 96.5 1948 c 128,-1,28
 143 1948 143 1948 163.5 1943 c 128,-1,29
 184 1938 184 1938 197 1926 c 1,30,31
 219 1903 219 1903 219 1851 c 128,-1,32
 219 1799 219 1799 214 1776.5 c 128,-1,33
 209 1754 209 1754 197 1740 c 1,34,35
 175 1717 175 1717 112 1717 c 256,20,21
EndSplineSet
EndChar

StartChar: Eth
Encoding: 208 208 165
Width: 1534
GlyphClass: 2
Flags: W
LayerCount: 2
Fore
SplineSet
236 1520 m 1,0,1
 632 1552 632 1552 783 1552 c 128,-1,2
 934 1552 934 1552 1009.5 1541 c 128,-1,3
 1085 1530 1085 1530 1139.5 1503 c 128,-1,4
 1194 1476 1194 1476 1229.5 1429.5 c 128,-1,5
 1265 1383 1265 1383 1286 1311 c 0,6,7
 1322 1183 1322 1183 1322 966.5 c 128,-1,8
 1322 750 1322 750 1316 622.5 c 128,-1,9
 1310 495 1310 495 1288.5 394.5 c 128,-1,10
 1267 294 1267 294 1226 219.5 c 128,-1,11
 1185 145 1185 145 1116 96 c 1,12,13
 977 0 977 0 697 0 c 2,14,-1
 236 0 l 1,15,-1
 236 699 l 1,16,-1
 74 699 l 1,17,-1
 74 834 l 1,18,-1
 236 834 l 1,19,-1
 236 1520 l 1,0,1
727 148 m 2,20,21
 915 148 915 148 1003 209.5 c 128,-1,22
 1091 271 1091 271 1122 416 c 0,23,24
 1147 535 1147 535 1147 799 c 2,25,-1
 1147 974 l 2,26,27
 1147 1082 1147 1082 1140 1163.5 c 128,-1,28
 1133 1245 1133 1245 1102 1299 c 0,29,30
 1042 1407 1042 1407 841 1407 c 0,31,32
 734 1407 734 1407 624 1400 c 2,33,-1
 406 1385 l 1,34,-1
 406 834 l 1,35,-1
 745 834 l 1,36,-1
 745 699 l 1,37,-1
 406 699 l 1,38,-1
 406 148 l 1,39,-1
 727 148 l 2,20,21
EndSplineSet
EndChar

StartChar: Ntilde
Encoding: 209 209 166
Width: 1536
GlyphClass: 2
Flags: W
LayerCount: 2
Fore
SplineSet
236 1530 m 1,0,-1
 371 1530 l 1,1,-1
 1075 418 l 1,2,-1
 1166 229 l 1,3,-1
 1144 439 l 1,4,-1
 1144 1530 l 1,5,-1
 1299 1530 l 1,6,-1
 1299 0 l 1,7,-1
 1156 0 l 1,8,-1
 457 1109 l 1,9,-1
 369 1281 l 1,10,-1
 391 1077 l 1,11,-1
 391 0 l 1,12,-1
 236 0 l 1,13,-1
 236 1530 l 1,0,-1
1162 1926 m 1,14,15
 1063 1696 1063 1696 896 1696 c 0,16,17
 848 1696 848 1696 763 1756 c 0,18,19
 732 1778 732 1778 701.5 1796.5 c 128,-1,20
 671 1815 671 1815 647 1815 c 128,-1,21
 623 1815 623 1815 602.5 1805 c 128,-1,22
 582 1795 582 1795 559 1779 c 128,-1,23
 536 1763 536 1763 512 1742 c 2,24,-1
 466 1702 l 1,25,-1
 395 1765 l 1,26,27
 451 1868 451 1868 521.5 1914.5 c 128,-1,28
 592 1961 592 1961 661 1961 c 2,29,-1
 674 1961 l 2,30,31
 729 1961 729 1961 810 1904 c 2,32,-1
 866 1865 l 2,33,34
 892 1847 892 1847 915 1847 c 128,-1,35
 938 1847 938 1847 958 1858.5 c 128,-1,36
 978 1870 978 1870 997.5 1889 c 128,-1,37
 1017 1908 1017 1908 1036 1932 c 2,38,-1
 1075 1982 l 1,39,-1
 1162 1926 l 1,14,15
EndSplineSet
EndChar

StartChar: Ograve
Encoding: 210 210 167
Width: 1534
GlyphClass: 2
Flags: W
LayerCount: 2
Fore
SplineSet
739 -20 m 2,0,1
 383 -20 383 -20 269 204 c 0,2,3
 202 334 202 334 190 551 c 0,4,5
 185 653 185 653 185 773 c 128,-1,6
 185 893 185 893 192 1000.5 c 128,-1,7
 199 1108 199 1108 219.5 1195 c 128,-1,8
 240 1282 240 1282 277.5 1348.5 c 128,-1,9
 315 1415 315 1415 376 1460 c 1,10,11
 502 1550 502 1550 739 1550 c 2,12,-1
 801 1550 l 2,13,14
 1172 1550 1172 1550 1276 1350 c 0,15,16
 1341 1225 1341 1225 1349 1002 c 0,17,18
 1353 893 1353 893 1353 771.5 c 128,-1,19
 1353 650 1353 650 1347 547.5 c 128,-1,20
 1341 445 1341 445 1322 358 c 128,-1,21
 1303 271 1303 271 1266.5 201 c 128,-1,22
 1230 131 1230 131 1168 82 c 0,23,24
 1040 -20 1040 -20 801 -20 c 2,25,-1
 739 -20 l 2,0,1
799 124 m 2,26,27
 909 124 909 124 981.5 148 c 128,-1,28
 1054 172 1054 172 1096 232 c 0,29,30
 1174 343 1174 343 1174 658 c 2,31,-1
 1174 766 l 2,32,33
 1174 917 1174 917 1166 1035 c 128,-1,34
 1158 1153 1158 1153 1123 1234 c 0,35,36
 1051 1402 1051 1402 811 1402 c 2,37,-1
 727 1402 l 2,38,39
 483 1402 483 1402 415 1245 c 0,40,41
 372 1145 372 1145 368 1009 c 128,-1,42
 364 873 364 873 364 766 c 2,43,-1
 364 658 l 2,44,45
 364 363 364 363 452 242 c 0,46,47
 537 124 537 124 739 124 c 2,48,-1
 799 124 l 2,26,27
494 1836 m 1,49,-1
 578 2000 l 1,50,-1
 999 1741 l 1,51,-1
 949 1649 l 1,52,-1
 494 1836 l 1,49,-1
EndSplineSet
EndChar

StartChar: Oacute
Encoding: 211 211 168
Width: 1534
GlyphClass: 2
Flags: W
LayerCount: 2
Fore
SplineSet
739 -20 m 2,0,1
 383 -20 383 -20 269 204 c 0,2,3
 202 334 202 334 190 551 c 0,4,5
 185 653 185 653 185 773 c 128,-1,6
 185 893 185 893 192 1000.5 c 128,-1,7
 199 1108 199 1108 219.5 1195 c 128,-1,8
 240 1282 240 1282 277.5 1348.5 c 128,-1,9
 315 1415 315 1415 376 1460 c 1,10,11
 502 1550 502 1550 739 1550 c 2,12,-1
 801 1550 l 2,13,14
 1172 1550 1172 1550 1276 1350 c 0,15,16
 1341 1225 1341 1225 1349 1002 c 0,17,18
 1353 893 1353 893 1353 771.5 c 128,-1,19
 1353 650 1353 650 1347 547.5 c 128,-1,20
 1341 445 1341 445 1322 358 c 128,-1,21
 1303 271 1303 271 1266.5 201 c 128,-1,22
 1230 131 1230 131 1168 82 c 0,23,24
 1040 -20 1040 -20 801 -20 c 2,25,-1
 739 -20 l 2,0,1
799 124 m 2,26,27
 909 124 909 124 981.5 148 c 128,-1,28
 1054 172 1054 172 1096 232 c 0,29,30
 1174 343 1174 343 1174 658 c 2,31,-1
 1174 766 l 2,32,33
 1174 917 1174 917 1166 1035 c 128,-1,34
 1158 1153 1158 1153 1123 1234 c 0,35,36
 1051 1402 1051 1402 811 1402 c 2,37,-1
 727 1402 l 2,38,39
 483 1402 483 1402 415 1245 c 0,40,41
 372 1145 372 1145 368 1009 c 128,-1,42
 364 873 364 873 364 766 c 2,43,-1
 364 658 l 2,44,45
 364 363 364 363 452 242 c 0,46,47
 537 124 537 124 739 124 c 2,48,-1
 799 124 l 2,26,27
584 1741 m 1,49,-1
 1000 2000 l 1,50,-1
 1093 1841 l 1,51,-1
 634 1649 l 1,52,-1
 584 1741 l 1,49,-1
EndSplineSet
EndChar

StartChar: Ocircumflex
Encoding: 212 212 169
Width: 1534
GlyphClass: 2
Flags: W
LayerCount: 2
Fore
SplineSet
739 -20 m 2,0,1
 383 -20 383 -20 269 204 c 0,2,3
 202 334 202 334 190 551 c 0,4,5
 185 653 185 653 185 773 c 128,-1,6
 185 893 185 893 192 1000.5 c 128,-1,7
 199 1108 199 1108 219.5 1195 c 128,-1,8
 240 1282 240 1282 277.5 1348.5 c 128,-1,9
 315 1415 315 1415 376 1460 c 1,10,11
 502 1550 502 1550 739 1550 c 2,12,-1
 801 1550 l 2,13,14
 1172 1550 1172 1550 1276 1350 c 0,15,16
 1341 1225 1341 1225 1349 1002 c 0,17,18
 1353 893 1353 893 1353 771.5 c 128,-1,19
 1353 650 1353 650 1347 547.5 c 128,-1,20
 1341 445 1341 445 1322 358 c 128,-1,21
 1303 271 1303 271 1266.5 201 c 128,-1,22
 1230 131 1230 131 1168 82 c 0,23,24
 1040 -20 1040 -20 801 -20 c 2,25,-1
 739 -20 l 2,0,1
799 124 m 2,26,27
 909 124 909 124 981.5 148 c 128,-1,28
 1054 172 1054 172 1096 232 c 0,29,30
 1174 343 1174 343 1174 658 c 2,31,-1
 1174 766 l 2,32,33
 1174 917 1174 917 1166 1035 c 128,-1,34
 1158 1153 1158 1153 1123 1234 c 0,35,36
 1051 1402 1051 1402 811 1402 c 2,37,-1
 727 1402 l 2,38,39
 483 1402 483 1402 415 1245 c 0,40,41
 372 1145 372 1145 368 1009 c 128,-1,42
 364 873 364 873 364 766 c 2,43,-1
 364 658 l 2,44,45
 364 363 364 363 452 242 c 0,46,47
 537 124 537 124 739 124 c 2,48,-1
 799 124 l 2,26,27
466 1744 m 1,49,-1
 690 1991 l 1,50,-1
 850 1991 l 1,51,-1
 1083 1743 l 1,52,-1
 1006 1663 l 1,53,-1
 769 1863 l 1,54,-1
 540 1662 l 1,55,-1
 466 1744 l 1,49,-1
EndSplineSet
EndChar

StartChar: Otilde
Encoding: 213 213 170
Width: 1534
GlyphClass: 2
Flags: W
LayerCount: 2
Fore
SplineSet
739 -20 m 2,0,1
 383 -20 383 -20 269 204 c 0,2,3
 202 334 202 334 190 551 c 0,4,5
 185 653 185 653 185 773 c 128,-1,6
 185 893 185 893 192 1000.5 c 128,-1,7
 199 1108 199 1108 219.5 1195 c 128,-1,8
 240 1282 240 1282 277.5 1348.5 c 128,-1,9
 315 1415 315 1415 376 1460 c 1,10,11
 502 1550 502 1550 739 1550 c 2,12,-1
 801 1550 l 2,13,14
 1172 1550 1172 1550 1276 1350 c 0,15,16
 1341 1225 1341 1225 1349 1002 c 0,17,18
 1353 893 1353 893 1353 771.5 c 128,-1,19
 1353 650 1353 650 1347 547.5 c 128,-1,20
 1341 445 1341 445 1322 358 c 128,-1,21
 1303 271 1303 271 1266.5 201 c 128,-1,22
 1230 131 1230 131 1168 82 c 0,23,24
 1040 -20 1040 -20 801 -20 c 2,25,-1
 739 -20 l 2,0,1
799 124 m 2,26,27
 909 124 909 124 981.5 148 c 128,-1,28
 1054 172 1054 172 1096 232 c 0,29,30
 1174 343 1174 343 1174 658 c 2,31,-1
 1174 766 l 2,32,33
 1174 917 1174 917 1166 1035 c 128,-1,34
 1158 1153 1158 1153 1123 1234 c 0,35,36
 1051 1402 1051 1402 811 1402 c 2,37,-1
 727 1402 l 2,38,39
 483 1402 483 1402 415 1245 c 0,40,41
 372 1145 372 1145 368 1009 c 128,-1,42
 364 873 364 873 364 766 c 2,43,-1
 364 658 l 2,44,45
 364 363 364 363 452 242 c 0,46,47
 537 124 537 124 739 124 c 2,48,-1
 799 124 l 2,26,27
1163 1926 m 1,49,50
 1064 1696 1064 1696 897 1696 c 0,51,52
 849 1696 849 1696 764 1756 c 0,53,54
 733 1778 733 1778 702.5 1796.5 c 128,-1,55
 672 1815 672 1815 648 1815 c 128,-1,56
 624 1815 624 1815 603.5 1805 c 128,-1,57
 583 1795 583 1795 560 1779 c 128,-1,58
 537 1763 537 1763 513 1742 c 2,59,-1
 467 1702 l 1,60,-1
 396 1765 l 1,61,62
 452 1868 452 1868 522.5 1914.5 c 128,-1,63
 593 1961 593 1961 662 1961 c 2,64,-1
 675 1961 l 2,65,66
 730 1961 730 1961 811 1904 c 2,67,-1
 867 1865 l 2,68,69
 893 1847 893 1847 916 1847 c 128,-1,70
 939 1847 939 1847 959 1858.5 c 128,-1,71
 979 1870 979 1870 998.5 1889 c 128,-1,72
 1018 1908 1018 1908 1037 1932 c 2,73,-1
 1076 1982 l 1,74,-1
 1163 1926 l 1,49,50
EndSplineSet
EndChar

StartChar: Odieresis
Encoding: 214 214 171
Width: 1534
GlyphClass: 2
Flags: W
LayerCount: 2
Fore
SplineSet
739 -20 m 2,0,1
 383 -20 383 -20 269 204 c 0,2,3
 202 334 202 334 190 551 c 0,4,5
 185 653 185 653 185 773 c 128,-1,6
 185 893 185 893 192 1000.5 c 128,-1,7
 199 1108 199 1108 219.5 1195 c 128,-1,8
 240 1282 240 1282 277.5 1348.5 c 128,-1,9
 315 1415 315 1415 376 1460 c 1,10,11
 502 1550 502 1550 739 1550 c 2,12,-1
 801 1550 l 2,13,14
 1172 1550 1172 1550 1276 1350 c 0,15,16
 1341 1225 1341 1225 1349 1002 c 0,17,18
 1353 893 1353 893 1353 771.5 c 128,-1,19
 1353 650 1353 650 1347 547.5 c 128,-1,20
 1341 445 1341 445 1322 358 c 128,-1,21
 1303 271 1303 271 1266.5 201 c 128,-1,22
 1230 131 1230 131 1168 82 c 0,23,24
 1040 -20 1040 -20 801 -20 c 2,25,-1
 739 -20 l 2,0,1
799 124 m 2,26,27
 909 124 909 124 981.5 148 c 128,-1,28
 1054 172 1054 172 1096 232 c 0,29,30
 1174 343 1174 343 1174 658 c 2,31,-1
 1174 766 l 2,32,33
 1174 917 1174 917 1166 1035 c 128,-1,34
 1158 1153 1158 1153 1123 1234 c 0,35,36
 1051 1402 1051 1402 811 1402 c 2,37,-1
 727 1402 l 2,38,39
 483 1402 483 1402 415 1245 c 0,40,41
 372 1145 372 1145 368 1009 c 128,-1,42
 364 873 364 873 364 766 c 2,43,-1
 364 658 l 2,44,45
 364 363 364 363 452 242 c 0,46,47
 537 124 537 124 739 124 c 2,48,-1
 799 124 l 2,26,27
995 1717 m 0,49,50
 932 1717 932 1717 914 1735 c 0,51,52
 886 1764 886 1764 886 1816 c 128,-1,53
 886 1868 886 1868 892 1890.5 c 128,-1,54
 898 1913 898 1913 910 1926 c 1,55,56
 933 1948 933 1948 979.5 1948 c 128,-1,57
 1026 1948 1026 1948 1047 1943 c 128,-1,58
 1068 1938 1068 1938 1080 1926 c 0,59,60
 1104 1902 1104 1902 1104 1850.5 c 128,-1,61
 1104 1799 1104 1799 1098.5 1776.5 c 128,-1,62
 1093 1754 1093 1754 1080 1740 c 0,63,64
 1059 1717 1059 1717 995 1717 c 0,49,50
537 1717 m 256,65,66
 474 1717 474 1717 456 1735 c 0,67,68
 428 1764 428 1764 428 1816 c 128,-1,69
 428 1868 428 1868 434 1890.5 c 128,-1,70
 440 1913 440 1913 452 1926 c 1,71,72
 475 1948 475 1948 521.5 1948 c 128,-1,73
 568 1948 568 1948 588.5 1943 c 128,-1,74
 609 1938 609 1938 622 1926 c 1,75,76
 644 1903 644 1903 644 1851 c 128,-1,77
 644 1799 644 1799 639 1776.5 c 128,-1,78
 634 1754 634 1754 622 1740 c 1,79,80
 600 1717 600 1717 537 1717 c 256,65,66
EndSplineSet
EndChar

StartChar: multiply
Encoding: 215 215 172
Width: 1363
GlyphClass: 2
Flags: W
LayerCount: 2
Fore
SplineSet
579 663 m 1,0,-1
 203 1038 l 1,1,-1
 300 1136 l 1,2,-1
 676 761 l 1,3,-1
 1052 1136 l 1,4,-1
 1146 1042 l 1,5,-1
 770 666 l 1,6,-1
 1140 296 l 1,7,-1
 1043 200 l 1,8,-1
 672 568 l 1,9,-1
 303 199 l 1,10,-1
 208 292 l 1,11,-1
 579 663 l 1,0,-1
EndSplineSet
EndChar

StartChar: Oslash
Encoding: 216 216 173
Width: 1534
GlyphClass: 2
Flags: W
LayerCount: 2
Fore
SplineSet
438 38 m 1,0,1
 215 148 215 148 192 524 c 0,2,3
 185 638 185 638 185 765.5 c 128,-1,4
 185 893 185 893 192 1000.5 c 128,-1,5
 199 1108 199 1108 219.5 1195 c 128,-1,6
 240 1282 240 1282 277.5 1348.5 c 128,-1,7
 315 1415 315 1415 376 1460 c 1,8,9
 502 1550 502 1550 739 1550 c 2,10,-1
 801 1550 l 2,11,12
 885 1550 885 1550 953 1541 c 1,13,-1
 1056 1846 l 1,14,-1
 1189 1820 l 1,15,-1
 1079 1512 l 1,16,17
 1176 1478 1176 1478 1231 1413.5 c 128,-1,18
 1286 1349 1286 1349 1313 1255 c 128,-1,19
 1340 1161 1340 1161 1346.5 1038 c 128,-1,20
 1353 915 1353 915 1353 782.5 c 128,-1,21
 1353 650 1353 650 1347 547.5 c 128,-1,22
 1341 445 1341 445 1322 358 c 128,-1,23
 1303 271 1303 271 1266.5 201 c 128,-1,24
 1230 131 1230 131 1168 82 c 0,25,26
 1040 -20 1040 -20 801 -20 c 2,27,-1
 739 -20 l 2,28,29
 636 -20 636 -20 558 -2 c 1,30,-1
 447 -334 l 1,31,-1
 317 -310 l 1,32,-1
 438 38 l 1,0,1
904 1395 m 1,33,34
 855 1402 855 1402 811 1402 c 2,35,-1
 727 1402 l 2,36,37
 483 1402 483 1402 415 1245 c 0,38,39
 372 1145 372 1145 368 1009 c 128,-1,40
 364 873 364 873 364 766 c 2,41,-1
 364 658 l 2,42,43
 364 307 364 307 494 196 c 1,44,-1
 700 785 l 1,45,-1
 904 1395 l 1,33,34
605 139 m 1,46,47
 663 124 663 124 739 124 c 2,48,-1
 799 124 l 2,49,50
 909 124 909 124 981.5 148 c 128,-1,51
 1054 172 1054 172 1096 232 c 0,52,53
 1174 343 1174 343 1174 658 c 2,54,-1
 1174 766 l 2,55,56
 1174 1028 1174 1028 1155.5 1119.5 c 128,-1,57
 1137 1211 1137 1211 1106.5 1265.5 c 128,-1,58
 1076 1320 1076 1320 1023 1353 c 1,59,-1
 822 785 l 1,60,-1
 605 139 l 1,46,47
EndSplineSet
EndChar

StartChar: Ugrave
Encoding: 217 217 174
Width: 1534
GlyphClass: 2
Flags: W
LayerCount: 2
Fore
SplineSet
214 1530 m 1,0,-1
 382 1530 l 1,1,-1
 382 712 l 2,2,3
 382 470 382 470 403 382 c 128,-1,4
 424 294 424 294 451.5 249.5 c 128,-1,5
 479 205 479 205 523 178 c 0,6,7
 606 127 606 127 751.5 127 c 128,-1,8
 897 127 897 127 970.5 152 c 128,-1,9
 1044 177 1044 177 1084.5 242 c 128,-1,10
 1125 307 1125 307 1139 421 c 128,-1,11
 1153 535 1153 535 1153 712 c 2,12,-1
 1153 1530 l 1,13,-1
 1321 1530 l 1,14,-1
 1321 718 l 2,15,16
 1321 461 1321 461 1302 363.5 c 128,-1,17
 1283 266 1283 266 1249.5 198 c 128,-1,18
 1216 130 1216 130 1155 82 c 0,19,20
 1027 -20 1027 -20 773 -20 c 0,21,22
 395 -20 395 -20 285 196 c 0,23,24
 224 317 224 317 217 516 c 0,25,26
 214 607 214 607 214 705 c 2,27,-1
 214 1530 l 1,0,-1
517 1836 m 1,28,-1
 601 2000 l 1,29,-1
 1022 1741 l 1,30,-1
 972 1649 l 1,31,-1
 517 1836 l 1,28,-1
EndSplineSet
EndChar

StartChar: Uacute
Encoding: 218 218 175
Width: 1534
GlyphClass: 2
Flags: W
LayerCount: 2
Fore
SplineSet
214 1530 m 1,0,-1
 382 1530 l 1,1,-1
 382 712 l 2,2,3
 382 470 382 470 403 382 c 128,-1,4
 424 294 424 294 451.5 249.5 c 128,-1,5
 479 205 479 205 523 178 c 0,6,7
 606 127 606 127 751.5 127 c 128,-1,8
 897 127 897 127 970.5 152 c 128,-1,9
 1044 177 1044 177 1084.5 242 c 128,-1,10
 1125 307 1125 307 1139 421 c 128,-1,11
 1153 535 1153 535 1153 712 c 2,12,-1
 1153 1530 l 1,13,-1
 1321 1530 l 1,14,-1
 1321 718 l 2,15,16
 1321 461 1321 461 1302 363.5 c 128,-1,17
 1283 266 1283 266 1249.5 198 c 128,-1,18
 1216 130 1216 130 1155 82 c 0,19,20
 1027 -20 1027 -20 773 -20 c 0,21,22
 395 -20 395 -20 285 196 c 0,23,24
 224 317 224 317 217 516 c 0,25,26
 214 607 214 607 214 705 c 2,27,-1
 214 1530 l 1,0,-1
524 1741 m 1,28,-1
 940 2000 l 1,29,-1
 1033 1841 l 1,30,-1
 574 1649 l 1,31,-1
 524 1741 l 1,28,-1
EndSplineSet
EndChar

StartChar: Ucircumflex
Encoding: 219 219 176
Width: 1534
GlyphClass: 2
Flags: W
LayerCount: 2
Fore
SplineSet
214 1530 m 1,0,-1
 382 1530 l 1,1,-1
 382 712 l 2,2,3
 382 470 382 470 403 382 c 128,-1,4
 424 294 424 294 451.5 249.5 c 128,-1,5
 479 205 479 205 523 178 c 0,6,7
 606 127 606 127 751.5 127 c 128,-1,8
 897 127 897 127 970.5 152 c 128,-1,9
 1044 177 1044 177 1084.5 242 c 128,-1,10
 1125 307 1125 307 1139 421 c 128,-1,11
 1153 535 1153 535 1153 712 c 2,12,-1
 1153 1530 l 1,13,-1
 1321 1530 l 1,14,-1
 1321 718 l 2,15,16
 1321 461 1321 461 1302 363.5 c 128,-1,17
 1283 266 1283 266 1249.5 198 c 128,-1,18
 1216 130 1216 130 1155 82 c 0,19,20
 1027 -20 1027 -20 773 -20 c 0,21,22
 395 -20 395 -20 285 196 c 0,23,24
 224 317 224 317 217 516 c 0,25,26
 214 607 214 607 214 705 c 2,27,-1
 214 1530 l 1,0,-1
458 1744 m 1,28,-1
 682 1991 l 1,29,-1
 842 1991 l 1,30,-1
 1075 1743 l 1,31,-1
 998 1663 l 1,32,-1
 761 1863 l 1,33,-1
 532 1662 l 1,34,-1
 458 1744 l 1,28,-1
EndSplineSet
EndChar

StartChar: Udieresis
Encoding: 220 220 177
Width: 1534
GlyphClass: 2
Flags: W
LayerCount: 2
Fore
SplineSet
214 1530 m 1,0,-1
 382 1530 l 1,1,-1
 382 712 l 2,2,3
 382 470 382 470 403 382 c 128,-1,4
 424 294 424 294 451.5 249.5 c 128,-1,5
 479 205 479 205 523 178 c 0,6,7
 606 127 606 127 751.5 127 c 128,-1,8
 897 127 897 127 970.5 152 c 128,-1,9
 1044 177 1044 177 1084.5 242 c 128,-1,10
 1125 307 1125 307 1139 421 c 128,-1,11
 1153 535 1153 535 1153 712 c 2,12,-1
 1153 1530 l 1,13,-1
 1321 1530 l 1,14,-1
 1321 718 l 2,15,16
 1321 461 1321 461 1302 363.5 c 128,-1,17
 1283 266 1283 266 1249.5 198 c 128,-1,18
 1216 130 1216 130 1155 82 c 0,19,20
 1027 -20 1027 -20 773 -20 c 0,21,22
 395 -20 395 -20 285 196 c 0,23,24
 224 317 224 317 217 516 c 0,25,26
 214 607 214 607 214 705 c 2,27,-1
 214 1530 l 1,0,-1
998 1717 m 0,28,29
 935 1717 935 1717 917 1735 c 0,30,31
 889 1764 889 1764 889 1816 c 128,-1,32
 889 1868 889 1868 895 1890.5 c 128,-1,33
 901 1913 901 1913 913 1926 c 1,34,35
 936 1948 936 1948 982.5 1948 c 128,-1,36
 1029 1948 1029 1948 1050 1943 c 128,-1,37
 1071 1938 1071 1938 1083 1926 c 0,38,39
 1107 1902 1107 1902 1107 1850.5 c 128,-1,40
 1107 1799 1107 1799 1101.5 1776.5 c 128,-1,41
 1096 1754 1096 1754 1083 1740 c 0,42,43
 1062 1717 1062 1717 998 1717 c 0,28,29
540 1717 m 256,44,45
 477 1717 477 1717 459 1735 c 0,46,47
 431 1764 431 1764 431 1816 c 128,-1,48
 431 1868 431 1868 437 1890.5 c 128,-1,49
 443 1913 443 1913 455 1926 c 1,50,51
 478 1948 478 1948 524.5 1948 c 128,-1,52
 571 1948 571 1948 591.5 1943 c 128,-1,53
 612 1938 612 1938 625 1926 c 1,54,55
 647 1903 647 1903 647 1851 c 128,-1,56
 647 1799 647 1799 642 1776.5 c 128,-1,57
 637 1754 637 1754 625 1740 c 1,58,59
 603 1717 603 1717 540 1717 c 256,44,45
EndSplineSet
EndChar

StartChar: Yacute
Encoding: 221 221 178
Width: 1194
GlyphClass: 2
Flags: W
LayerCount: 2
Fore
SplineSet
512 565 m 1,0,-1
 13 1530 l 1,1,-1
 199 1530 l 1,2,-1
 526 873 l 1,3,-1
 600 704 l 1,4,-1
 673 876 l 1,5,-1
 993 1530 l 1,6,-1
 1181 1530 l 1,7,-1
 682 565 l 1,8,-1
 681 0 l 1,9,-1
 513 0 l 1,10,-1
 512 565 l 1,0,-1
385 1741 m 1,11,-1
 801 2000 l 1,12,-1
 894 1841 l 1,13,-1
 435 1649 l 1,14,-1
 385 1741 l 1,11,-1
EndSplineSet
EndChar

StartChar: Thorn
Encoding: 222 222 179
Width: 1364
GlyphClass: 2
Flags: W
LayerCount: 2
Fore
SplineSet
833 251.5 m 128,-1,1
 792 249 792 249 689.5 249 c 128,-1,2
 587 249 587 249 406 276 c 1,3,-1
 406 0 l 1,4,-1
 236 0 l 1,5,-1
 236 1530 l 1,6,-1
 406 1530 l 1,7,-1
 406 1271 l 1,8,9
 626 1291 626 1291 784.5 1291 c 128,-1,10
 943 1291 943 1291 1025 1263 c 128,-1,11
 1107 1235 1107 1235 1154 1182 c 0,12,13
 1236 1090 1236 1090 1236 878 c 0,14,15
 1236 660 1236 660 1211.5 567 c 128,-1,16
 1187 474 1187 474 1155 421 c 128,-1,17
 1123 368 1123 368 1079 335.5 c 128,-1,18
 1035 303 1035 303 995.5 287 c 128,-1,19
 956 271 956 271 915 262.5 c 128,-1,0
 874 254 874 254 833 251.5 c 128,-1,1
921.5 1131.5 m 128,-1,21
 875 1146 875 1146 755 1146 c 128,-1,22
 635 1146 635 1146 406 1126 c 1,23,-1
 406 417 l 1,24,25
 558 397 558 397 705 397 c 128,-1,26
 852 397 852 397 913.5 420.5 c 128,-1,27
 975 444 975 444 1006 500 c 128,-1,28
 1037 556 1037 556 1045.5 649 c 128,-1,29
 1054 742 1054 742 1054 848 c 128,-1,30
 1054 954 1054 954 1040 1004 c 128,-1,31
 1026 1054 1026 1054 997 1085.5 c 128,-1,20
 968 1117 968 1117 921.5 1131.5 c 128,-1,21
EndSplineSet
EndChar

StartChar: germandbls
Encoding: 223 223 180
Width: 1533
GlyphClass: 2
Flags: W
LayerCount: 2
Fore
SplineSet
708 201 m 1,0,1
 881 121 881 121 1055 121 c 0,2,3
 1227 121 1227 121 1258 270 c 0,4,5
 1268 319 1268 319 1268 374.5 c 128,-1,6
 1268 430 1268 430 1262 461.5 c 128,-1,7
 1256 493 1256 493 1235 515 c 0,8,9
 1199 553 1199 553 1078 581.5 c 128,-1,10
 957 610 957 610 890 635.5 c 128,-1,11
 823 661 823 661 784 692 c 0,12,13
 718 744 718 744 718 846 c 0,14,15
 718 965 718 965 870 1064 c 0,16,17
 954 1118 954 1118 974.5 1150 c 128,-1,18
 995 1182 995 1182 1002 1211 c 0,19,20
 1011 1248 1011 1248 1011 1332.5 c 128,-1,21
 1011 1417 1011 1417 1000 1459 c 128,-1,22
 989 1501 989 1501 958 1528 c 0,23,24
 896 1582 896 1582 761.5 1582 c 128,-1,25
 627 1582 627 1582 565 1555.5 c 128,-1,26
 503 1529 503 1529 471.5 1474 c 128,-1,27
 440 1419 440 1419 431 1334 c 128,-1,28
 422 1249 422 1249 422 1133 c 2,29,-1
 422 0 l 1,30,-1
 259 0 l 1,31,-1
 259 1120 l 2,32,33
 259 1340 259 1340 281.5 1429.5 c 128,-1,34
 304 1519 304 1519 336 1570 c 128,-1,35
 368 1621 368 1621 420 1656 c 0,36,37
 526 1725 526 1725 734 1725 c 0,38,39
 1004 1725 1004 1725 1100 1621 c 0,40,41
 1148 1569 1148 1569 1164.5 1491 c 128,-1,42
 1181 1413 1181 1413 1181 1328.5 c 128,-1,43
 1181 1244 1181 1244 1167 1193.5 c 128,-1,44
 1153 1143 1153 1143 1130 1104 c 0,45,46
 1079 1017 1079 1017 964 945 c 0,47,48
 908 910 908 910 895.5 892.5 c 128,-1,49
 883 875 883 875 883 855 c 128,-1,50
 883 835 883 835 890.5 820 c 128,-1,51
 898 805 898 805 913 794 c 0,52,53
 938 777 938 777 1025 753 c 2,54,-1
 1194 706 l 2,55,56
 1275 684 1275 684 1329 649.5 c 128,-1,57
 1383 615 1383 615 1410 555.5 c 128,-1,58
 1437 496 1437 496 1437 389 c 2,59,-1
 1437 377 l 2,60,61
 1437 45 1437 45 1190 -6 c 0,62,63
 1118 -20 1118 -20 1018 -20 c 0,64,65
 823 -20 823 -20 640 62 c 1,66,-1
 708 201 l 1,0,1
EndSplineSet
EndChar

StartChar: agrave
Encoding: 224 224 181
Width: 1364
GlyphClass: 2
Flags: W
LayerCount: 2
Fore
SplineSet
1134 422 m 2,0,1
 1134 223 1134 223 1153 8 c 1,2,-1
 1005 -4 l 1,3,-1
 980 135 l 1,4,5
 853 33 853 33 644 -7 c 0,6,7
 576 -20 576 -20 523 -20 c 128,-1,8
 470 -20 470 -20 429.5 -15 c 128,-1,9
 389 -10 389 -10 351.5 4.5 c 128,-1,10
 314 19 314 19 282 45 c 128,-1,11
 250 71 250 71 226 114 c 0,12,13
 175 205 175 205 175 332.5 c 128,-1,14
 175 460 175 460 193.5 530.5 c 128,-1,15
 212 601 212 601 255 648 c 0,16,17
 340 741 340 741 541 741 c 128,-1,18
 742 741 742 741 970 665 c 1,19,-1
 970 795 l 2,20,21
 970 1012 970 1012 791 1052 c 0,22,23
 733 1065 733 1065 658 1065 c 0,24,25
 487 1065 487 1065 303 997 c 1,26,-1
 266 1141 l 1,27,28
 317 1175 317 1175 526 1202 c 0,29,30
 592 1210 592 1210 684.5 1210 c 128,-1,31
 777 1210 777 1210 866 1188 c 128,-1,32
 955 1166 955 1166 1014 1116 c 1,33,34
 1134 1017 1134 1017 1134 795 c 2,35,-1
 1134 422 l 2,0,1
966 540 m 1,36,37
 732 599 732 599 534 599 c 0,38,39
 412 599 412 599 372 529 c 0,40,41
 345 480 345 480 345 384 c 128,-1,42
 345 288 345 288 355.5 245 c 128,-1,43
 366 202 366 202 390 174 c 0,44,45
 437 121 437 121 545 121 c 0,46,47
 714 121 714 121 880 208 c 0,48,49
 931 234 931 234 972 266 c 1,50,51
 966 374 966 374 966 540 c 1,36,37
423 1714 m 1,52,-1
 548 1839 l 1,53,-1
 873 1486 l 1,54,-1
 790 1399 l 1,55,-1
 423 1714 l 1,52,-1
EndSplineSet
EndChar

StartChar: aacute
Encoding: 225 225 182
Width: 1364
GlyphClass: 2
Flags: W
LayerCount: 2
Fore
SplineSet
1134 422 m 2,0,1
 1134 223 1134 223 1153 8 c 1,2,-1
 1005 -4 l 1,3,-1
 980 135 l 1,4,5
 853 33 853 33 644 -7 c 0,6,7
 576 -20 576 -20 523 -20 c 128,-1,8
 470 -20 470 -20 429.5 -15 c 128,-1,9
 389 -10 389 -10 351.5 4.5 c 128,-1,10
 314 19 314 19 282 45 c 128,-1,11
 250 71 250 71 226 114 c 0,12,13
 175 205 175 205 175 332.5 c 128,-1,14
 175 460 175 460 193.5 530.5 c 128,-1,15
 212 601 212 601 255 648 c 0,16,17
 340 741 340 741 541 741 c 128,-1,18
 742 741 742 741 970 665 c 1,19,-1
 970 795 l 2,20,21
 970 1012 970 1012 791 1052 c 0,22,23
 733 1065 733 1065 658 1065 c 0,24,25
 487 1065 487 1065 303 997 c 1,26,-1
 266 1141 l 1,27,28
 317 1175 317 1175 526 1202 c 0,29,30
 592 1210 592 1210 684.5 1210 c 128,-1,31
 777 1210 777 1210 866 1188 c 128,-1,32
 955 1166 955 1166 1014 1116 c 1,33,34
 1134 1017 1134 1017 1134 795 c 2,35,-1
 1134 422 l 2,0,1
966 540 m 1,36,37
 732 599 732 599 534 599 c 0,38,39
 412 599 412 599 372 529 c 0,40,41
 345 480 345 480 345 384 c 128,-1,42
 345 288 345 288 355.5 245 c 128,-1,43
 366 202 366 202 390 174 c 0,44,45
 437 121 437 121 545 121 c 0,46,47
 714 121 714 121 880 208 c 0,48,49
 931 234 931 234 972 266 c 1,50,51
 966 374 966 374 966 540 c 1,36,37
507 1486 m 1,52,-1
 830 1837 l 1,53,-1
 960 1716 l 1,54,-1
 590 1399 l 1,55,-1
 507 1486 l 1,52,-1
EndSplineSet
EndChar

StartChar: acircumflex
Encoding: 226 226 183
Width: 1364
GlyphClass: 2
Flags: W
LayerCount: 2
Fore
SplineSet
1134 422 m 2,0,1
 1134 223 1134 223 1153 8 c 1,2,-1
 1005 -4 l 1,3,-1
 980 135 l 1,4,5
 853 33 853 33 644 -7 c 0,6,7
 576 -20 576 -20 523 -20 c 128,-1,8
 470 -20 470 -20 429.5 -15 c 128,-1,9
 389 -10 389 -10 351.5 4.5 c 128,-1,10
 314 19 314 19 282 45 c 128,-1,11
 250 71 250 71 226 114 c 0,12,13
 175 205 175 205 175 332.5 c 128,-1,14
 175 460 175 460 193.5 530.5 c 128,-1,15
 212 601 212 601 255 648 c 0,16,17
 340 741 340 741 541 741 c 128,-1,18
 742 741 742 741 970 665 c 1,19,-1
 970 795 l 2,20,21
 970 1012 970 1012 791 1052 c 0,22,23
 733 1065 733 1065 658 1065 c 0,24,25
 487 1065 487 1065 303 997 c 1,26,-1
 266 1141 l 1,27,28
 317 1175 317 1175 526 1202 c 0,29,30
 592 1210 592 1210 684.5 1210 c 128,-1,31
 777 1210 777 1210 866 1188 c 128,-1,32
 955 1166 955 1166 1014 1116 c 1,33,34
 1134 1017 1134 1017 1134 795 c 2,35,-1
 1134 422 l 2,0,1
966 540 m 1,36,37
 732 599 732 599 534 599 c 0,38,39
 412 599 412 599 372 529 c 0,40,41
 345 480 345 480 345 384 c 128,-1,42
 345 288 345 288 355.5 245 c 128,-1,43
 366 202 366 202 390 174 c 0,44,45
 437 121 437 121 545 121 c 0,46,47
 714 121 714 121 880 208 c 0,48,49
 931 234 931 234 972 266 c 1,50,51
 966 374 966 374 966 540 c 1,36,37
324 1479 m 1,52,-1
 603 1830 l 1,53,-1
 724 1830 l 1,54,-1
 1012 1480 l 1,55,-1
 931 1400 l 1,56,-1
 665 1665 l 1,57,-1
 406 1400 l 1,58,-1
 324 1479 l 1,52,-1
EndSplineSet
EndChar

StartChar: atilde
Encoding: 227 227 184
Width: 1364
GlyphClass: 2
Flags: W
LayerCount: 2
Fore
SplineSet
1134 422 m 2,0,1
 1134 223 1134 223 1153 8 c 1,2,-1
 1005 -4 l 1,3,-1
 980 135 l 1,4,5
 853 33 853 33 644 -7 c 0,6,7
 576 -20 576 -20 523 -20 c 128,-1,8
 470 -20 470 -20 429.5 -15 c 128,-1,9
 389 -10 389 -10 351.5 4.5 c 128,-1,10
 314 19 314 19 282 45 c 128,-1,11
 250 71 250 71 226 114 c 0,12,13
 175 205 175 205 175 332.5 c 128,-1,14
 175 460 175 460 193.5 530.5 c 128,-1,15
 212 601 212 601 255 648 c 0,16,17
 340 741 340 741 541 741 c 128,-1,18
 742 741 742 741 970 665 c 1,19,-1
 970 795 l 2,20,21
 970 1012 970 1012 791 1052 c 0,22,23
 733 1065 733 1065 658 1065 c 0,24,25
 487 1065 487 1065 303 997 c 1,26,-1
 266 1141 l 1,27,28
 317 1175 317 1175 526 1202 c 0,29,30
 592 1210 592 1210 684.5 1210 c 128,-1,31
 777 1210 777 1210 866 1188 c 128,-1,32
 955 1166 955 1166 1014 1116 c 1,33,34
 1134 1017 1134 1017 1134 795 c 2,35,-1
 1134 422 l 2,0,1
966 540 m 1,36,37
 732 599 732 599 534 599 c 0,38,39
 412 599 412 599 372 529 c 0,40,41
 345 480 345 480 345 384 c 128,-1,42
 345 288 345 288 355.5 245 c 128,-1,43
 366 202 366 202 390 174 c 0,44,45
 437 121 437 121 545 121 c 0,46,47
 714 121 714 121 880 208 c 0,48,49
 931 234 931 234 972 266 c 1,50,51
 966 374 966 374 966 540 c 1,36,37
1052 1640 m 1,52,53
 953 1410 953 1410 786 1410 c 0,54,55
 738 1410 738 1410 653 1470 c 0,56,57
 622 1492 622 1492 591.5 1510.5 c 128,-1,58
 561 1529 561 1529 537 1529 c 128,-1,59
 513 1529 513 1529 492.5 1519 c 128,-1,60
 472 1509 472 1509 449 1493 c 128,-1,61
 426 1477 426 1477 402 1456 c 2,62,-1
 356 1416 l 1,63,-1
 285 1479 l 1,64,65
 341 1582 341 1582 411.5 1628.5 c 128,-1,66
 482 1675 482 1675 551 1675 c 2,67,-1
 564 1675 l 2,68,69
 619 1675 619 1675 700 1618 c 2,70,-1
 756 1579 l 2,71,72
 782 1561 782 1561 805 1561 c 128,-1,73
 828 1561 828 1561 848 1572.5 c 128,-1,74
 868 1584 868 1584 887.5 1603 c 128,-1,75
 907 1622 907 1622 926 1646 c 2,76,-1
 965 1696 l 1,77,-1
 1052 1640 l 1,52,53
EndSplineSet
EndChar

StartChar: adieresis
Encoding: 228 228 185
Width: 1364
GlyphClass: 2
Flags: W
LayerCount: 2
Fore
SplineSet
1134 422 m 2,0,1
 1134 223 1134 223 1153 8 c 1,2,-1
 1005 -4 l 1,3,-1
 980 135 l 1,4,5
 853 33 853 33 644 -7 c 0,6,7
 576 -20 576 -20 523 -20 c 128,-1,8
 470 -20 470 -20 429.5 -15 c 128,-1,9
 389 -10 389 -10 351.5 4.5 c 128,-1,10
 314 19 314 19 282 45 c 128,-1,11
 250 71 250 71 226 114 c 0,12,13
 175 205 175 205 175 332.5 c 128,-1,14
 175 460 175 460 193.5 530.5 c 128,-1,15
 212 601 212 601 255 648 c 0,16,17
 340 741 340 741 541 741 c 128,-1,18
 742 741 742 741 970 665 c 1,19,-1
 970 795 l 2,20,21
 970 1012 970 1012 791 1052 c 0,22,23
 733 1065 733 1065 658 1065 c 0,24,25
 487 1065 487 1065 303 997 c 1,26,-1
 266 1141 l 1,27,28
 317 1175 317 1175 526 1202 c 0,29,30
 592 1210 592 1210 684.5 1210 c 128,-1,31
 777 1210 777 1210 866 1188 c 128,-1,32
 955 1166 955 1166 1014 1116 c 1,33,34
 1134 1017 1134 1017 1134 795 c 2,35,-1
 1134 422 l 2,0,1
966 540 m 1,36,37
 732 599 732 599 534 599 c 0,38,39
 412 599 412 599 372 529 c 0,40,41
 345 480 345 480 345 384 c 128,-1,42
 345 288 345 288 355.5 245 c 128,-1,43
 366 202 366 202 390 174 c 0,44,45
 437 121 437 121 545 121 c 0,46,47
 714 121 714 121 880 208 c 0,48,49
 931 234 931 234 972 266 c 1,50,51
 966 374 966 374 966 540 c 1,36,37
897 1481 m 0,52,53
 834 1481 834 1481 816 1499 c 0,54,55
 788 1528 788 1528 788 1580 c 128,-1,56
 788 1632 788 1632 794 1654.5 c 128,-1,57
 800 1677 800 1677 812 1690 c 1,58,59
 835 1712 835 1712 881.5 1712 c 128,-1,60
 928 1712 928 1712 949 1707 c 128,-1,61
 970 1702 970 1702 982 1690 c 0,62,63
 1006 1666 1006 1666 1006 1614.5 c 128,-1,64
 1006 1563 1006 1563 1000.5 1540.5 c 128,-1,65
 995 1518 995 1518 982 1504 c 0,66,67
 961 1481 961 1481 897 1481 c 0,52,53
439 1481 m 256,68,69
 376 1481 376 1481 358 1499 c 0,70,71
 330 1528 330 1528 330 1580 c 128,-1,72
 330 1632 330 1632 336 1654.5 c 128,-1,73
 342 1677 342 1677 354 1690 c 1,74,75
 377 1712 377 1712 423.5 1712 c 128,-1,76
 470 1712 470 1712 490.5 1707 c 128,-1,77
 511 1702 511 1702 524 1690 c 1,78,79
 546 1667 546 1667 546 1615 c 128,-1,80
 546 1563 546 1563 541 1540.5 c 128,-1,81
 536 1518 536 1518 524 1504 c 1,82,83
 502 1481 502 1481 439 1481 c 256,68,69
EndSplineSet
EndChar

StartChar: aring
Encoding: 229 229 186
Width: 1364
GlyphClass: 2
Flags: W
LayerCount: 2
Fore
SplineSet
1134 422 m 2,0,1
 1134 223 1134 223 1153 8 c 1,2,-1
 1005 -4 l 1,3,-1
 980 135 l 1,4,5
 853 33 853 33 644 -7 c 0,6,7
 576 -20 576 -20 523 -20 c 128,-1,8
 470 -20 470 -20 429.5 -15 c 128,-1,9
 389 -10 389 -10 351.5 4.5 c 128,-1,10
 314 19 314 19 282 45 c 128,-1,11
 250 71 250 71 226 114 c 0,12,13
 175 205 175 205 175 332.5 c 128,-1,14
 175 460 175 460 193.5 530.5 c 128,-1,15
 212 601 212 601 255 648 c 0,16,17
 340 741 340 741 541 741 c 128,-1,18
 742 741 742 741 970 665 c 1,19,-1
 970 795 l 2,20,21
 970 1012 970 1012 791 1052 c 0,22,23
 733 1065 733 1065 658 1065 c 0,24,25
 487 1065 487 1065 303 997 c 1,26,-1
 266 1141 l 1,27,28
 317 1175 317 1175 526 1202 c 0,29,30
 592 1210 592 1210 684.5 1210 c 128,-1,31
 777 1210 777 1210 866 1188 c 128,-1,32
 955 1166 955 1166 1014 1116 c 1,33,34
 1134 1017 1134 1017 1134 795 c 2,35,-1
 1134 422 l 2,0,1
966 540 m 1,36,37
 732 599 732 599 534 599 c 0,38,39
 412 599 412 599 372 529 c 0,40,41
 345 480 345 480 345 384 c 128,-1,42
 345 288 345 288 355.5 245 c 128,-1,43
 366 202 366 202 390 174 c 0,44,45
 437 121 437 121 545 121 c 0,46,47
 714 121 714 121 880 208 c 0,48,49
 931 234 931 234 972 266 c 1,50,51
 966 374 966 374 966 540 c 1,36,37
698 1364 m 0,52,53
 529 1364 529 1364 473 1478 c 0,54,55
 453 1518 453 1518 453 1575.5 c 128,-1,56
 453 1633 453 1633 472.5 1674 c 128,-1,57
 492 1715 492 1715 525 1741 c 0,58,59
 587 1790 587 1790 698 1790 c 0,60,61
 868 1790 868 1790 923 1674 c 0,62,63
 943 1633 943 1633 943 1575.5 c 128,-1,64
 943 1518 943 1518 923.5 1478.5 c 128,-1,65
 904 1439 904 1439 871 1414 c 0,66,67
 807 1364 807 1364 698 1364 c 0,52,53
579 1575 m 0,68,69
 579 1472 579 1472 696 1472 c 128,-1,70
 813 1472 813 1472 813 1575 c 0,71,72
 813 1683 813 1683 696 1683 c 128,-1,73
 579 1683 579 1683 579 1575 c 0,68,69
EndSplineSet
EndChar

StartChar: ae
Encoding: 230 230 187
Width: 2215
GlyphClass: 2
Flags: W
LayerCount: 2
Fore
SplineSet
1980 63 m 1,0,1
 1772 -20 1772 -20 1523 -20 c 0,2,3
 1237 -20 1237 -20 1115 125 c 0,4,5
 1104 138 1104 138 1092 159 c 1,6,-1
 1033 120 l 2,7,8
 894 28 894 28 696 -8 c 0,9,10
 629 -20 629 -20 576 -20 c 128,-1,11
 523 -20 523 -20 482.5 -15 c 128,-1,12
 442 -10 442 -10 404.5 4.5 c 128,-1,13
 367 19 367 19 335 45 c 128,-1,14
 303 71 303 71 279 114 c 0,15,16
 228 205 228 205 228 365 c 0,17,18
 228 549 228 549 302 642 c 0,19,20
 386 749 386 749 583 749 c 128,-1,21
 780 749 780 749 1027 672 c 1,22,-1
 1025 795 l 1,23,24
 1025 1011 1025 1011 844 1052 c 0,25,26
 786 1065 786 1065 711 1065 c 0,27,28
 540 1065 540 1065 356 997 c 1,29,-1
 319 1141 l 1,30,31
 370 1175 370 1175 578 1202 c 0,32,33
 645 1210 645 1210 754 1210 c 128,-1,34
 863 1210 863 1210 966 1171 c 128,-1,35
 1069 1132 1069 1132 1122 1039 c 1,36,-1
 1122 1038 l 1,37,-1
 1123 1039 l 1,38,39
 1177 1135 1177 1135 1283.5 1172.5 c 128,-1,40
 1390 1210 1390 1210 1539 1210 c 128,-1,41
 1688 1210 1688 1210 1776 1175.5 c 128,-1,42
 1864 1141 1864 1141 1910.5 1076 c 128,-1,43
 1957 1011 1957 1011 1972 918.5 c 128,-1,44
 1987 826 1987 826 1987 742 c 0,45,46
 1987 609 1987 609 1981 537 c 1,47,48
 1840 531 1840 531 1730 531 c 2,49,-1
 1572 531 l 2,50,51
 1297 531 1297 531 1179 550 c 1,52,53
 1179 321 1179 321 1240 231 c 0,54,55
 1313 122 1313 122 1523.5 122 c 128,-1,56
 1734 122 1734 122 1931 206 c 1,57,-1
 1980 63 l 1,0,1
1818 672 m 1,58,-1
 1818 768 l 2,59,60
 1818 925 1818 925 1760 992 c 0,61,62
 1695 1067 1695 1067 1527 1067 c 0,63,64
 1326 1067 1326 1067 1252 980 c 1,65,66
 1179 896 1179 896 1179 672 c 1,67,-1
 1818 672 l 1,58,-1
408.5 246.5 m 128,-1,69
 419 205 419 205 443 180 c 0,70,71
 489 131 489 131 598 131 c 0,72,73
 779 131 779 131 954 212 c 0,74,75
 1008 238 1008 238 1049 270 c 1,76,77
 1028 369 1028 369 1024 550 c 1,78,79
 822 605 822 605 587 605 c 0,80,81
 465 605 465 605 426 532 c 0,82,83
 398 481 398 481 398 384.5 c 128,-1,68
 398 288 398 288 408.5 246.5 c 128,-1,69
EndSplineSet
EndChar

StartChar: ccedilla
Encoding: 231 231 188
Width: 1196
GlyphClass: 2
Flags: W
LayerCount: 2
Fore
SplineSet
528 -281 m 1,0,1
 575 -291 575 -291 614.5 -291 c 128,-1,2
 654 -291 654 -291 683.5 -270 c 128,-1,3
 713 -249 713 -249 713 -207 c 0,4,5
 713 -118 713 -118 624 -19 c 1,6,7
 441 -13 441 -13 348 55 c 0,8,9
 268 113 268 113 235 199 c 0,10,11
 198 296 198 296 192 408 c 128,-1,12
 186 520 186 520 186 597 c 128,-1,13
 186 674 186 674 190 747.5 c 128,-1,14
 194 821 194 821 209.5 889 c 128,-1,15
 225 957 225 957 257 1015.5 c 128,-1,16
 289 1074 289 1074 344 1118 c 1,17,18
 463 1210 463 1210 686 1210 c 0,19,20
 850 1210 850 1210 988 1162 c 0,21,22
 1025 1150 1025 1150 1044 1139 c 1,23,-1
 994 991 l 1,24,25
 802 1065 802 1065 679.5 1065 c 128,-1,26
 557 1065 557 1065 499.5 1037 c 128,-1,27
 442 1009 442 1009 410 952 c 0,28,29
 356 854 356 854 356 592 c 0,30,31
 356 487 356 487 363 400.5 c 128,-1,32
 370 314 370 314 398 252 c 0,33,34
 457 124 457 124 641.5 124 c 128,-1,35
 826 124 826 124 1000 188 c 1,36,-1
 1050 53 l 1,37,38
 941 -3 941 -3 761 -16 c 1,39,40
 853 -110 853 -110 853 -218 c 0,41,42
 853 -428 853 -428 637 -428 c 0,43,44
 550 -428 550 -428 503 -409 c 1,45,-1
 528 -281 l 1,0,1
EndSplineSet
EndChar

StartChar: egrave
Encoding: 232 232 189
Width: 1364
GlyphClass: 2
Flags: W
LayerCount: 2
Fore
SplineSet
1155 63 m 1,0,1
 948 -20 948 -20 698 -20 c 0,2,3
 553 -20 553 -20 452 10 c 1,4,5
 291 56 291 56 238 200 c 0,6,7
 189 335 189 335 189 600 c 2,8,-1
 189 651 l 2,9,10
 189 968 189 968 321 1096 c 1,11,12
 440 1210 440 1210 718 1210 c 0,13,14
 989 1210 989 1210 1088 1076 c 0,15,16
 1136 1011 1136 1011 1151.5 918.5 c 128,-1,17
 1167 826 1167 826 1167 742 c 0,18,19
 1167 611 1167 611 1161 539 c 1,20,21
 1020 533 1020 533 908 533 c 2,22,23
 908 533 908 533 747 533 c 0,24,25
 495 533 495 533 359 555 c 1,26,27
 359 325 359 325 417 234 c 0,28,29
 488 123 488 123 700 123 c 128,-1,30
 912 123 912 123 1106 206 c 1,31,-1
 1155 63 l 1,0,1
998 672 m 1,32,-1
 998 768 l 2,33,34
 998 925 998 925 937 992 c 0,35,36
 869 1067 869 1067 702 1067 c 0,37,38
 502 1067 502 1067 429 980 c 0,39,40
 359 897 359 897 359 672 c 1,41,-1
 998 672 l 1,32,-1
436 1714 m 1,42,-1
 561 1839 l 1,43,-1
 886 1486 l 1,44,-1
 803 1399 l 1,45,-1
 436 1714 l 1,42,-1
EndSplineSet
EndChar

StartChar: eacute
Encoding: 233 233 190
Width: 1364
GlyphClass: 2
Flags: W
LayerCount: 2
Fore
SplineSet
1155 63 m 1,0,1
 948 -20 948 -20 698 -20 c 0,2,3
 553 -20 553 -20 452 10 c 1,4,5
 291 56 291 56 238 200 c 0,6,7
 189 335 189 335 189 600 c 2,8,-1
 189 651 l 2,9,10
 189 968 189 968 321 1096 c 1,11,12
 440 1210 440 1210 718 1210 c 0,13,14
 989 1210 989 1210 1088 1076 c 0,15,16
 1136 1011 1136 1011 1151.5 918.5 c 128,-1,17
 1167 826 1167 826 1167 742 c 0,18,19
 1167 611 1167 611 1161 539 c 1,20,21
 1020 533 1020 533 908 533 c 2,22,23
 908 533 908 533 747 533 c 0,24,25
 495 533 495 533 359 555 c 1,26,27
 359 325 359 325 417 234 c 0,28,29
 488 123 488 123 700 123 c 128,-1,30
 912 123 912 123 1106 206 c 1,31,-1
 1155 63 l 1,0,1
998 672 m 1,32,-1
 998 768 l 2,33,34
 998 925 998 925 937 992 c 0,35,36
 869 1067 869 1067 702 1067 c 0,37,38
 502 1067 502 1067 429 980 c 0,39,40
 359 897 359 897 359 672 c 1,41,-1
 998 672 l 1,32,-1
512 1486 m 1,42,-1
 835 1837 l 1,43,-1
 965 1716 l 1,44,-1
 595 1399 l 1,45,-1
 512 1486 l 1,42,-1
EndSplineSet
EndChar

StartChar: ecircumflex
Encoding: 234 234 191
Width: 1364
GlyphClass: 2
Flags: W
LayerCount: 2
Fore
SplineSet
1155 63 m 1,0,1
 948 -20 948 -20 698 -20 c 0,2,3
 553 -20 553 -20 452 10 c 1,4,5
 291 56 291 56 238 200 c 0,6,7
 189 335 189 335 189 600 c 2,8,-1
 189 651 l 2,9,10
 189 968 189 968 321 1096 c 1,11,12
 440 1210 440 1210 718 1210 c 0,13,14
 989 1210 989 1210 1088 1076 c 0,15,16
 1136 1011 1136 1011 1151.5 918.5 c 128,-1,17
 1167 826 1167 826 1167 742 c 0,18,19
 1167 611 1167 611 1161 539 c 1,20,21
 1020 533 1020 533 908 533 c 2,22,23
 908 533 908 533 747 533 c 0,24,25
 495 533 495 533 359 555 c 1,26,27
 359 325 359 325 417 234 c 0,28,29
 488 123 488 123 700 123 c 128,-1,30
 912 123 912 123 1106 206 c 1,31,-1
 1155 63 l 1,0,1
998 672 m 1,32,-1
 998 768 l 2,33,34
 998 925 998 925 937 992 c 0,35,36
 869 1067 869 1067 702 1067 c 0,37,38
 502 1067 502 1067 429 980 c 0,39,40
 359 897 359 897 359 672 c 1,41,-1
 998 672 l 1,32,-1
349 1479 m 1,42,-1
 628 1830 l 1,43,-1
 749 1830 l 1,44,-1
 1037 1480 l 1,45,-1
 956 1400 l 1,46,-1
 690 1665 l 1,47,-1
 431 1400 l 1,48,-1
 349 1479 l 1,42,-1
EndSplineSet
EndChar

StartChar: edieresis
Encoding: 235 235 192
Width: 1364
GlyphClass: 2
Flags: W
LayerCount: 2
Fore
SplineSet
1155 63 m 1,0,1
 948 -20 948 -20 698 -20 c 0,2,3
 553 -20 553 -20 452 10 c 1,4,5
 291 56 291 56 238 200 c 0,6,7
 189 335 189 335 189 600 c 2,8,-1
 189 651 l 2,9,10
 189 968 189 968 321 1096 c 1,11,12
 440 1210 440 1210 718 1210 c 0,13,14
 989 1210 989 1210 1088 1076 c 0,15,16
 1136 1011 1136 1011 1151.5 918.5 c 128,-1,17
 1167 826 1167 826 1167 742 c 0,18,19
 1167 611 1167 611 1161 539 c 1,20,21
 1020 533 1020 533 908 533 c 2,22,23
 908 533 908 533 747 533 c 0,24,25
 495 533 495 533 359 555 c 1,26,27
 359 325 359 325 417 234 c 0,28,29
 488 123 488 123 700 123 c 128,-1,30
 912 123 912 123 1106 206 c 1,31,-1
 1155 63 l 1,0,1
998 672 m 1,32,-1
 998 768 l 2,33,34
 998 925 998 925 937 992 c 0,35,36
 869 1067 869 1067 702 1067 c 0,37,38
 502 1067 502 1067 429 980 c 0,39,40
 359 897 359 897 359 672 c 1,41,-1
 998 672 l 1,32,-1
909 1481 m 0,42,43
 846 1481 846 1481 828 1499 c 0,44,45
 800 1528 800 1528 800 1580 c 128,-1,46
 800 1632 800 1632 806 1654.5 c 128,-1,47
 812 1677 812 1677 824 1690 c 1,48,49
 847 1712 847 1712 893.5 1712 c 128,-1,50
 940 1712 940 1712 961 1707 c 128,-1,51
 982 1702 982 1702 994 1690 c 0,52,53
 1018 1666 1018 1666 1018 1614.5 c 128,-1,54
 1018 1563 1018 1563 1012.5 1540.5 c 128,-1,55
 1007 1518 1007 1518 994 1504 c 0,56,57
 973 1481 973 1481 909 1481 c 0,42,43
451 1481 m 256,58,59
 388 1481 388 1481 370 1499 c 0,60,61
 342 1528 342 1528 342 1580 c 128,-1,62
 342 1632 342 1632 348 1654.5 c 128,-1,63
 354 1677 354 1677 366 1690 c 1,64,65
 389 1712 389 1712 435.5 1712 c 128,-1,66
 482 1712 482 1712 502.5 1707 c 128,-1,67
 523 1702 523 1702 536 1690 c 1,68,69
 558 1667 558 1667 558 1615 c 128,-1,70
 558 1563 558 1563 553 1540.5 c 128,-1,71
 548 1518 548 1518 536 1504 c 1,72,73
 514 1481 514 1481 451 1481 c 256,58,59
EndSplineSet
EndChar

StartChar: igrave
Encoding: 236 236 193
Width: 683
GlyphClass: 2
Flags: W
LayerCount: 2
Fore
SplineSet
261 1188 m 1,0,-1
 425 1188 l 1,1,-1
 425 0 l 1,2,-1
 263 0 l 1,3,-1
 261 1188 l 1,0,-1
39 1714 m 1,4,-1
 164 1839 l 1,5,-1
 489 1486 l 1,6,-1
 406 1399 l 1,7,-1
 39 1714 l 1,4,-1
EndSplineSet
EndChar

StartChar: iacute
Encoding: 237 237 194
Width: 683
GlyphClass: 2
Flags: W
LayerCount: 2
Fore
SplineSet
261 1188 m 1,0,-1
 425 1188 l 1,1,-1
 425 0 l 1,2,-1
 263 0 l 1,3,-1
 261 1188 l 1,0,-1
205 1486 m 1,4,-1
 528 1837 l 1,5,-1
 658 1716 l 1,6,-1
 288 1399 l 1,7,-1
 205 1486 l 1,4,-1
EndSplineSet
EndChar

StartChar: icircumflex
Encoding: 238 238 195
Width: 683
GlyphClass: 2
Flags: W
LayerCount: 2
Fore
SplineSet
261 1188 m 1,0,-1
 425 1188 l 1,1,-1
 425 0 l 1,2,-1
 263 0 l 1,3,-1
 261 1188 l 1,0,-1
0 1479 m 1,4,-1
 279 1830 l 1,5,-1
 400 1830 l 1,6,-1
 688 1480 l 1,7,-1
 607 1400 l 1,8,-1
 341 1665 l 1,9,-1
 82 1400 l 1,10,-1
 0 1479 l 1,4,-1
EndSplineSet
EndChar

StartChar: idieresis
Encoding: 239 239 196
Width: 683
GlyphClass: 2
Flags: W
LayerCount: 2
Fore
SplineSet
261 1188 m 1,0,-1
 425 1188 l 1,1,-1
 425 0 l 1,2,-1
 263 0 l 1,3,-1
 261 1188 l 1,0,-1
573 1481 m 0,4,5
 510 1481 510 1481 492 1499 c 0,6,7
 464 1528 464 1528 464 1580 c 128,-1,8
 464 1632 464 1632 470 1654.5 c 128,-1,9
 476 1677 476 1677 488 1690 c 1,10,11
 511 1712 511 1712 557.5 1712 c 128,-1,12
 604 1712 604 1712 625 1707 c 128,-1,13
 646 1702 646 1702 658 1690 c 0,14,15
 682 1666 682 1666 682 1614.5 c 128,-1,16
 682 1563 682 1563 676.5 1540.5 c 128,-1,17
 671 1518 671 1518 658 1504 c 0,18,19
 637 1481 637 1481 573 1481 c 0,4,5
115 1481 m 256,20,21
 52 1481 52 1481 34 1499 c 0,22,23
 6 1528 6 1528 6 1580 c 128,-1,24
 6 1632 6 1632 12 1654.5 c 128,-1,25
 18 1677 18 1677 30 1690 c 1,26,27
 53 1712 53 1712 99.5 1712 c 128,-1,28
 146 1712 146 1712 166.5 1707 c 128,-1,29
 187 1702 187 1702 200 1690 c 1,30,31
 222 1667 222 1667 222 1615 c 128,-1,32
 222 1563 222 1563 217 1540.5 c 128,-1,33
 212 1518 212 1518 200 1504 c 1,34,35
 178 1481 178 1481 115 1481 c 256,20,21
EndSplineSet
EndChar

StartChar: eth
Encoding: 240 240 197
Width: 1366
GlyphClass: 2
Flags: W
LayerCount: 2
Fore
SplineSet
1202 453 m 2,0,1
 1202 -20 1202 -20 635 -20 c 0,2,3
 349 -20 349 -20 249 134 c 0,4,5
 192 221 192 221 182 336 c 0,6,7
 178 391 178 391 178 443 c 2,8,-1
 178 627 l 2,9,10
 178 730 178 730 192 810 c 128,-1,11
 206 890 206 890 250 944 c 0,12,13
 338 1055 338 1055 592 1055 c 0,14,15
 771 1055 771 1055 947 986 c 0,16,17
 998 966 998 966 1037 944 c 1,18,19
 1037 955 1037 955 1036 971 c 2,20,-1
 1034 1004 l 2,21,22
 1019 1244 1019 1244 807 1418 c 1,23,-1
 624 1239 l 1,24,-1
 527 1337 l 1,25,-1
 703 1493 l 1,26,27
 591 1565 591 1565 438 1633 c 1,28,-1
 509 1758 l 1,29,30
 690 1671 690 1671 802 1597 c 1,31,-1
 974 1779 l 1,32,-1
 1069 1672 l 1,33,-1
 910 1518 l 1,34,35
 1094 1367 1094 1367 1156 1179 c 0,36,37
 1202 1042 1202 1042 1202 791 c 2,38,-1
 1202 453 l 2,0,1
1031 813 m 1,39,40
 837 907 837 907 606 907 c 0,41,42
 502 907 502 907 465 892 c 128,-1,43
 428 877 428 877 407.5 855.5 c 128,-1,44
 387 834 387 834 374 798 c 0,45,46
 349 729 349 729 349 585 c 2,47,-1
 349 443 l 2,48,49
 349 269 349 269 400 204 c 0,50,51
 457 130 457 130 620 130 c 2,52,-1
 674 130 l 2,53,54
 886 130 886 130 965 226 c 0,55,56
 1031 307 1031 307 1031 503 c 2,57,-1
 1031 813 l 1,39,40
EndSplineSet
EndChar

StartChar: ntilde
Encoding: 241 241 198
Width: 1364
GlyphClass: 2
Flags: W
LayerCount: 2
Fore
SplineSet
786 1054 m 0,0,1
 591 1054 591 1054 389 939 c 1,2,-1
 389 0 l 1,3,-1
 223 0 l 1,4,-1
 223 1190 l 1,5,-1
 369 1190 l 1,6,-1
 385 1067 l 1,7,8
 494 1156 494 1156 656 1194 c 0,9,10
 722 1210 722 1210 811 1210 c 128,-1,11
 900 1210 900 1210 968 1189.5 c 128,-1,12
 1036 1169 1036 1169 1076 1124 c 0,13,14
 1149 1043 1149 1043 1149 829 c 2,15,-1
 1149 0 l 1,16,-1
 981 0 l 1,17,-1
 981 798 l 2,18,19
 981 942 981 942 953 983.5 c 128,-1,20
 925 1025 925 1025 886.5 1039.5 c 128,-1,21
 848 1054 848 1054 786 1054 c 0,0,1
1078 1640 m 1,22,23
 979 1410 979 1410 812 1410 c 0,24,25
 764 1410 764 1410 679 1470 c 0,26,27
 648 1492 648 1492 617.5 1510.5 c 128,-1,28
 587 1529 587 1529 563 1529 c 128,-1,29
 539 1529 539 1529 518.5 1519 c 128,-1,30
 498 1509 498 1509 475 1493 c 128,-1,31
 452 1477 452 1477 428 1456 c 2,32,-1
 382 1416 l 1,33,-1
 311 1479 l 1,34,35
 367 1582 367 1582 437.5 1628.5 c 128,-1,36
 508 1675 508 1675 577 1675 c 2,37,-1
 590 1675 l 2,38,39
 645 1675 645 1675 726 1618 c 2,40,-1
 782 1579 l 2,41,42
 808 1561 808 1561 831 1561 c 128,-1,43
 854 1561 854 1561 874 1572.5 c 128,-1,44
 894 1584 894 1584 913.5 1603 c 128,-1,45
 933 1622 933 1622 952 1646 c 2,46,-1
 991 1696 l 1,47,-1
 1078 1640 l 1,22,23
EndSplineSet
EndChar

StartChar: ograve
Encoding: 242 242 199
Width: 1363
GlyphClass: 2
Flags: W
LayerCount: 2
Fore
SplineSet
188 592 m 0,0,1
 188 819 188 819 211 909 c 128,-1,2
 234 999 234 999 267.5 1051.5 c 128,-1,3
 301 1104 301 1104 358 1139 c 0,4,5
 472 1210 472 1210 695 1210 c 0,6,7
 1017 1210 1017 1210 1109 1051 c 0,8,9
 1164 955 1164 955 1172 780 c 0,10,11
 1175 697 1175 697 1175 597 c 128,-1,12
 1175 497 1175 497 1168.5 410.5 c 128,-1,13
 1162 324 1162 324 1143 255 c 128,-1,14
 1124 186 1124 186 1090 134.5 c 128,-1,15
 1056 83 1056 83 1000 48 c 0,16,17
 890 -20 890 -20 679 -20 c 0,18,19
 363 -20 363 -20 264 136 c 0,20,21
 203 233 203 233 193 408 c 0,22,23
 188 492 188 492 188 592 c 0,0,1
550.5 134.5 m 128,-1,25
 605 121 605 121 699.5 121 c 128,-1,26
 794 121 794 121 858.5 148 c 128,-1,27
 923 175 923 175 955.5 234.5 c 128,-1,28
 988 294 988 294 996.5 389 c 128,-1,29
 1005 484 1005 484 1005 610 c 128,-1,30
 1005 736 1005 736 997.5 820 c 128,-1,31
 990 904 990 904 960 959 c 0,32,33
 900 1067 900 1067 693 1067 c 0,34,35
 474 1067 474 1067 408 959 c 0,36,37
 375 904 375 904 366 819 c 128,-1,38
 357 734 357 734 357 634 c 128,-1,39
 357 534 357 534 359.5 464.5 c 128,-1,40
 362 395 362 395 372.5 339.5 c 128,-1,41
 383 284 383 284 403.5 243 c 128,-1,42
 424 202 424 202 460 175 c 128,-1,24
 496 148 496 148 550.5 134.5 c 128,-1,25
399 1714 m 1,43,-1
 524 1839 l 1,44,-1
 849 1486 l 1,45,-1
 766 1399 l 1,46,-1
 399 1714 l 1,43,-1
EndSplineSet
EndChar

StartChar: oacute
Encoding: 243 243 200
Width: 1363
GlyphClass: 2
Flags: W
LayerCount: 2
Fore
SplineSet
188 592 m 0,0,1
 188 819 188 819 211 909 c 128,-1,2
 234 999 234 999 267.5 1051.5 c 128,-1,3
 301 1104 301 1104 358 1139 c 0,4,5
 472 1210 472 1210 695 1210 c 0,6,7
 1017 1210 1017 1210 1109 1051 c 0,8,9
 1164 955 1164 955 1172 780 c 0,10,11
 1175 697 1175 697 1175 597 c 128,-1,12
 1175 497 1175 497 1168.5 410.5 c 128,-1,13
 1162 324 1162 324 1143 255 c 128,-1,14
 1124 186 1124 186 1090 134.5 c 128,-1,15
 1056 83 1056 83 1000 48 c 0,16,17
 890 -20 890 -20 679 -20 c 0,18,19
 363 -20 363 -20 264 136 c 0,20,21
 203 233 203 233 193 408 c 0,22,23
 188 492 188 492 188 592 c 0,0,1
550.5 134.5 m 128,-1,25
 605 121 605 121 699.5 121 c 128,-1,26
 794 121 794 121 858.5 148 c 128,-1,27
 923 175 923 175 955.5 234.5 c 128,-1,28
 988 294 988 294 996.5 389 c 128,-1,29
 1005 484 1005 484 1005 610 c 128,-1,30
 1005 736 1005 736 997.5 820 c 128,-1,31
 990 904 990 904 960 959 c 0,32,33
 900 1067 900 1067 693 1067 c 0,34,35
 474 1067 474 1067 408 959 c 0,36,37
 375 904 375 904 366 819 c 128,-1,38
 357 734 357 734 357 634 c 128,-1,39
 357 534 357 534 359.5 464.5 c 128,-1,40
 362 395 362 395 372.5 339.5 c 128,-1,41
 383 284 383 284 403.5 243 c 128,-1,42
 424 202 424 202 460 175 c 128,-1,24
 496 148 496 148 550.5 134.5 c 128,-1,25
543 1486 m 1,43,-1
 866 1837 l 1,44,-1
 996 1716 l 1,45,-1
 626 1399 l 1,46,-1
 543 1486 l 1,43,-1
EndSplineSet
EndChar

StartChar: ocircumflex
Encoding: 244 244 201
Width: 1363
GlyphClass: 2
Flags: W
LayerCount: 2
Fore
SplineSet
188 592 m 0,0,1
 188 819 188 819 211 909 c 128,-1,2
 234 999 234 999 267.5 1051.5 c 128,-1,3
 301 1104 301 1104 358 1139 c 0,4,5
 472 1210 472 1210 695 1210 c 0,6,7
 1017 1210 1017 1210 1109 1051 c 0,8,9
 1164 955 1164 955 1172 780 c 0,10,11
 1175 697 1175 697 1175 597 c 128,-1,12
 1175 497 1175 497 1168.5 410.5 c 128,-1,13
 1162 324 1162 324 1143 255 c 128,-1,14
 1124 186 1124 186 1090 134.5 c 128,-1,15
 1056 83 1056 83 1000 48 c 0,16,17
 890 -20 890 -20 679 -20 c 0,18,19
 363 -20 363 -20 264 136 c 0,20,21
 203 233 203 233 193 408 c 0,22,23
 188 492 188 492 188 592 c 0,0,1
550.5 134.5 m 128,-1,25
 605 121 605 121 699.5 121 c 128,-1,26
 794 121 794 121 858.5 148 c 128,-1,27
 923 175 923 175 955.5 234.5 c 128,-1,28
 988 294 988 294 996.5 389 c 128,-1,29
 1005 484 1005 484 1005 610 c 128,-1,30
 1005 736 1005 736 997.5 820 c 128,-1,31
 990 904 990 904 960 959 c 0,32,33
 900 1067 900 1067 693 1067 c 0,34,35
 474 1067 474 1067 408 959 c 0,36,37
 375 904 375 904 366 819 c 128,-1,38
 357 734 357 734 357 634 c 128,-1,39
 357 534 357 534 359.5 464.5 c 128,-1,40
 362 395 362 395 372.5 339.5 c 128,-1,41
 383 284 383 284 403.5 243 c 128,-1,42
 424 202 424 202 460 175 c 128,-1,24
 496 148 496 148 550.5 134.5 c 128,-1,25
350 1479 m 1,43,-1
 629 1830 l 1,44,-1
 750 1830 l 1,45,-1
 1038 1480 l 1,46,-1
 957 1400 l 1,47,-1
 691 1665 l 1,48,-1
 432 1400 l 1,49,-1
 350 1479 l 1,43,-1
EndSplineSet
EndChar

StartChar: otilde
Encoding: 245 245 202
Width: 1363
GlyphClass: 2
Flags: W
LayerCount: 2
Fore
SplineSet
188 592 m 0,0,1
 188 819 188 819 211 909 c 128,-1,2
 234 999 234 999 267.5 1051.5 c 128,-1,3
 301 1104 301 1104 358 1139 c 0,4,5
 472 1210 472 1210 695 1210 c 0,6,7
 1017 1210 1017 1210 1109 1051 c 0,8,9
 1164 955 1164 955 1172 780 c 0,10,11
 1175 697 1175 697 1175 597 c 128,-1,12
 1175 497 1175 497 1168.5 410.5 c 128,-1,13
 1162 324 1162 324 1143 255 c 128,-1,14
 1124 186 1124 186 1090 134.5 c 128,-1,15
 1056 83 1056 83 1000 48 c 0,16,17
 890 -20 890 -20 679 -20 c 0,18,19
 363 -20 363 -20 264 136 c 0,20,21
 203 233 203 233 193 408 c 0,22,23
 188 492 188 492 188 592 c 0,0,1
550.5 134.5 m 128,-1,25
 605 121 605 121 699.5 121 c 128,-1,26
 794 121 794 121 858.5 148 c 128,-1,27
 923 175 923 175 955.5 234.5 c 128,-1,28
 988 294 988 294 996.5 389 c 128,-1,29
 1005 484 1005 484 1005 610 c 128,-1,30
 1005 736 1005 736 997.5 820 c 128,-1,31
 990 904 990 904 960 959 c 0,32,33
 900 1067 900 1067 693 1067 c 0,34,35
 474 1067 474 1067 408 959 c 0,36,37
 375 904 375 904 366 819 c 128,-1,38
 357 734 357 734 357 634 c 128,-1,39
 357 534 357 534 359.5 464.5 c 128,-1,40
 362 395 362 395 372.5 339.5 c 128,-1,41
 383 284 383 284 403.5 243 c 128,-1,42
 424 202 424 202 460 175 c 128,-1,24
 496 148 496 148 550.5 134.5 c 128,-1,25
1069 1640 m 1,43,44
 970 1410 970 1410 803 1410 c 0,45,46
 755 1410 755 1410 670 1470 c 0,47,48
 639 1492 639 1492 608.5 1510.5 c 128,-1,49
 578 1529 578 1529 554 1529 c 128,-1,50
 530 1529 530 1529 509.5 1519 c 128,-1,51
 489 1509 489 1509 466 1493 c 128,-1,52
 443 1477 443 1477 419 1456 c 2,53,-1
 373 1416 l 1,54,-1
 302 1479 l 1,55,56
 358 1582 358 1582 428.5 1628.5 c 128,-1,57
 499 1675 499 1675 568 1675 c 2,58,-1
 581 1675 l 2,59,60
 636 1675 636 1675 717 1618 c 2,61,-1
 773 1579 l 2,62,63
 799 1561 799 1561 822 1561 c 128,-1,64
 845 1561 845 1561 865 1572.5 c 128,-1,65
 885 1584 885 1584 904.5 1603 c 128,-1,66
 924 1622 924 1622 943 1646 c 2,67,-1
 982 1696 l 1,68,-1
 1069 1640 l 1,43,44
EndSplineSet
EndChar

StartChar: odieresis
Encoding: 246 246 203
Width: 1363
GlyphClass: 2
Flags: W
LayerCount: 2
Fore
SplineSet
188 592 m 0,0,1
 188 819 188 819 211 909 c 128,-1,2
 234 999 234 999 267.5 1051.5 c 128,-1,3
 301 1104 301 1104 358 1139 c 0,4,5
 472 1210 472 1210 695 1210 c 0,6,7
 1017 1210 1017 1210 1109 1051 c 0,8,9
 1164 955 1164 955 1172 780 c 0,10,11
 1175 697 1175 697 1175 597 c 128,-1,12
 1175 497 1175 497 1168.5 410.5 c 128,-1,13
 1162 324 1162 324 1143 255 c 128,-1,14
 1124 186 1124 186 1090 134.5 c 128,-1,15
 1056 83 1056 83 1000 48 c 0,16,17
 890 -20 890 -20 679 -20 c 0,18,19
 363 -20 363 -20 264 136 c 0,20,21
 203 233 203 233 193 408 c 0,22,23
 188 492 188 492 188 592 c 0,0,1
550.5 134.5 m 128,-1,25
 605 121 605 121 699.5 121 c 128,-1,26
 794 121 794 121 858.5 148 c 128,-1,27
 923 175 923 175 955.5 234.5 c 128,-1,28
 988 294 988 294 996.5 389 c 128,-1,29
 1005 484 1005 484 1005 610 c 128,-1,30
 1005 736 1005 736 997.5 820 c 128,-1,31
 990 904 990 904 960 959 c 0,32,33
 900 1067 900 1067 693 1067 c 0,34,35
 474 1067 474 1067 408 959 c 0,36,37
 375 904 375 904 366 819 c 128,-1,38
 357 734 357 734 357 634 c 128,-1,39
 357 534 357 534 359.5 464.5 c 128,-1,40
 362 395 362 395 372.5 339.5 c 128,-1,41
 383 284 383 284 403.5 243 c 128,-1,42
 424 202 424 202 460 175 c 128,-1,24
 496 148 496 148 550.5 134.5 c 128,-1,25
912 1481 m 0,43,44
 849 1481 849 1481 831 1499 c 0,45,46
 803 1528 803 1528 803 1580 c 128,-1,47
 803 1632 803 1632 809 1654.5 c 128,-1,48
 815 1677 815 1677 827 1690 c 1,49,50
 850 1712 850 1712 896.5 1712 c 128,-1,51
 943 1712 943 1712 964 1707 c 128,-1,52
 985 1702 985 1702 997 1690 c 0,53,54
 1021 1666 1021 1666 1021 1614.5 c 128,-1,55
 1021 1563 1021 1563 1015.5 1540.5 c 128,-1,56
 1010 1518 1010 1518 997 1504 c 0,57,58
 976 1481 976 1481 912 1481 c 0,43,44
454 1481 m 256,59,60
 391 1481 391 1481 373 1499 c 0,61,62
 345 1528 345 1528 345 1580 c 128,-1,63
 345 1632 345 1632 351 1654.5 c 128,-1,64
 357 1677 357 1677 369 1690 c 1,65,66
 392 1712 392 1712 438.5 1712 c 128,-1,67
 485 1712 485 1712 505.5 1707 c 128,-1,68
 526 1702 526 1702 539 1690 c 1,69,70
 561 1667 561 1667 561 1615 c 128,-1,71
 561 1563 561 1563 556 1540.5 c 128,-1,72
 551 1518 551 1518 539 1504 c 1,73,74
 517 1481 517 1481 454 1481 c 256,59,60
EndSplineSet
EndChar

StartChar: divide
Encoding: 247 247 204
Width: 1195
GlyphClass: 2
Flags: W
LayerCount: 2
Fore
SplineSet
595 962 m 0,0,1
 531 962 531 962 512 981 c 0,2,3
 484 1010 484 1010 484 1066.5 c 128,-1,4
 484 1123 484 1123 489.5 1146.5 c 128,-1,5
 495 1170 495 1170 508 1184 c 0,6,7
 532 1208 532 1208 580 1208 c 128,-1,8
 628 1208 628 1208 649 1202.5 c 128,-1,9
 670 1197 670 1197 682 1184 c 0,10,11
 705 1159 705 1159 705 1086 c 0,12,13
 705 1012 705 1012 688 993 c 0,14,15
 660 962 660 962 595 962 c 0,0,1
107 707 m 1,16,-1
 1088 707 l 1,17,-1
 1088 574 l 1,18,-1
 107 574 l 1,19,-1
 107 707 l 1,16,-1
489 140 m 128,-1,21
 484 164 484 164 484 201 c 128,-1,22
 484 238 484 238 489.5 261.5 c 128,-1,23
 495 285 495 285 508 298 c 0,24,25
 532 323 532 323 580 323 c 128,-1,26
 628 323 628 323 649 317.5 c 128,-1,27
 670 312 670 312 682 298 c 1,28,29
 705 274 705 274 705 219.5 c 128,-1,30
 705 165 705 165 700 141 c 128,-1,31
 695 117 695 117 682 102 c 0,32,33
 661 77 661 77 595 77 c 0,34,35
 530 77 530 77 512 96.5 c 128,-1,20
 494 116 494 116 489 140 c 128,-1,21
EndSplineSet
EndChar

StartChar: oslash
Encoding: 248 248 205
Width: 1363
GlyphClass: 2
Flags: W
LayerCount: 2
Fore
SplineSet
496.5 1192 m 128,-1,1
 579 1210 579 1210 667.5 1210 c 128,-1,2
 756 1210 756 1210 824 1203 c 1,3,-1
 925 1507 l 1,4,-1
 1058 1481 l 1,5,-1
 949 1175 l 1,6,7
 1098 1122 1098 1122 1143 971 c 0,8,9
 1175 865 1175 865 1175 600 c 0,10,11
 1175 371 1175 371 1149.5 278.5 c 128,-1,12
 1124 186 1124 186 1090 134.5 c 128,-1,13
 1056 83 1056 83 1000 48 c 0,14,15
 890 -20 890 -20 679 -20 c 0,16,17
 601 -20 601 -20 540 -11 c 1,18,-1
 433 -334 l 1,19,-1
 303 -310 l 1,20,-1
 418 17 l 1,21,22
 274 70 274 70 226 220 c 1,23,24
 188 335 188 335 188 592 c 0,25,26
 188 819 188 819 211 909 c 128,-1,27
 234 999 234 999 267.5 1051.5 c 128,-1,28
 301 1104 301 1104 357.5 1139 c 128,-1,0
 414 1174 414 1174 496.5 1192 c 128,-1,1
778 1062 m 1,29,30
 728 1067 728 1067 652 1067 c 128,-1,31
 576 1067 576 1067 509 1040.5 c 128,-1,32
 442 1014 442 1014 408.5 959 c 128,-1,33
 375 904 375 904 366 819 c 128,-1,34
 357 734 357 734 357 632.5 c 128,-1,35
 357 531 357 531 360 459.5 c 128,-1,36
 363 388 363 388 374 332 c 0,37,38
 397 215 397 215 471 167 c 1,39,-1
 631 619 l 1,40,-1
 778 1062 l 1,29,30
586 127 m 1,41,42
 628 121 628 121 711 121 c 128,-1,43
 794 121 794 121 858.5 148 c 128,-1,44
 923 175 923 175 955.5 234.5 c 128,-1,45
 988 294 988 294 996.5 389 c 128,-1,46
 1005 484 1005 484 1005 592 c 128,-1,47
 1005 700 1005 700 1002 764.5 c 128,-1,48
 999 829 999 829 988 879 c 0,49,50
 965 982 965 982 895 1025 c 1,51,-1
 738 585 l 1,52,-1
 586 127 l 1,41,42
EndSplineSet
EndChar

StartChar: ugrave
Encoding: 249 249 206
Width: 1364
GlyphClass: 2
Flags: W
LayerCount: 2
Fore
SplineSet
1123 524 m 2,0,1
 1123 194 1123 194 1142 8 c 1,2,-1
 993 -4 l 1,3,-1
 969 137 l 1,4,5
 852 40 852 40 696 -3 c 0,6,7
 634 -20 634 -20 548.5 -20 c 128,-1,8
 463 -20 463 -20 395.5 0.5 c 128,-1,9
 328 21 328 21 288 66 c 0,10,11
 215 147 215 147 215 361 c 2,12,-1
 215 1190 l 1,13,-1
 383 1190 l 1,14,-1
 383 388 l 2,15,16
 383 244 383 244 411 202.5 c 128,-1,17
 439 161 439 161 477.5 146.5 c 128,-1,18
 516 132 516 132 569 132 c 128,-1,19
 622 132 622 132 671.5 140.5 c 128,-1,20
 721 149 721 149 771 165 c 0,21,22
 876 199 876 199 961 258 c 1,23,-1
 961 259 l 1,24,25
 957 335 957 335 957 555 c 2,26,-1
 957 1190 l 1,27,-1
 1123 1190 l 1,28,-1
 1123 524 l 2,0,1
391 1714 m 1,29,-1
 516 1839 l 1,30,-1
 841 1486 l 1,31,-1
 758 1399 l 1,32,-1
 391 1714 l 1,29,-1
EndSplineSet
EndChar

StartChar: uacute
Encoding: 250 250 207
Width: 1364
GlyphClass: 2
Flags: W
LayerCount: 2
Fore
SplineSet
1123 524 m 2,0,1
 1123 194 1123 194 1142 8 c 1,2,-1
 993 -4 l 1,3,-1
 969 137 l 1,4,5
 852 40 852 40 696 -3 c 0,6,7
 634 -20 634 -20 548.5 -20 c 128,-1,8
 463 -20 463 -20 395.5 0.5 c 128,-1,9
 328 21 328 21 288 66 c 0,10,11
 215 147 215 147 215 361 c 2,12,-1
 215 1190 l 1,13,-1
 383 1190 l 1,14,-1
 383 388 l 2,15,16
 383 244 383 244 411 202.5 c 128,-1,17
 439 161 439 161 477.5 146.5 c 128,-1,18
 516 132 516 132 569 132 c 128,-1,19
 622 132 622 132 671.5 140.5 c 128,-1,20
 721 149 721 149 771 165 c 0,21,22
 876 199 876 199 961 258 c 1,23,-1
 961 259 l 1,24,25
 957 335 957 335 957 555 c 2,26,-1
 957 1190 l 1,27,-1
 1123 1190 l 1,28,-1
 1123 524 l 2,0,1
512 1486 m 1,29,-1
 835 1837 l 1,30,-1
 965 1716 l 1,31,-1
 595 1399 l 1,32,-1
 512 1486 l 1,29,-1
EndSplineSet
EndChar

StartChar: ucircumflex
Encoding: 251 251 208
Width: 1364
GlyphClass: 2
Flags: W
LayerCount: 2
Fore
SplineSet
1123 524 m 2,0,1
 1123 194 1123 194 1142 8 c 1,2,-1
 993 -4 l 1,3,-1
 969 137 l 1,4,5
 852 40 852 40 696 -3 c 0,6,7
 634 -20 634 -20 548.5 -20 c 128,-1,8
 463 -20 463 -20 395.5 0.5 c 128,-1,9
 328 21 328 21 288 66 c 0,10,11
 215 147 215 147 215 361 c 2,12,-1
 215 1190 l 1,13,-1
 383 1190 l 1,14,-1
 383 388 l 2,15,16
 383 244 383 244 411 202.5 c 128,-1,17
 439 161 439 161 477.5 146.5 c 128,-1,18
 516 132 516 132 569 132 c 128,-1,19
 622 132 622 132 671.5 140.5 c 128,-1,20
 721 149 721 149 771 165 c 0,21,22
 876 199 876 199 961 258 c 1,23,-1
 961 259 l 1,24,25
 957 335 957 335 957 555 c 2,26,-1
 957 1190 l 1,27,-1
 1123 1190 l 1,28,-1
 1123 524 l 2,0,1
330 1479 m 1,29,-1
 609 1830 l 1,30,-1
 730 1830 l 1,31,-1
 1018 1480 l 1,32,-1
 937 1400 l 1,33,-1
 671 1665 l 1,34,-1
 412 1400 l 1,35,-1
 330 1479 l 1,29,-1
EndSplineSet
EndChar

StartChar: udieresis
Encoding: 252 252 209
Width: 1364
GlyphClass: 2
Flags: W
LayerCount: 2
Fore
SplineSet
1123 524 m 2,0,1
 1123 194 1123 194 1142 8 c 1,2,-1
 993 -4 l 1,3,-1
 969 137 l 1,4,5
 852 40 852 40 696 -3 c 0,6,7
 634 -20 634 -20 548.5 -20 c 128,-1,8
 463 -20 463 -20 395.5 0.5 c 128,-1,9
 328 21 328 21 288 66 c 0,10,11
 215 147 215 147 215 361 c 2,12,-1
 215 1190 l 1,13,-1
 383 1190 l 1,14,-1
 383 388 l 2,15,16
 383 244 383 244 411 202.5 c 128,-1,17
 439 161 439 161 477.5 146.5 c 128,-1,18
 516 132 516 132 569 132 c 128,-1,19
 622 132 622 132 671.5 140.5 c 128,-1,20
 721 149 721 149 771 165 c 0,21,22
 876 199 876 199 961 258 c 1,23,-1
 961 259 l 1,24,25
 957 335 957 335 957 555 c 2,26,-1
 957 1190 l 1,27,-1
 1123 1190 l 1,28,-1
 1123 524 l 2,0,1
897 1481 m 0,29,30
 834 1481 834 1481 816 1499 c 0,31,32
 788 1528 788 1528 788 1580 c 128,-1,33
 788 1632 788 1632 794 1654.5 c 128,-1,34
 800 1677 800 1677 812 1690 c 1,35,36
 835 1712 835 1712 881.5 1712 c 128,-1,37
 928 1712 928 1712 949 1707 c 128,-1,38
 970 1702 970 1702 982 1690 c 0,39,40
 1006 1666 1006 1666 1006 1614.5 c 128,-1,41
 1006 1563 1006 1563 1000.5 1540.5 c 128,-1,42
 995 1518 995 1518 982 1504 c 0,43,44
 961 1481 961 1481 897 1481 c 0,29,30
439 1481 m 256,45,46
 376 1481 376 1481 358 1499 c 0,47,48
 330 1528 330 1528 330 1580 c 128,-1,49
 330 1632 330 1632 336 1654.5 c 128,-1,50
 342 1677 342 1677 354 1690 c 1,51,52
 377 1712 377 1712 423.5 1712 c 128,-1,53
 470 1712 470 1712 490.5 1707 c 128,-1,54
 511 1702 511 1702 524 1690 c 1,55,56
 546 1667 546 1667 546 1615 c 128,-1,57
 546 1563 546 1563 541 1540.5 c 128,-1,58
 536 1518 536 1518 524 1504 c 1,59,60
 502 1481 502 1481 439 1481 c 256,45,46
EndSplineSet
EndChar

StartChar: yacute
Encoding: 253 253 210
Width: 1192
GlyphClass: 2
Flags: W
LayerCount: 2
Fore
SplineSet
197 -288 m 1,0,1
 270 -314 270 -314 316.5 -314 c 128,-1,2
 363 -314 363 -314 377.5 -311.5 c 128,-1,3
 392 -309 392 -309 407 -301 c 0,4,5
 442 -282 442 -282 459 -239 c 0,6,7
 501 -137 501 -137 532 -15 c 1,8,-1
 73 1190 l 1,9,-1
 258 1190 l 1,10,-1
 568 313 l 1,11,-1
 615 159 l 1,12,-1
 658 314 l 1,13,-1
 932 1190 l 1,14,-1
 1106 1190 l 1,15,-1
 604 -282 l 1,16,17
 549 -454 549 -454 350 -454 c 0,18,19
 224 -454 224 -454 152 -418 c 1,20,-1
 197 -288 l 1,0,1
424 1486 m 1,21,-1
 747 1837 l 1,22,-1
 877 1716 l 1,23,-1
 507 1399 l 1,24,-1
 424 1486 l 1,21,-1
EndSplineSet
EndChar

StartChar: thorn
Encoding: 254 254 211
Width: 1364
GlyphClass: 2
Flags: W
LayerCount: 2
Fore
SplineSet
379 111 m 1,0,-1
 379 -455 l 1,1,-1
 217 -455 l 1,2,-1
 217 1702 l 1,3,-1
 383 1718 l 1,4,-1
 383 1076 l 1,5,6
 590 1210 590 1210 783 1210 c 0,7,8
 1051 1210 1051 1210 1123 1045 c 0,9,10
 1168 941 1168 941 1174 753 c 0,11,12
 1176 662 1176 662 1176 553 c 2,13,-1
 1176 473 l 2,14,15
 1176 336 1176 336 1158.5 267 c 128,-1,16
 1141 198 1141 198 1114 148.5 c 128,-1,17
 1087 99 1087 99 1040 62 c 0,18,19
 938 -20 938 -20 748 -20 c 128,-1,20
 558 -20 558 -20 379 111 c 1,0,-1
383 242 m 1,21,22
 595 127 595 127 740 127 c 2,23,-1
 752 127 l 2,24,25
 923 127 923 127 972 222 c 1,26,27
 998 270 998 270 1004 347 c 128,-1,28
 1010 424 1010 424 1010 532 c 2,29,-1
 1010 676 l 2,30,31
 1010 899 1010 899 959 976 c 0,32,33
 909 1053 909 1053 769 1053 c 2,34,-1
 744 1053 l 2,35,36
 619 1053 619 1053 454 979 c 0,37,38
 411 960 411 960 383 944 c 1,39,-1
 383 242 l 1,21,22
EndSplineSet
EndChar

StartChar: ydieresis
Encoding: 255 255 212
Width: 1192
GlyphClass: 2
Flags: W
LayerCount: 2
Fore
SplineSet
197 -288 m 1,0,1
 270 -314 270 -314 316.5 -314 c 128,-1,2
 363 -314 363 -314 377.5 -311.5 c 128,-1,3
 392 -309 392 -309 407 -301 c 0,4,5
 442 -282 442 -282 459 -239 c 0,6,7
 501 -137 501 -137 532 -15 c 1,8,-1
 73 1190 l 1,9,-1
 258 1190 l 1,10,-1
 568 313 l 1,11,-1
 615 159 l 1,12,-1
 658 314 l 1,13,-1
 932 1190 l 1,14,-1
 1106 1190 l 1,15,-1
 604 -282 l 1,16,17
 549 -454 549 -454 350 -454 c 0,18,19
 224 -454 224 -454 152 -418 c 1,20,-1
 197 -288 l 1,0,1
820 1481 m 0,21,22
 757 1481 757 1481 739 1499 c 0,23,24
 711 1528 711 1528 711 1580 c 128,-1,25
 711 1632 711 1632 717 1654.5 c 128,-1,26
 723 1677 723 1677 735 1690 c 1,27,28
 758 1712 758 1712 804.5 1712 c 128,-1,29
 851 1712 851 1712 872 1707 c 128,-1,30
 893 1702 893 1702 905 1690 c 0,31,32
 929 1666 929 1666 929 1614.5 c 128,-1,33
 929 1563 929 1563 923.5 1540.5 c 128,-1,34
 918 1518 918 1518 905 1504 c 0,35,36
 884 1481 884 1481 820 1481 c 0,21,22
362 1481 m 256,37,38
 299 1481 299 1481 281 1499 c 0,39,40
 253 1528 253 1528 253 1580 c 128,-1,41
 253 1632 253 1632 259 1654.5 c 128,-1,42
 265 1677 265 1677 277 1690 c 1,43,44
 300 1712 300 1712 346.5 1712 c 128,-1,45
 393 1712 393 1712 413.5 1707 c 128,-1,46
 434 1702 434 1702 447 1690 c 1,47,48
 469 1667 469 1667 469 1615 c 128,-1,49
 469 1563 469 1563 464 1540.5 c 128,-1,50
 459 1518 459 1518 447 1504 c 1,51,52
 425 1481 425 1481 362 1481 c 256,37,38
EndSplineSet
EndChar

StartChar: Amacron
Encoding: 256 256 213
Width: 1364
GlyphClass: 2
Flags: W
LayerCount: 2
Fore
SplineSet
550 1530 m 1,0,-1
 783 1530 l 1,1,-1
 1318 0 l 1,2,-1
 1137 0 l 1,3,-1
 985 449 l 1,4,-1
 369 449 l 1,5,-1
 225 0 l 1,6,-1
 49 0 l 1,7,-1
 550 1530 l 1,0,-1
937 592 m 1,8,-1
 667 1395 l 1,9,-1
 636 1281 l 1,10,-1
 415 592 l 1,11,-1
 937 592 l 1,8,-1
363 1876 m 1,12,-1
 962 1876 l 1,13,-1
 962 1741 l 1,14,-1
 363 1741 l 1,15,-1
 363 1876 l 1,12,-1
EndSplineSet
EndChar

StartChar: amacron
Encoding: 257 257 214
Width: 1364
GlyphClass: 2
Flags: W
LayerCount: 2
Fore
SplineSet
1134 422 m 2,0,1
 1134 223 1134 223 1153 8 c 1,2,-1
 1005 -4 l 1,3,-1
 980 135 l 1,4,5
 853 33 853 33 644 -7 c 0,6,7
 576 -20 576 -20 523 -20 c 128,-1,8
 470 -20 470 -20 429.5 -15 c 128,-1,9
 389 -10 389 -10 351.5 4.5 c 128,-1,10
 314 19 314 19 282 45 c 128,-1,11
 250 71 250 71 226 114 c 0,12,13
 175 205 175 205 175 332.5 c 128,-1,14
 175 460 175 460 193.5 530.5 c 128,-1,15
 212 601 212 601 255 648 c 0,16,17
 340 741 340 741 541 741 c 128,-1,18
 742 741 742 741 970 665 c 1,19,-1
 970 795 l 2,20,21
 970 1012 970 1012 791 1052 c 0,22,23
 733 1065 733 1065 658 1065 c 0,24,25
 487 1065 487 1065 303 997 c 1,26,-1
 266 1141 l 1,27,28
 317 1175 317 1175 526 1202 c 0,29,30
 592 1210 592 1210 684.5 1210 c 128,-1,31
 777 1210 777 1210 866 1188 c 128,-1,32
 955 1166 955 1166 1014 1116 c 1,33,34
 1134 1017 1134 1017 1134 795 c 2,35,-1
 1134 422 l 2,0,1
966 540 m 1,36,37
 732 599 732 599 534 599 c 0,38,39
 412 599 412 599 372 529 c 0,40,41
 345 480 345 480 345 384 c 128,-1,42
 345 288 345 288 355.5 245 c 128,-1,43
 366 202 366 202 390 174 c 0,44,45
 437 121 437 121 545 121 c 0,46,47
 714 121 714 121 880 208 c 0,48,49
 931 234 931 234 972 266 c 1,50,51
 966 374 966 374 966 540 c 1,36,37
390 1663 m 1,52,-1
 989 1663 l 1,53,-1
 989 1528 l 1,54,-1
 390 1528 l 1,55,-1
 390 1663 l 1,52,-1
EndSplineSet
EndChar

StartChar: Abreve
Encoding: 258 258 215
Width: 1364
GlyphClass: 2
Flags: W
LayerCount: 2
Fore
SplineSet
550 1530 m 1,0,-1
 783 1530 l 1,1,-1
 1318 0 l 1,2,-1
 1137 0 l 1,3,-1
 985 449 l 1,4,-1
 369 449 l 1,5,-1
 225 0 l 1,6,-1
 49 0 l 1,7,-1
 550 1530 l 1,0,-1
937 592 m 1,8,-1
 667 1395 l 1,9,-1
 636 1281 l 1,10,-1
 415 592 l 1,11,-1
 937 592 l 1,8,-1
977 1989 m 1,12,13
 967 1649 967 1649 656 1649 c 0,14,15
 498 1649 498 1649 416.5 1736 c 128,-1,16
 335 1823 335 1823 335 1989 c 1,17,-1
 471 2000 l 1,18,19
 473 1880 473 1880 518.5 1826.5 c 128,-1,20
 564 1773 564 1773 656 1773 c 0,21,22
 796 1773 796 1773 828 1892 c 0,23,24
 839 1936 839 1936 841 2000 c 1,25,-1
 977 1989 l 1,12,13
EndSplineSet
EndChar

StartChar: abreve
Encoding: 259 259 216
Width: 1364
GlyphClass: 2
Flags: W
LayerCount: 2
Fore
SplineSet
1134 422 m 2,0,1
 1134 223 1134 223 1153 8 c 1,2,-1
 1005 -4 l 1,3,-1
 980 135 l 1,4,5
 853 33 853 33 644 -7 c 0,6,7
 576 -20 576 -20 523 -20 c 128,-1,8
 470 -20 470 -20 429.5 -15 c 128,-1,9
 389 -10 389 -10 351.5 4.5 c 128,-1,10
 314 19 314 19 282 45 c 128,-1,11
 250 71 250 71 226 114 c 0,12,13
 175 205 175 205 175 332.5 c 128,-1,14
 175 460 175 460 193.5 530.5 c 128,-1,15
 212 601 212 601 255 648 c 0,16,17
 340 741 340 741 541 741 c 128,-1,18
 742 741 742 741 970 665 c 1,19,-1
 970 795 l 2,20,21
 970 1012 970 1012 791 1052 c 0,22,23
 733 1065 733 1065 658 1065 c 0,24,25
 487 1065 487 1065 303 997 c 1,26,-1
 266 1141 l 1,27,28
 317 1175 317 1175 526 1202 c 0,29,30
 592 1210 592 1210 684.5 1210 c 128,-1,31
 777 1210 777 1210 866 1188 c 128,-1,32
 955 1166 955 1166 1014 1116 c 1,33,34
 1134 1017 1134 1017 1134 795 c 2,35,-1
 1134 422 l 2,0,1
966 540 m 1,36,37
 732 599 732 599 534 599 c 0,38,39
 412 599 412 599 372 529 c 0,40,41
 345 480 345 480 345 384 c 128,-1,42
 345 288 345 288 355.5 245 c 128,-1,43
 366 202 366 202 390 174 c 0,44,45
 437 121 437 121 545 121 c 0,46,47
 714 121 714 121 880 208 c 0,48,49
 931 234 931 234 972 266 c 1,50,51
 966 374 966 374 966 540 c 1,36,37
1011 1733 m 1,52,53
 1001 1393 1001 1393 690 1393 c 0,54,55
 532 1393 532 1393 450.5 1480 c 128,-1,56
 369 1567 369 1567 369 1733 c 1,57,-1
 505 1744 l 1,58,59
 507 1624 507 1624 552.5 1570.5 c 128,-1,60
 598 1517 598 1517 690 1517 c 0,61,62
 830 1517 830 1517 862 1637 c 0,63,64
 873 1680 873 1680 875 1744 c 1,65,-1
 1011 1733 l 1,52,53
EndSplineSet
EndChar

StartChar: Aogonek
Encoding: 260 260 217
Width: 1364
GlyphClass: 2
Flags: W
LayerCount: 2
Fore
SplineSet
976 -275 m 0,0,1
 976 -123 976 -123 1153 0 c 1,2,-1
 1137 0 l 1,3,-1
 985 449 l 1,4,-1
 369 449 l 1,5,-1
 225 0 l 1,6,-1
 49 0 l 1,7,-1
 550 1530 l 1,8,-1
 783 1530 l 1,9,-1
 1318 0 l 1,10,-1
 1310 0 l 1,11,12
 1166 -87 1166 -87 1130 -198 c 0,13,14
 1120 -228 1120 -228 1120 -251 c 0,15,16
 1120 -338 1120 -338 1225 -338 c 0,17,18
 1300 -338 1300 -338 1374 -307 c 1,19,-1
 1414 -432 l 1,20,21
 1348 -474 1348 -474 1236 -474 c 0,22,23
 976 -474 976 -474 976 -275 c 0,0,1
937 592 m 1,24,-1
 667 1395 l 1,25,-1
 636 1281 l 1,26,-1
 415 592 l 1,27,-1
 937 592 l 1,24,-1
EndSplineSet
EndChar

StartChar: aogonek
Encoding: 261 261 218
Width: 1364
GlyphClass: 2
Flags: W
LayerCount: 2
Fore
SplineSet
818 -276 m 0,0,1
 818 -122 818 -122 1003 4 c 1,2,-1
 980 135 l 1,3,4
 853 33 853 33 644 -7 c 0,5,6
 576 -20 576 -20 523 -20 c 128,-1,7
 470 -20 470 -20 429.5 -15 c 128,-1,8
 389 -10 389 -10 351.5 4.5 c 128,-1,9
 314 19 314 19 282 45 c 128,-1,10
 250 71 250 71 226 114 c 0,11,12
 175 205 175 205 175 332.5 c 128,-1,13
 175 460 175 460 193.5 530.5 c 128,-1,14
 212 601 212 601 255 648 c 0,15,16
 340 741 340 741 541 741 c 128,-1,17
 742 741 742 741 970 665 c 1,18,-1
 970 795 l 2,19,20
 970 1012 970 1012 791 1052 c 0,21,22
 733 1065 733 1065 658 1065 c 0,23,24
 487 1065 487 1065 303 997 c 1,25,-1
 266 1141 l 1,26,27
 317 1175 317 1175 526 1202 c 0,28,29
 592 1210 592 1210 684.5 1210 c 128,-1,30
 777 1210 777 1210 866 1188 c 128,-1,31
 955 1166 955 1166 1014 1116 c 1,32,33
 1134 1017 1134 1017 1134 795 c 2,34,-1
 1134 422 l 2,35,36
 1134 200 1134 200 1154 0 c 1,37,38
 1008 -88 1008 -88 972 -198 c 0,39,40
 962 -229 962 -229 962 -252 c 0,41,42
 962 -339 962 -339 1067 -339 c 0,43,44
 1142 -339 1142 -339 1216 -308 c 1,45,-1
 1256 -433 l 1,46,47
 1190 -475 1190 -475 1078 -475 c 0,48,49
 818 -475 818 -475 818 -276 c 0,0,1
966 540 m 1,50,51
 732 599 732 599 534 599 c 0,52,53
 412 599 412 599 372 529 c 0,54,55
 345 480 345 480 345 384 c 128,-1,56
 345 288 345 288 355.5 245 c 128,-1,57
 366 202 366 202 390 174 c 0,58,59
 437 121 437 121 545 121 c 0,60,61
 714 121 714 121 880 208 c 0,62,63
 931 234 931 234 972 266 c 1,64,65
 966 374 966 374 966 540 c 1,50,51
EndSplineSet
EndChar

StartChar: Cacute
Encoding: 262 262 219
Width: 1194
GlyphClass: 2
Flags: W
LayerCount: 2
Fore
SplineSet
771 124 m 2,0,1
 934 124 934 124 1099 187 c 1,2,-1
 1143 49 l 1,3,4
 1067 11 1067 11 960 -4.5 c 128,-1,5
 853 -20 853 -20 771 -20 c 2,6,-1
 757 -20 l 2,7,8
 401 -20 401 -20 280 184 c 0,9,10
 206 308 206 308 190 518 c 0,11,12
 183 619 183 619 183 739 c 128,-1,13
 183 859 183 859 189.5 967.5 c 128,-1,14
 196 1076 196 1076 216 1166.5 c 128,-1,15
 236 1257 236 1257 274 1328 c 128,-1,16
 312 1399 312 1399 376 1448 c 0,17,18
 506 1550 506 1550 754 1550 c 0,19,20
 914 1550 914 1550 1011.5 1529.5 c 128,-1,21
 1109 1509 1109 1509 1143 1496 c 1,22,-1
 1098 1338 l 1,23,24
 903 1406 903 1406 764.5 1406 c 128,-1,25
 626 1406 626 1406 551.5 1372.5 c 128,-1,26
 477 1339 477 1339 435 1262 c 0,27,28
 362 1130 362 1130 362 759 c 2,29,-1
 362 685 l 2,30,31
 362 380 362 380 441 259 c 0,32,33
 529 124 529 124 762 124 c 2,34,-1
 771 124 l 2,0,1
551 1741 m 1,35,-1
 967 2000 l 1,36,-1
 1060 1841 l 1,37,-1
 601 1649 l 1,38,-1
 551 1741 l 1,35,-1
EndSplineSet
EndChar

StartChar: cacute
Encoding: 263 263 220
Width: 1196
GlyphClass: 2
Flags: W
LayerCount: 2
Fore
SplineSet
1050 53 m 1,0,1
 911 -20 911 -20 669 -20 c 0,2,3
 526 -20 526 -20 459 2 c 0,4,5
 288 60 288 60 235 199 c 0,6,7
 198 296 198 296 192 408 c 128,-1,8
 186 520 186 520 186 597 c 128,-1,9
 186 674 186 674 190 747.5 c 128,-1,10
 194 821 194 821 209.5 889 c 128,-1,11
 225 957 225 957 257 1015.5 c 128,-1,12
 289 1074 289 1074 344 1118 c 1,13,14
 463 1210 463 1210 686 1210 c 0,15,16
 850 1210 850 1210 988 1162 c 0,17,18
 1025 1150 1025 1150 1044 1139 c 1,19,-1
 994 991 l 1,20,21
 802 1065 802 1065 679.5 1065 c 128,-1,22
 557 1065 557 1065 499.5 1037 c 128,-1,23
 442 1009 442 1009 410 952 c 0,24,25
 356 854 356 854 356 592 c 0,26,27
 356 487 356 487 363 400.5 c 128,-1,28
 370 314 370 314 398 252 c 0,29,30
 457 124 457 124 641.5 124 c 128,-1,31
 826 124 826 124 1000 188 c 1,32,-1
 1050 53 l 1,0,1
451 1486 m 1,33,-1
 774 1837 l 1,34,-1
 904 1716 l 1,35,-1
 534 1399 l 1,36,-1
 451 1486 l 1,33,-1
EndSplineSet
EndChar

StartChar: Ccircumflex
Encoding: 264 264 221
Width: 1194
GlyphClass: 2
Flags: W
LayerCount: 2
Fore
SplineSet
771 124 m 2,0,1
 934 124 934 124 1099 187 c 1,2,-1
 1143 49 l 1,3,4
 1067 11 1067 11 960 -4.5 c 128,-1,5
 853 -20 853 -20 771 -20 c 2,6,-1
 757 -20 l 2,7,8
 401 -20 401 -20 280 184 c 0,9,10
 206 308 206 308 190 518 c 0,11,12
 183 619 183 619 183 739 c 128,-1,13
 183 859 183 859 189.5 967.5 c 128,-1,14
 196 1076 196 1076 216 1166.5 c 128,-1,15
 236 1257 236 1257 274 1328 c 128,-1,16
 312 1399 312 1399 376 1448 c 0,17,18
 506 1550 506 1550 754 1550 c 0,19,20
 914 1550 914 1550 1011.5 1529.5 c 128,-1,21
 1109 1509 1109 1509 1143 1496 c 1,22,-1
 1098 1338 l 1,23,24
 903 1406 903 1406 764.5 1406 c 128,-1,25
 626 1406 626 1406 551.5 1372.5 c 128,-1,26
 477 1339 477 1339 435 1262 c 0,27,28
 362 1130 362 1130 362 759 c 2,29,-1
 362 685 l 2,30,31
 362 380 362 380 441 259 c 0,32,33
 529 124 529 124 762 124 c 2,34,-1
 771 124 l 2,0,1
404 1744 m 1,35,-1
 628 1991 l 1,36,-1
 788 1991 l 1,37,-1
 1021 1743 l 1,38,-1
 944 1663 l 1,39,-1
 707 1863 l 1,40,-1
 478 1662 l 1,41,-1
 404 1744 l 1,35,-1
EndSplineSet
EndChar

StartChar: ccircumflex
Encoding: 265 265 222
Width: 1196
GlyphClass: 2
Flags: W
LayerCount: 2
Fore
SplineSet
1050 53 m 1,0,1
 911 -20 911 -20 669 -20 c 0,2,3
 526 -20 526 -20 459 2 c 0,4,5
 288 60 288 60 235 199 c 0,6,7
 198 296 198 296 192 408 c 128,-1,8
 186 520 186 520 186 597 c 128,-1,9
 186 674 186 674 190 747.5 c 128,-1,10
 194 821 194 821 209.5 889 c 128,-1,11
 225 957 225 957 257 1015.5 c 128,-1,12
 289 1074 289 1074 344 1118 c 1,13,14
 463 1210 463 1210 686 1210 c 0,15,16
 850 1210 850 1210 988 1162 c 0,17,18
 1025 1150 1025 1150 1044 1139 c 1,19,-1
 994 991 l 1,20,21
 802 1065 802 1065 679.5 1065 c 128,-1,22
 557 1065 557 1065 499.5 1037 c 128,-1,23
 442 1009 442 1009 410 952 c 0,24,25
 356 854 356 854 356 592 c 0,26,27
 356 487 356 487 363 400.5 c 128,-1,28
 370 314 370 314 398 252 c 0,29,30
 457 124 457 124 641.5 124 c 128,-1,31
 826 124 826 124 1000 188 c 1,32,-1
 1050 53 l 1,0,1
317 1479 m 1,33,-1
 596 1830 l 1,34,-1
 717 1830 l 1,35,-1
 1005 1480 l 1,36,-1
 924 1400 l 1,37,-1
 658 1665 l 1,38,-1
 399 1400 l 1,39,-1
 317 1479 l 1,33,-1
EndSplineSet
EndChar

StartChar: Cdotaccent
Encoding: 266 266 223
Width: 1194
GlyphClass: 2
Flags: W
LayerCount: 2
Fore
SplineSet
771 124 m 2,0,1
 934 124 934 124 1099 187 c 1,2,-1
 1143 49 l 1,3,4
 1067 11 1067 11 960 -4.5 c 128,-1,5
 853 -20 853 -20 771 -20 c 2,6,-1
 757 -20 l 2,7,8
 401 -20 401 -20 280 184 c 0,9,10
 206 308 206 308 190 518 c 0,11,12
 183 619 183 619 183 739 c 128,-1,13
 183 859 183 859 189.5 967.5 c 128,-1,14
 196 1076 196 1076 216 1166.5 c 128,-1,15
 236 1257 236 1257 274 1328 c 128,-1,16
 312 1399 312 1399 376 1448 c 0,17,18
 506 1550 506 1550 754 1550 c 0,19,20
 914 1550 914 1550 1011.5 1529.5 c 128,-1,21
 1109 1509 1109 1509 1143 1496 c 1,22,-1
 1098 1338 l 1,23,24
 903 1406 903 1406 764.5 1406 c 128,-1,25
 626 1406 626 1406 551.5 1372.5 c 128,-1,26
 477 1339 477 1339 435 1262 c 0,27,28
 362 1130 362 1130 362 759 c 2,29,-1
 362 685 l 2,30,31
 362 380 362 380 441 259 c 0,32,33
 529 124 529 124 762 124 c 2,34,-1
 771 124 l 2,0,1
702 1711 m 0,35,36
 635 1711 635 1711 616 1730 c 0,37,38
 586 1761 586 1761 586 1815.5 c 128,-1,39
 586 1870 586 1870 592.5 1893.5 c 128,-1,40
 599 1917 599 1917 613 1930 c 1,41,42
 636 1954 636 1954 685.5 1954 c 128,-1,43
 735 1954 735 1954 756.5 1949 c 128,-1,44
 778 1944 778 1944 791 1930 c 1,45,46
 816 1906 816 1906 816 1851.5 c 128,-1,47
 816 1797 816 1797 810.5 1773.5 c 128,-1,48
 805 1750 805 1750 791 1736 c 0,49,50
 767 1711 767 1711 702 1711 c 0,35,36
EndSplineSet
EndChar

StartChar: cdotaccent
Encoding: 267 267 224
Width: 1196
GlyphClass: 2
Flags: W
LayerCount: 2
Fore
SplineSet
1050 53 m 1,0,1
 911 -20 911 -20 669 -20 c 0,2,3
 526 -20 526 -20 459 2 c 0,4,5
 288 60 288 60 235 199 c 0,6,7
 198 296 198 296 192 408 c 128,-1,8
 186 520 186 520 186 597 c 128,-1,9
 186 674 186 674 190 747.5 c 128,-1,10
 194 821 194 821 209.5 889 c 128,-1,11
 225 957 225 957 257 1015.5 c 128,-1,12
 289 1074 289 1074 344 1118 c 1,13,14
 463 1210 463 1210 686 1210 c 0,15,16
 850 1210 850 1210 988 1162 c 0,17,18
 1025 1150 1025 1150 1044 1139 c 1,19,-1
 994 991 l 1,20,21
 802 1065 802 1065 679.5 1065 c 128,-1,22
 557 1065 557 1065 499.5 1037 c 128,-1,23
 442 1009 442 1009 410 952 c 0,24,25
 356 854 356 854 356 592 c 0,26,27
 356 487 356 487 363 400.5 c 128,-1,28
 370 314 370 314 398 252 c 0,29,30
 457 124 457 124 641.5 124 c 128,-1,31
 826 124 826 124 1000 188 c 1,32,-1
 1050 53 l 1,0,1
666 1475 m 0,33,34
 599 1475 599 1475 580 1494 c 0,35,36
 550 1525 550 1525 550 1579.5 c 128,-1,37
 550 1634 550 1634 556.5 1657.5 c 128,-1,38
 563 1681 563 1681 576 1694 c 0,39,40
 600 1718 600 1718 649.5 1718 c 128,-1,41
 699 1718 699 1718 720.5 1713 c 128,-1,42
 742 1708 742 1708 756 1694 c 0,43,44
 780 1670 780 1670 780 1615.5 c 128,-1,45
 780 1561 780 1561 774.5 1537.5 c 128,-1,46
 769 1514 769 1514 756 1500 c 0,47,48
 731 1475 731 1475 666 1475 c 0,33,34
EndSplineSet
EndChar

StartChar: Ccaron
Encoding: 268 268 225
Width: 1194
GlyphClass: 2
Flags: W
LayerCount: 2
Fore
SplineSet
771 124 m 2,0,1
 934 124 934 124 1099 187 c 1,2,-1
 1143 49 l 1,3,4
 1067 11 1067 11 960 -4.5 c 128,-1,5
 853 -20 853 -20 771 -20 c 2,6,-1
 757 -20 l 2,7,8
 401 -20 401 -20 280 184 c 0,9,10
 206 308 206 308 190 518 c 0,11,12
 183 619 183 619 183 739 c 128,-1,13
 183 859 183 859 189.5 967.5 c 128,-1,14
 196 1076 196 1076 216 1166.5 c 128,-1,15
 236 1257 236 1257 274 1328 c 128,-1,16
 312 1399 312 1399 376 1448 c 0,17,18
 506 1550 506 1550 754 1550 c 0,19,20
 914 1550 914 1550 1011.5 1529.5 c 128,-1,21
 1109 1509 1109 1509 1143 1496 c 1,22,-1
 1098 1338 l 1,23,24
 903 1406 903 1406 764.5 1406 c 128,-1,25
 626 1406 626 1406 551.5 1372.5 c 128,-1,26
 477 1339 477 1339 435 1262 c 0,27,28
 362 1130 362 1130 362 759 c 2,29,-1
 362 685 l 2,30,31
 362 380 362 380 441 259 c 0,32,33
 529 124 529 124 762 124 c 2,34,-1
 771 124 l 2,0,1
391 1917 m 1,35,-1
 468 1997 l 1,36,-1
 705 1797 l 1,37,-1
 934 1998 l 1,38,-1
 1008 1916 l 1,39,-1
 784 1669 l 1,40,-1
 624 1669 l 1,41,-1
 391 1917 l 1,35,-1
EndSplineSet
EndChar

StartChar: ccaron
Encoding: 269 269 226
Width: 1196
GlyphClass: 2
Flags: W
LayerCount: 2
Fore
SplineSet
1050 53 m 1,0,1
 911 -20 911 -20 669 -20 c 0,2,3
 526 -20 526 -20 459 2 c 0,4,5
 288 60 288 60 235 199 c 0,6,7
 198 296 198 296 192 408 c 128,-1,8
 186 520 186 520 186 597 c 128,-1,9
 186 674 186 674 190 747.5 c 128,-1,10
 194 821 194 821 209.5 889 c 128,-1,11
 225 957 225 957 257 1015.5 c 128,-1,12
 289 1074 289 1074 344 1118 c 1,13,14
 463 1210 463 1210 686 1210 c 0,15,16
 850 1210 850 1210 988 1162 c 0,17,18
 1025 1150 1025 1150 1044 1139 c 1,19,-1
 994 991 l 1,20,21
 802 1065 802 1065 679.5 1065 c 128,-1,22
 557 1065 557 1065 499.5 1037 c 128,-1,23
 442 1009 442 1009 410 952 c 0,24,25
 356 854 356 854 356 592 c 0,26,27
 356 487 356 487 363 400.5 c 128,-1,28
 370 314 370 314 398 252 c 0,29,30
 457 124 457 124 641.5 124 c 128,-1,31
 826 124 826 124 1000 188 c 1,32,-1
 1050 53 l 1,0,1
324 1757 m 1,33,-1
 405 1837 l 1,34,-1
 671 1572 l 1,35,-1
 930 1837 l 1,36,-1
 1012 1757 l 1,37,-1
 733 1407 l 1,38,-1
 612 1407 l 1,39,-1
 324 1757 l 1,33,-1
EndSplineSet
EndChar

StartChar: Dcaron
Encoding: 270 270 227
Width: 1534
GlyphClass: 2
Flags: W
LayerCount: 2
Fore
SplineSet
236 1521 m 1,0,1
 236 1521 236 1521 386 1532 c 0,2,3
 611 1550 611 1550 745 1550 c 128,-1,4
 879 1550 879 1550 959 1539.5 c 128,-1,5
 1039 1529 1039 1529 1099.5 1503.5 c 128,-1,6
 1160 1478 1160 1478 1202.5 1434 c 128,-1,7
 1245 1390 1245 1390 1272 1322 c 0,8,9
 1323 1195 1323 1195 1323 944 c 2,10,-1
 1323 789 l 2,11,12
 1323 492 1323 492 1279 338 c 0,13,14
 1228 160 1228 160 1096 82 c 1,15,16
 960 0 960 0 697 0 c 2,17,-1
 236 0 l 1,18,-1
 236 1521 l 1,0,1
981 1373 m 128,-1,20
 913 1402 913 1402 772 1402 c 128,-1,21
 631 1402 631 1402 406 1385 c 1,22,-1
 406 143 l 1,23,-1
 724 143 l 2,24,25
 910 143 910 143 1000 204 c 0,26,27
 1088 263 1088 263 1118 407 c 1,28,29
 1144 525 1144 525 1144 789 c 2,30,-1
 1144 945 l 2,31,32
 1144 1194 1144 1194 1085 1287 c 0,33,19
 1049 1344 1049 1344 981 1373 c 128,-1,20
416 1917 m 1,34,-1
 493 1997 l 1,35,-1
 730 1797 l 1,36,-1
 959 1998 l 1,37,-1
 1033 1916 l 1,38,-1
 809 1669 l 1,39,-1
 649 1669 l 1,40,-1
 416 1917 l 1,34,-1
EndSplineSet
EndChar

StartChar: dcaron
Encoding: 271 271 228
Width: 1364
GlyphClass: 2
Flags: W
LayerCount: 2
Fore
SplineSet
996 133 m 1,0,1
 785 -20 785 -20 567 -20 c 0,2,3
 326 -20 326 -20 246 157 c 0,4,5
 200 257 200 257 194.5 368.5 c 128,-1,6
 189 480 189 480 189 564.5 c 128,-1,7
 189 649 189 649 190.5 735 c 128,-1,8
 192 821 192 821 203 894 c 128,-1,9
 214 967 214 967 237.5 1025.5 c 128,-1,10
 261 1084 261 1084 305 1125 c 0,11,12
 396 1210 396 1210 605.5 1210 c 128,-1,13
 815 1210 815 1210 984 1137 c 1,14,-1
 984 1702 l 1,15,-1
 1150 1718 l 1,16,-1
 1150 547 l 2,17,18
 1150 202 1150 202 1169 8 c 1,19,-1
 1020 -4 l 1,20,-1
 996 133 l 1,0,1
984 1000 m 1,21,22
 804 1060 804 1060 636 1060 c 0,23,24
 514 1060 514 1060 475 1040 c 128,-1,25
 436 1020 436 1020 415.5 988 c 128,-1,26
 395 956 395 956 382 900 c 0,27,28
 359 795 359 795 359 554 c 2,29,-1
 359 532 l 2,30,31
 359 307 359 307 408 221 c 0,32,33
 461 130 461 130 605 130 c 2,34,-1
 620 130 l 2,35,36
 758 130 758 130 914 218 c 0,37,38
 957 242 957 242 988 266 c 1,39,-1
 988 268 l 1,40,41
 983 361 983 361 983 555 c 2,42,-1
 984 1000 l 1,21,22
1417 1713 m 0,43,44
 1468 1713 1468 1713 1468 1666 c 0,45,46
 1468 1653 1468 1653 1463 1618 c 2,47,-1
 1411 1280 l 1,48,-1
 1299 1280 l 1,49,-1
 1299 1699 l 1,50,-1
 1321 1703 l 2,51,52
 1379 1713 1379 1713 1417 1713 c 0,43,44
EndSplineSet
EndChar

StartChar: Dcroat
Encoding: 272 272 229
Width: 1534
GlyphClass: 2
Flags: W
LayerCount: 2
Fore
SplineSet
236 1520 m 1,0,1
 632 1552 632 1552 783 1552 c 128,-1,2
 934 1552 934 1552 1009.5 1541 c 128,-1,3
 1085 1530 1085 1530 1139.5 1503 c 128,-1,4
 1194 1476 1194 1476 1229.5 1429.5 c 128,-1,5
 1265 1383 1265 1383 1286 1311 c 0,6,7
 1322 1183 1322 1183 1322 966.5 c 128,-1,8
 1322 750 1322 750 1316 622.5 c 128,-1,9
 1310 495 1310 495 1288.5 394.5 c 128,-1,10
 1267 294 1267 294 1226 219.5 c 128,-1,11
 1185 145 1185 145 1116 96 c 1,12,13
 977 0 977 0 697 0 c 2,14,-1
 236 0 l 1,15,-1
 236 699 l 1,16,-1
 74 699 l 1,17,-1
 74 834 l 1,18,-1
 236 834 l 1,19,-1
 236 1520 l 1,0,1
727 148 m 2,20,21
 915 148 915 148 1003 209.5 c 128,-1,22
 1091 271 1091 271 1122 416 c 0,23,24
 1147 535 1147 535 1147 799 c 2,25,-1
 1147 974 l 2,26,27
 1147 1082 1147 1082 1140 1163.5 c 128,-1,28
 1133 1245 1133 1245 1102 1299 c 0,29,30
 1042 1407 1042 1407 841 1407 c 0,31,32
 734 1407 734 1407 624 1400 c 2,33,-1
 406 1385 l 1,34,-1
 406 834 l 1,35,-1
 745 834 l 1,36,-1
 745 699 l 1,37,-1
 406 699 l 1,38,-1
 406 148 l 1,39,-1
 727 148 l 2,20,21
EndSplineSet
EndChar

StartChar: dcroat
Encoding: 273 273 230
Width: 1364
GlyphClass: 2
Flags: W
LayerCount: 2
Fore
SplineSet
996 133 m 1,0,1
 785 -20 785 -20 567 -20 c 0,2,3
 326 -20 326 -20 246 157 c 0,4,5
 200 257 200 257 194.5 368.5 c 128,-1,6
 189 480 189 480 189 564.5 c 128,-1,7
 189 649 189 649 190.5 735 c 128,-1,8
 192 821 192 821 203 894 c 128,-1,9
 214 967 214 967 237.5 1025.5 c 128,-1,10
 261 1084 261 1084 305 1125 c 0,11,12
 396 1210 396 1210 605.5 1210 c 128,-1,13
 815 1210 815 1210 984 1137 c 1,14,-1
 984 1402 l 1,15,-1
 687 1402 l 1,16,-1
 687 1529 l 1,17,-1
 984 1529 l 1,18,-1
 984 1702 l 1,19,-1
 1150 1718 l 1,20,-1
 1150 1529 l 1,21,-1
 1359 1529 l 1,22,-1
 1359 1402 l 1,23,-1
 1150 1402 l 1,24,-1
 1150 547 l 2,25,26
 1150 202 1150 202 1169 8 c 1,27,-1
 1020 -4 l 1,28,-1
 996 133 l 1,0,1
984 1000 m 1,29,30
 804 1060 804 1060 636 1060 c 0,31,32
 514 1060 514 1060 475 1040 c 128,-1,33
 436 1020 436 1020 415.5 988 c 128,-1,34
 395 956 395 956 382 900 c 0,35,36
 359 795 359 795 359 554 c 2,37,-1
 359 532 l 2,38,39
 359 307 359 307 408 221 c 0,40,41
 461 130 461 130 605 130 c 2,42,-1
 620 130 l 2,43,44
 758 130 758 130 914 218 c 0,45,46
 957 242 957 242 988 266 c 1,47,-1
 988 268 l 1,48,49
 983 361 983 361 983 555 c 2,50,-1
 984 1000 l 1,29,30
EndSplineSet
EndChar

StartChar: Emacron
Encoding: 274 274 231
Width: 1195
GlyphClass: 2
Flags: W
LayerCount: 2
Fore
SplineSet
236 1530 m 1,0,-1
 1103 1530 l 1,1,-1
 1103 1382 l 1,2,-1
 406 1382 l 1,3,-1
 406 854 l 1,4,-1
 968 854 l 1,5,-1
 968 707 l 1,6,-1
 406 707 l 1,7,-1
 406 147 l 1,8,-1
 1130 147 l 1,9,-1
 1130 0 l 1,10,-1
 236 0 l 1,11,-1
 236 1530 l 1,0,-1
378 1876 m 1,12,-1
 977 1876 l 1,13,-1
 977 1741 l 1,14,-1
 378 1741 l 1,15,-1
 378 1876 l 1,12,-1
EndSplineSet
EndChar

StartChar: emacron
Encoding: 275 275 232
Width: 1364
GlyphClass: 2
Flags: W
LayerCount: 2
Fore
SplineSet
1155 63 m 1,0,1
 948 -20 948 -20 698 -20 c 0,2,3
 553 -20 553 -20 452 10 c 1,4,5
 291 56 291 56 238 200 c 0,6,7
 189 335 189 335 189 600 c 2,8,-1
 189 651 l 2,9,10
 189 968 189 968 321 1096 c 1,11,12
 440 1210 440 1210 718 1210 c 0,13,14
 989 1210 989 1210 1088 1076 c 0,15,16
 1136 1011 1136 1011 1151.5 918.5 c 128,-1,17
 1167 826 1167 826 1167 742 c 0,18,19
 1167 611 1167 611 1161 539 c 1,20,21
 1020 533 1020 533 908 533 c 2,22,23
 908 533 908 533 747 533 c 0,24,25
 495 533 495 533 359 555 c 1,26,27
 359 325 359 325 417 234 c 0,28,29
 488 123 488 123 700 123 c 128,-1,30
 912 123 912 123 1106 206 c 1,31,-1
 1155 63 l 1,0,1
998 672 m 1,32,-1
 998 768 l 2,33,34
 998 925 998 925 937 992 c 0,35,36
 869 1067 869 1067 702 1067 c 0,37,38
 502 1067 502 1067 429 980 c 0,39,40
 359 897 359 897 359 672 c 1,41,-1
 998 672 l 1,32,-1
385 1663 m 1,42,-1
 984 1663 l 1,43,-1
 984 1528 l 1,44,-1
 385 1528 l 1,45,-1
 385 1663 l 1,42,-1
EndSplineSet
EndChar

StartChar: Ebreve
Encoding: 276 276 233
Width: 1195
GlyphClass: 2
Flags: W
LayerCount: 2
Fore
SplineSet
236 1530 m 1,0,-1
 1103 1530 l 1,1,-1
 1103 1382 l 1,2,-1
 406 1382 l 1,3,-1
 406 854 l 1,4,-1
 968 854 l 1,5,-1
 968 707 l 1,6,-1
 406 707 l 1,7,-1
 406 147 l 1,8,-1
 1130 147 l 1,9,-1
 1130 0 l 1,10,-1
 236 0 l 1,11,-1
 236 1530 l 1,0,-1
995 1989 m 1,12,13
 985 1649 985 1649 674 1649 c 0,14,15
 516 1649 516 1649 434.5 1736 c 128,-1,16
 353 1823 353 1823 353 1989 c 1,17,-1
 489 2000 l 1,18,19
 491 1880 491 1880 536.5 1826.5 c 128,-1,20
 582 1773 582 1773 674 1773 c 0,21,22
 814 1773 814 1773 846 1892 c 0,23,24
 857 1936 857 1936 859 2000 c 1,25,-1
 995 1989 l 1,12,13
EndSplineSet
EndChar

StartChar: ebreve
Encoding: 277 277 234
Width: 1364
GlyphClass: 2
Flags: W
LayerCount: 2
Fore
SplineSet
1155 63 m 1,0,1
 948 -20 948 -20 698 -20 c 0,2,3
 553 -20 553 -20 452 10 c 1,4,5
 291 56 291 56 238 200 c 0,6,7
 189 335 189 335 189 600 c 2,8,-1
 189 651 l 2,9,10
 189 968 189 968 321 1096 c 1,11,12
 440 1210 440 1210 718 1210 c 0,13,14
 989 1210 989 1210 1088 1076 c 0,15,16
 1136 1011 1136 1011 1151.5 918.5 c 128,-1,17
 1167 826 1167 826 1167 742 c 0,18,19
 1167 611 1167 611 1161 539 c 1,20,21
 1020 533 1020 533 908 533 c 2,22,23
 908 533 908 533 747 533 c 0,24,25
 495 533 495 533 359 555 c 1,26,27
 359 325 359 325 417 234 c 0,28,29
 488 123 488 123 700 123 c 128,-1,30
 912 123 912 123 1106 206 c 1,31,-1
 1155 63 l 1,0,1
998 672 m 1,32,-1
 998 768 l 2,33,34
 998 925 998 925 937 992 c 0,35,36
 869 1067 869 1067 702 1067 c 0,37,38
 502 1067 502 1067 429 980 c 0,39,40
 359 897 359 897 359 672 c 1,41,-1
 998 672 l 1,32,-1
996 1734 m 1,42,43
 986 1394 986 1394 675 1394 c 0,44,45
 517 1394 517 1394 435.5 1481 c 128,-1,46
 354 1568 354 1568 354 1734 c 1,47,-1
 490 1745 l 1,48,49
 492 1625 492 1625 537.5 1571.5 c 128,-1,50
 583 1518 583 1518 675 1518 c 0,51,52
 815 1518 815 1518 847 1638 c 0,53,54
 858 1681 858 1681 860 1745 c 1,55,-1
 996 1734 l 1,42,43
EndSplineSet
EndChar

StartChar: Edotaccent
Encoding: 278 278 235
Width: 1195
GlyphClass: 2
Flags: W
LayerCount: 2
Fore
SplineSet
236 1530 m 1,0,-1
 1103 1530 l 1,1,-1
 1103 1382 l 1,2,-1
 406 1382 l 1,3,-1
 406 854 l 1,4,-1
 968 854 l 1,5,-1
 968 707 l 1,6,-1
 406 707 l 1,7,-1
 406 147 l 1,8,-1
 1130 147 l 1,9,-1
 1130 0 l 1,10,-1
 236 0 l 1,11,-1
 236 1530 l 1,0,-1
683 1711 m 0,12,13
 616 1711 616 1711 597 1730 c 0,14,15
 567 1761 567 1761 567 1815.5 c 128,-1,16
 567 1870 567 1870 573.5 1893.5 c 128,-1,17
 580 1917 580 1917 594 1930 c 1,18,19
 617 1954 617 1954 666.5 1954 c 128,-1,20
 716 1954 716 1954 737.5 1949 c 128,-1,21
 759 1944 759 1944 772 1930 c 1,22,23
 797 1906 797 1906 797 1851.5 c 128,-1,24
 797 1797 797 1797 791.5 1773.5 c 128,-1,25
 786 1750 786 1750 772 1736 c 0,26,27
 748 1711 748 1711 683 1711 c 0,12,13
EndSplineSet
EndChar

StartChar: edotaccent
Encoding: 279 279 236
Width: 1364
GlyphClass: 2
Flags: W
LayerCount: 2
Fore
SplineSet
1155 63 m 1,0,1
 948 -20 948 -20 698 -20 c 0,2,3
 553 -20 553 -20 452 10 c 1,4,5
 291 56 291 56 238 200 c 0,6,7
 189 335 189 335 189 600 c 2,8,-1
 189 651 l 2,9,10
 189 968 189 968 321 1096 c 1,11,12
 440 1210 440 1210 718 1210 c 0,13,14
 989 1210 989 1210 1088 1076 c 0,15,16
 1136 1011 1136 1011 1151.5 918.5 c 128,-1,17
 1167 826 1167 826 1167 742 c 0,18,19
 1167 611 1167 611 1161 539 c 1,20,21
 1020 533 1020 533 908 533 c 2,22,23
 908 533 908 533 747 533 c 0,24,25
 495 533 495 533 359 555 c 1,26,27
 359 325 359 325 417 234 c 0,28,29
 488 123 488 123 700 123 c 128,-1,30
 912 123 912 123 1106 206 c 1,31,-1
 1155 63 l 1,0,1
998 672 m 1,32,-1
 998 768 l 2,33,34
 998 925 998 925 937 992 c 0,35,36
 869 1067 869 1067 702 1067 c 0,37,38
 502 1067 502 1067 429 980 c 0,39,40
 359 897 359 897 359 672 c 1,41,-1
 998 672 l 1,32,-1
683 1475 m 0,42,43
 616 1475 616 1475 597 1494 c 0,44,45
 567 1525 567 1525 567 1579.5 c 128,-1,46
 567 1634 567 1634 573.5 1657.5 c 128,-1,47
 580 1681 580 1681 593 1694 c 0,48,49
 617 1718 617 1718 666.5 1718 c 128,-1,50
 716 1718 716 1718 737.5 1713 c 128,-1,51
 759 1708 759 1708 773 1694 c 0,52,53
 797 1670 797 1670 797 1615.5 c 128,-1,54
 797 1561 797 1561 791.5 1537.5 c 128,-1,55
 786 1514 786 1514 773 1500 c 0,56,57
 748 1475 748 1475 683 1475 c 0,42,43
EndSplineSet
EndChar

StartChar: Eogonek
Encoding: 280 280 237
Width: 1195
GlyphClass: 2
Flags: W
LayerCount: 2
Fore
SplineSet
712 -275 m 0,0,1
 712 -123 712 -123 889 0 c 1,2,-1
 236 0 l 1,3,-1
 236 1530 l 1,4,-1
 1103 1530 l 1,5,-1
 1103 1382 l 1,6,-1
 406 1382 l 1,7,-1
 406 854 l 1,8,-1
 968 854 l 1,9,-1
 968 707 l 1,10,-1
 406 707 l 1,11,-1
 406 147 l 1,12,-1
 1130 147 l 1,13,-1
 1130 0 l 1,14,-1
 1046 0 l 1,15,16
 902 -87 902 -87 866 -198 c 0,17,18
 856 -228 856 -228 856 -251 c 0,19,20
 856 -338 856 -338 961 -338 c 0,21,22
 1036 -338 1036 -338 1110 -307 c 1,23,-1
 1150 -432 l 1,24,25
 1084 -474 1084 -474 972 -474 c 0,26,27
 712 -474 712 -474 712 -275 c 0,0,1
EndSplineSet
EndChar

StartChar: eogonek
Encoding: 281 281 238
Width: 1364
GlyphClass: 2
Flags: W
LayerCount: 2
Fore
SplineSet
623 -276 m 0,0,1
 623 -134 623 -134 778 -17 c 1,2,3
 758 -18 758 -18 738 -19 c 128,-1,4
 718 -20 718 -20 698 -20 c 0,5,6
 553 -20 553 -20 452 10 c 1,7,8
 291 56 291 56 238 200 c 0,9,10
 189 335 189 335 189 600 c 2,11,-1
 189 651 l 2,12,13
 189 968 189 968 321 1096 c 1,14,15
 440 1210 440 1210 718 1210 c 0,16,17
 989 1210 989 1210 1088 1076 c 0,18,19
 1136 1011 1136 1011 1151.5 918.5 c 128,-1,20
 1167 826 1167 826 1167 716 c 128,-1,21
 1167 606 1167 606 1161 534 c 1,22,23
 1020 528 1020 528 908 528 c 2,24,-1
 747 528 l 2,25,26
 495 528 495 528 359 550 c 1,27,28
 359 320 359 320 417 231 c 0,29,30
 488 122 488 122 698.5 122 c 128,-1,31
 909 122 909 122 1106 206 c 1,32,-1
 1155 63 l 1,33,34
 1073 32 1073 32 981 11 c 1,35,-1
 959 0 l 1,36,37
 813 -88 813 -88 777 -198 c 0,38,39
 767 -229 767 -229 767 -252 c 0,40,41
 767 -339 767 -339 872 -339 c 0,42,43
 947 -339 947 -339 1021 -308 c 1,44,-1
 1061 -433 l 1,45,46
 995 -475 995 -475 883 -475 c 0,47,48
 623 -475 623 -475 623 -276 c 0,0,1
998 672 m 1,49,-1
 998 768 l 2,50,51
 998 925 998 925 937 992 c 0,52,53
 869 1067 869 1067 702 1067 c 0,54,55
 502 1067 502 1067 429 980 c 0,56,57
 359 897 359 897 359 672 c 1,58,-1
 998 672 l 1,49,-1
EndSplineSet
EndChar

StartChar: Ecaron
Encoding: 282 282 239
Width: 1195
GlyphClass: 2
Flags: W
LayerCount: 2
Fore
SplineSet
236 1530 m 1,0,-1
 1103 1530 l 1,1,-1
 1103 1382 l 1,2,-1
 406 1382 l 1,3,-1
 406 854 l 1,4,-1
 968 854 l 1,5,-1
 968 707 l 1,6,-1
 406 707 l 1,7,-1
 406 147 l 1,8,-1
 1130 147 l 1,9,-1
 1130 0 l 1,10,-1
 236 0 l 1,11,-1
 236 1530 l 1,0,-1
371 1917 m 1,12,-1
 448 1997 l 1,13,-1
 685 1797 l 1,14,-1
 914 1998 l 1,15,-1
 988 1916 l 1,16,-1
 764 1669 l 1,17,-1
 604 1669 l 1,18,-1
 371 1917 l 1,12,-1
EndSplineSet
EndChar

